<svg xmlns="http://www.w3.org/2000/svg" viewBox="0 0 240.68 240"><defs><style>.cls-1{fill:#fff;}</style></defs><g id="Слой_2" data-name="Слой 2"><g id="Слой_1-2" data-name="Слой 1"><polyline class="cls-1" points="109.27 138.63 120.38 109.02 80.3 138.63"/><path class="cls-1" d="M227.87,126.89H193.39a19.48,19.48,0,0,0-18.24,12.64l.35-.94a4.41,4.41,0,0,0-4.13-6H150.8l2.54-6.76h18.51a10.24,10.24,0,0,0,9.59-6.65l.52-1.39H146a12.77,12.77,0,0,0-12,8.29l16-42.68H108.34L91.74,97.05a8.43,8.43,0,0,0-7.4-4.42H68.25L71,85.36H57.1A10.28,10.28,0,0,0,47.48,92l-.22.61H33.32a19.49,19.49,0,0,0-18.25,12.64l-4.34,11.58a8.56,8.56,0,0,0,8,11.57H33.83l-2.44,6.51H45.53L0,172.26s11.25,8.73,52.45-3.83c29.19-8.9,44.5-27.37,44.5-27.37a121.15,121.15,0,0,1-33.31,16.55c-22.86,6.92-37.09,4.91-37.09,4.91l84.22-69.06h24.75l-23.86,63.62v-9.33H92.45v23h24.88L124,152.93a.08.08,0,0,0,.08.12h37.7a12,12,0,0,0,11.2-7.76l-3.55,9.45h-2a10.17,10.17,0,0,0-9.52,6.6l-.47,1.25h56.58a10.24,10.24,0,0,0,9.58-6.63l.46-1.22h-6.66ZM37,120H30.43l7.08-18.86H44Zm27.89-.94-1.14.94H58l7.07-18.85h6.56Zm87.54,26.72h-6.55l2.18-5.81h6.55Zm44.22,9h-6.56L197.49,135H204Z"/><path class="cls-1" d="M120.68,0a120,120,0,1,0,120,120A120,120,0,0,0,120.68,0Zm91.94,176.34a107.54,107.54,0,0,1-7.26,10.41L88.28,192.48,199,194.14a108.61,108.61,0,0,1-14.8,13L98.5,211.37l77.61,1.17A107.92,107.92,0,1,1,161.27,20l-19.46,6.85h33.32q4.45,2.61,8.62,5.63l-50.62,9.18h61.68a107.4,107.4,0,0,1,8.52,9.07L125.47,57.5h83.08a109.6,109.6,0,0,1,7,11.28L141.81,79h78.57a106.13,106.13,0,0,1,3.87,11l-79.37,3.65L226.22,98a108.66,108.66,0,0,1,1.69,10.91l-83,6,83.54,1.87c0,1.09.06,2.19.06,3.29a107.45,107.45,0,0,1-11.63,48.76L97.39,174.6Z"/></g></g></svg>