<svg xmlns="http://www.w3.org/2000/svg" viewBox="0 0 124.7 124.7"><defs><style>.cls-1{fill:#1d1d1b;}</style></defs><g id="Слой_2" data-name="Слой 2"><g id="Слой_1-2" data-name="Слой 1"><path class="cls-1" d="M40.63,30.84H54.57l18,63H58.41l-3.14-13H37.52l-3.09,13H21.71ZM52.66,70,46.29,44.22,40.19,70Z"/><path class="cls-1" d="M91.41,66.3q8.85-4.8,8.86-16.62a22.18,22.18,0,0,0-1.78-9.07,15.47,15.47,0,0,0-4.91-6.37,14.66,14.66,0,0,0-6.21-2.86,54.66,54.66,0,0,0-8.84-.54H58.73L72.57,79.32V68.93h6.92l8.43,24.92H103ZM78.67,58.73h-6.1V41.05h5.54a12.07,12.07,0,0,1,4.69.71,6.49,6.49,0,0,1,2.79,2.73,9.88,9.88,0,0,1,1.2,5.14Q86.79,58.72,78.67,58.73Z"/><path class="cls-1" d="M119,5.67V119H5.67V5.67H119M124.7,0H0V124.7H124.7V0Z"/></g></g></svg>