<svg xmlns="http://www.w3.org/2000/svg" viewBox="0 0 342.59 275.87"><defs><style>.cls-1{fill:#fff;fill-rule:evenodd;}</style></defs><g id="Слой_2" data-name="Слой 2"><g id="svg"><g id="svgg"><path id="path0" class="cls-1" d="M154.06,1.14C100.81,8.31,56,45.24,39.68,95.31l-3.24,10-18.22-1.2C2.74,103.08,0,103.32,0,105.67,0,109.3,13.45,119,20.68,120.58c10.57,2.32,12.65,5.75,12.65,20.81,0,59.44,44,114.93,103.18,130.17,85.7,22.08,172.75-43.57,172.75-130.29,0-15.28,1.9-18.45,12.39-20.68,7.41-1.57,20.94-11.21,20.94-14.92,0-2.35-2.73-2.59-18.22-1.58l-18.22,1.2-3.24-10C282.82,33.48,218.08-7.48,154.06,1.14m50.36,7.28c44.33,11.34,79.3,43.56,94.72,87.27,2.89,8.2-.51,10-8.93,4.63-2.25-1.43-8.3-3.16-13.45-3.83-11.52-1.51-11.61-1.57-19.11-13.43-39.15-61.89-133.56-61.89-172.71,0C77.45,94.91,77.37,95,65.83,96.53c-5.14.7-11.6,2.42-14.35,3.83C42.41,105,40.54,104,43.4,95.84c23.54-66.72,93.48-104.69,161-87.42m-43.9,3.11c-.69.7-1.26,2.79-1.26,4.66s-1.25,3.39-2.78,3.39-2.78-1.64-2.78-3.7-1.23-3.7-2.95-3.7c-2.64,0-2.41,17.17.26,20.09,1.73,1.89,4.54-2.39,3.57-5.43-.86-2.72-.23-3.55,2.7-3.55,2.6,0,3.83,1.19,3.83,3.7,0,4,8,5.44,10.19,1.85.63-1,2.76-1.85,4.73-1.85s3.6.84,3.6,1.85c0,5.91,12.58,1.68,13.77-4.63,1.63-8.69,5.15-8.32,4.41.47-.85,10,2.82,9.63,4.72-.46,1.85-9.79,2.11-9.3-5.76-10.8-5.82-1.11-6-.92-7.18,6.21-1.56,9.77-5.22,9.33-8.11-1-3-10.67-6.18-10.54-11.41.46l-4.17,8.8-.67-7.41c-.69-7.68-2.52-11.17-4.71-9m-29.83,7.26c-8.94,8.94,5.17,22.31,14.45,13.69,2.39-2.22,2-10.61-.69-13.82-3-3.62-10.08-3.56-13.76.13m76,4.55c-4.29,10.71-3.83,12.58,3.39,13.94,10.53,2,15.17-6.3,5.9-10.52-2.92-1.33-4.12-3.13-3.55-5.31,1.78-6.79-2.88-5.26-5.74,1.89m-66-1c2.81,3.38,1.17,8.36-2.76,8.36-3.39,0-5.47-4.38-4-8.34,1.36-3.53,3.8-3.54,6.72,0m-22.2.11a35.62,35.62,0,0,0,2.91,6.66c1.61,3.1,2.32,6.18,1.6,6.85s-1.68.19-2.13-1.07c-1.49-4.16-7.6-10.7-8.84-9.46-.67.67.12,3.82,1.77,7,2.78,5.38,2.55,9.38-.56,9.38-.72,0-2.9-2.94-4.83-6.54-5-9.37-7.89-5.13-3,4.46,4.18,8.19,6.39,9.07,12,4.8,2.57-2,4-2.13,4.89-.63a2.5,2.5,0,0,0,3.44.76c1.6-1,1.54-2.08-.26-4.3-1.54-1.9-1.61-2.5-.22-1.66,3.86,2.32,4.45-2,1.36-9.73-2.44-6.1-8.17-10.67-8.17-6.52M223.33,33c-3.39,5.68-4.05,8.18-2.44,9.18,1.31.81,3-.08,4.11-2.17,1.25-2.34,2.74-3,4.38-2,1.85,1.14,2,2.46.55,5.14-2.48,4.65,5.86,10.25,11.74,7.88,6.05-2.44,7.24-2,4,1.63-3.66,4-3.9,5.87-.75,5.87,1.27,0,4.7-3,7.61-6.64,6.11-7.65,4.71-11.27-3.2-8.27-4.67,1.78-4.85,1.66-2.93-1.94,3.79-7.06-.37-6.38-6.72,1.11-7.22,8.52-8.12,7.38-2.3-3,4-7.1,3.23-12.73-1-7.06-3.19,4.35-7,2.26-5.66-3.09,1.78-7.11-2.3-5.28-7.43,3.33m-8.51-.05c0,2.43-4.21.91-5.14-1.86-.45-1.35.4-1.77,2.2-1.07,1.62.62,2.94,1.94,2.94,2.93M89.7,40.5c-.5,1.32.32,5.9,1.83,10.19,3.19,9,2.26,9.62-4.7,3-5.17-5-11.28-4.71-7.13.29,3,3.6.4,7.24-3.09,4.34-6.5-5.39-6.29,1.62.21,7.34,8.18,7.17,15.08,7.73,8,.64-3.33-3.32,1-7.36,4.67-4.34,2.83,2.34,5.62.07,9.59-7.8,1.32-2.62,3.39-3.77,6.09-3.39,6.75,1,4.64-2.73-4.48-7.83-9.94-5.56-9.78-5.52-11-2.39m78,17.39c-.71,3.77-2.24,6.14-4,6.14s-2.56,1.26-2.12,3.24c.39,1.78,1.7,3,2.91,2.78s2.21.37,2.21,1.39-5.29,1.85-12.17,1.85c-12.52,0-15.28-3.8-7.4-10.19,1.26-1,2.86-4.14,3.56-6.94s2.31-5.09,3.59-5.09,4.81-2.71,7.84-6l5.5-6,.61,6.36a54.32,54.32,0,0,1-.55,12.5M187.81,49c3.11,3.45,3.24,4.47,1.05,8.57-2.7,5-6.79,5.18-5.91.21.39-2.18-.81-3-4.17-3-4.26,0-4.71-.7-4.71-7.45V39.86l5.1,2.64A36.73,36.73,0,0,1,187.81,49m79.07-.16c-.13,1.47-1.53,2-3.55,1.38-4.77-1.52-17.23,11.25-12.68,13a13.45,13.45,0,0,0,7,.19c3.56-.93,3.63-.77.89,2.25-7,7.74-.15,7.91,7.24.19,5.29-5.52,8-13,4.76-13-.94,0-2.09-1.46-2.56-3.24s-.94-2.15-1.06-.8m-66,5.59c-1.32,1.32-6.48-1.35-6.48-3.36,0-1.22,1.33-1.1,3.62.33,2,1.25,3.28,2.61,2.86,3m-73.14-2.35c0,.57-3.91,5.57-8.69,11.11-8.78,10.17-15.93,13.46-14.1,6.48.54-2.09,2-3.17,3.48-2.59,2.48.95,15.6-11.22,15.6-14.46a1.74,1.74,0,0,1,1.86-1.59c1,0,1.85.47,1.85,1m139.81,2.65c.63,1,.47,1.86-.35,1.88a44.08,44.08,0,0,0-6.13,1.15c-4.51,1.11-4.54,1.06-.92-1.81,4.36-3.48,5.85-3.73,7.4-1.22m-125,4c0,10.45-4.26,14.48-15.31,14.48H116.41l4-5.62c5.69-8,22.17-14.59,22.17-8.86M107.41,79.68c0,7.4-10.34,13.77-19.21,11.84-6.68-1.46,3.92-12.68,12-12.68,4,0,7.23.38,7.23.84M134.55,83c-.57,2.29-1.58,7.56-2.24,11.71l-1.2,7.54L126,97.17a26.68,26.68,0,0,0-11.8-6.35l-6.7-1.26,2.77-5.36c3.83-7.42,26.08-8.51,24.26-1.19m17.68-2.85c-3.21.62-4,1.68-3.11,4.38.95,3,.21,3.56-4.55,3.56-4.09,0-5.74.91-5.9,3.24-.17,2.66-.35,2.72-1,.32-2-7.5,2.6-12.83,10.9-12.56,4.39.14,6,.61,3.66,1.06m60.71,1.92c-.08,3.7-3.17,6.32-4.22,3.58-.58-1.51-.56-3.25.05-3.86,1.56-1.55,4.2-1.38,4.17.28m-13.84,6A5.09,5.09,0,0,1,203,90.24c.94,1.53-.29,1.82-4.25,1-3.07-.61-6.46-.23-7.54.85-2.81,2.81-5.8.32-4.7-3.91,1.07-4.07,8.58-6,9.5-2.42a3.36,3.36,0,0,0,3.13,2.31m-39.54,8.46A78.45,78.45,0,0,0,148.15,101l-4.63,2.41,4.53-4.4c8.65-8.4,13.68-10.68,16.14-7.35,1.81,2.46,1.09,3.23-4.63,4.93m57.61-4.86c1.05,4-.16,6.09-2.61,4.58-2.1-1.3-2.07-8.18,0-8.18.9,0,2.06,1.62,2.57,3.6m-94.95,7.51a14.88,14.88,0,0,1,3.71,9.16,9.84,9.84,0,0,0,3.69,8c4.06,2.84,3.12,5-2.15,5-2,0-6.23-3.94-10.06-9.27C109.15,100.68,106,99.85,85.63,104c-14.95,3-28.83,2.66-25.51-.67,6.41-6.42,56.47-9.71,62.1-4.08m15,4.26c-1.49,1.49-2,.56-2-3.42,0-4.79.3-5,2-2,1.43,2.45,1.41,4-.05,5.47m127.91-4.58c8.84,1.73,16.65,3.72,17.35,4.42,3.31,3.31-10.62,3.66-25.53.65-20.32-4.11-23.52-3.28-31.78,8.21-3.83,5.33-8.1,9.27-10.05,9.27-5.28,0-6.22-2.19-2.16-5a9.85,9.85,0,0,0,3.7-8c0-13.17,14.85-16.08,48.47-9.48m-72.53,6.6c26.88,17.79,21.46,59.17-9.09,69.39a38.43,38.43,0,0,1-50.8-36.78c0-30.66,34.48-49.43,59.89-32.61m-129,4.84c7,0,2.37,3.33-7.4,5.3-19.1,3.83-37.32,1.84-46.08-5-3.65-2.86-3-3,12-2.49,8.73.29,19.62-.19,24.21-1.08,6.18-1.2,9.08-1,11.25.85a11.14,11.14,0,0,0,6,2.47m257.85-2.15c14.12-.6,14.73-.47,11.09,2.4-8.76,6.89-27,8.88-46.09,5-10-2-14.37-5.3-7-5.3A8.17,8.17,0,0,0,285,107.8c1.64-2,4.2-2.14,11.8-.75,5.34,1,16.43,1.48,24.65,1.13M150.17,110c-1,1.87-1.34,8.07-.75,13.77.94,9.08.44,11.47-4,19.06-3.69,6.29-4.48,9-2.87,10s1.21,1.78-1.18,2.76c-3.22,1.31-3.2,1.46.31,2.9,4.66,1.92,17.36,2,22.15.1,2-.78,8.94-.42,15.43.8,11.56,2.17,11.81,2.13,13.42-2.1.9-2.37,4.13-10.17,7.18-17.34l5.55-13-4.09-2.67c-16.37-10.7-37.75-11.72-44.26-2.1-.71,1-1.87,1.33-2.58.62s-.32-2.46.86-3.89c1.52-1.83,1.61-4,.31-7.45-2.19-5.76-3-6-5.47-1.47m-56.77.12c1.39,2.25-6.41,4-11.67,2.65-3.19-.84-3.64-1.51-1.79-2.68,3.27-2.08,12.17-2.06,13.46,0m169.28,0c1.86,1.18,1.38,1.85-1.91,2.68-5.36,1.35-13-.41-11.57-2.68,1.29-2.08,10.19-2.08,13.48,0m-184.14,7.6c-5,5-33,9.9-39.65,6.92l-6.48-2.89,10.18-.19A93.66,93.66,0,0,0,62,118.79c11.33-3.16,19.08-3.66,16.5-1.08m201.09,1A102.09,102.09,0,0,0,300,121.57l10.19.17-6.47,2.82c-6.74,2.93-34.68-1.86-39.61-6.79-2.73-2.73,3.35-2.38,15.52.89M166.67,133c-7.33,16.11-7.17,15.89-9.34,12.47-5.06-8-1.13-19.5,8.41-24.49,7.77-4.07,7.84-3.17.93,12m23-11.25,8.25,4-6.57,13.12c-3.61,7.22-6.76,13.34-7,13.61s-4.66-1.4-9.84-3.71l-9.41-4.19,6.23-13.42c7-15,6.89-15,18.33-9.42M79.93,124.57c-5.45,2.57-13.36,5-17.6,5.46-5.95.6-4.43-.22,6.69-3.63,7.91-2.43,14.92-5,15.58-5.62a4.61,4.61,0,0,1,3.21-1c1.1.08-2.45,2.26-7.88,4.83m194.14,1.83c11.24,3.57,12.42,4.26,6.19,3.63-4.24-.44-12.15-3-17.59-5.64s-8.22-4.31-6.19-3.63,10,3.21,17.59,5.64m-182.4-.07c-5.49,4.33-18,9.84-22.23,9.81-2,0,2.13-2.84,9.26-6.28,14.17-6.83,18.72-8.07,13-3.53m171.51,3.37c7.52,3.53,12,6.43,10,6.44-4.24,0-16.74-5.49-22.22-9.81-5.65-4.46-2.73-3.65,12.25,3.37m-159.48-3c0,2.89-13.84,11.27-20.41,12.35l-6.44,1.06,5.56-2.7a98.2,98.2,0,0,0,12-7.42c6.92-5,9.26-5.86,9.26-3.29m142.93,2.34A128.9,128.9,0,0,0,259,136.59l6.79,3.57-6.44-1.07c-6.57-1.08-20.41-9.46-20.41-12.35,0-2.46,1.72-1.94,7.74,2.34M49.07,132.54c19.74,8.2,18.58,6.94,21.77,23.83,20.9,110.65,179.33,110.61,201,0,3-15.4,3.12-15.59,10.5-18.9,24.34-10.93,23.2-11.12,23.16,3.79-.21,84-84.5,147.75-167.33,126.57C80.53,253,37.22,199,37.07,141.52c0-13.35.5-13.75,12-9m58.41-.12c-2.52,4.71-11.82,11.24-16,11.24-2,0,0-2.13,5.16-5.38,4.66-2.95,9-6.28,9.73-7.4,2.17-3.52,3.11-2.21,1.11,1.54m140.67,7.33c5.26,3.16,5.74,3.9,2.56,3.9-4.66,0-12.86-6.07-15.79-11.71l-2.09-4,4.42,4a85,85,0,0,0,10.9,7.86M115.3,135.18c-5.14,8.67-15.3,17.2-15.3,12.85,0-2.21,13.88-16.69,15.3-16,.78.4.78,1.8,0,3.11M242.59,148c0,.65-1,1.14-2.31,1.09-3-.13-14.63-14.62-13.37-16.67.93-1.5,15.68,13.16,15.68,15.58M122.77,137.64c-2.26,6.12-6.53,11.57-9.08,11.57-1.73,0-.93-2.33,2.53-7.33,5.3-7.67,8.59-9.79,6.55-4.24m70.69,8.74c-2.6,5.89-5.15,10.28-5.66,9.77s1.35-5.6,4.14-11.29c6.58-13.41,7.65-12.34,1.52,1.52m32.91-4.5c3.46,5,4.27,7.33,2.53,7.33-2.55,0-6.82-5.45-9.07-11.57-2.05-5.55,1.24-3.43,6.54,4.24m-99.3,6.52a4.44,4.44,0,0,1-3.78,2.67c-2.34,0-2.28-.83.41-5.55,3.12-5.49,5.72-3.27,3.37,2.88m94.05,2.43c-2,2.3-6.3-2.27-6.29-6.65V139l3.44,5.55c1.9,3.06,3.18,5.87,2.85,6.25m-135-5.32c.63,1,2.76,1.85,4.74,1.85,2.6,0,3.59,1.28,3.59,4.63,0,5.6-2,5.88-6.48.93-1.84-2-5-3.71-7-3.71-3,0-3.26-.46-1.34-2.77,2.68-3.23,4.87-3.54,6.48-.93m182.41,4.63v6.48H258.33c-9.63,0-10.18-.25-10.18-4.63,0-3.35,1-4.63,3.59-4.63,2,0,4.11-.83,4.74-1.85,3.28-5.31,12-1.94,12,4.63M43.7,149.93c.63,1.65,1.79,3,2.58,3,2.16,0,3.62,7.25,1.69,8.44a4.82,4.82,0,0,0-1.67,3.75c0,2.35.61,2.33,4.63-.11l9.2-5.6c6.16-3.75,4.21-7.64-4.53-9a69.17,69.17,0,0,1-10.09-2.27c-2.17-.84-2.65-.34-1.81,1.84M175,153c5.92,2.8,6.38,3.33,2.32,2.64C165.86,153.69,163,152.76,163,151c0-2.62,3.59-2,12,2m101.88,9.65c-1.78,7.38-4.84,16.58-6.8,20.43s-3,8-2.27,9.09.45,1.56-.7.85c-3.24-2-3.83,3-1,8.63l2.63,5.21-4.56-3c-8.44-5.53-7.09.51,1.42,6.36s12.14,5.08,8.42-1.87c-2.48-4.63-1.06-6.82,2.5-3.86,2.35,1.95,5,1.17,5-1.48,0-.63-2.5-2.62-5.55-4.43-10.4-6.14-7-10.6,4.4-5.82,9.14,3.82,9.38-.84.27-5.19-6.63-3.16-7.72-10.3-1.19-7.78,11.54,4.47,14.92,2.48,15-8.82,0-4.87-3.11-3.89-4.44,1.39-.64,2.55-2,4.63-3,4.63s-1.36-2-.74-4.43.29-4.92-.7-5.54-2.32,1-3,3.5c-2.05,8.15-4.18,4.92-2.25-3.4l1.86-8,7,1.28c3.85.7,7.44.84,8,.3,2.45-2.45.4-4.11-6.43-5.2-4.47-.71-7.41-2.19-7.41-3.72,0-7-3.57-1-6.45,10.88m-158.94-7.22c.66.66-3.53,1.2-9.3,1.2-6.09,0-10.49-.81-10.49-1.94,0-2.07,17.63-1.41,19.79.74m126.51-.71c0,1.08-4.46,1.91-10.3,1.91-5.66,0-9.9-.62-9.42-1.39,1.38-2.2,19.72-2.69,19.72-.52M104.67,190c3.75,7.25,3.7,7.33-4.6,7.33-5.37,0-7.86-1-9.26-3.58-2.56-4.78-2.43-5.68.86-5.68s3.53-3.32,1-10c-1.14-3-1.14-5.08,0-5.78,1-.61,1.84-3.76,1.92-7,.1-4.55,1-3,3.74,6.76,2,7,4.84,15.05,6.35,18m26.43-15.35c1.25,7.89,2.79,16.22,3.4,18.52,2.3,8.55-20.52,6-25-2.78-3.29-6.46-9.5-25.14-9.5-28.58,0-.83,6.48-1.51,14.41-1.51h14.4l2.29,14.35m27.1,4.52c7.64,2,8,2.41,6.06,6.6-1.5,3.29-1.43,5.36.26,8.08,2.2,3.52,1.81,3.63-11.21,3.1l-13.49-.54-2.11-8.52c-1.15-4.69-2.68-12.73-3.39-17.88L133,160.67l8.54,8.18c5.43,5.2,11.49,9,16.63,10.35m84.39-16.39c0,3.42-6.34,21.56-10,28.7-2.37,4.59-4.22,5.85-8.57,5.85h-5.55l3.75-7.33c5.15-10.1,5.13-15.23,0-9.68-2.08,2.23-4.58,4.05-5.55,4.05s-1.78,1.51-1.78,3.35c0,4.45-4.86,10.93-6.76,9-.83-.83-.23-3.75,1.33-6.48s3-9.14,3.28-14.23c.73-15.85.63-15.74,16.16-15.74,10.29,0,13.76.62,13.76,2.48m24.08-.7c0,3.62-7.5,20.66-12.26,27.84-5.45,8.24-21.55,11.92-18.24,4.17C241,182.85,246.3,167,246.3,164s1.31-3.62,10.18-3.62c5.6,0,10.19.8,10.19,1.78M54.3,167.06c-8.07,2.86-8.78,9.47-1.64,15.39,3.39,2.81,15.87-2.61,15.83-6.87-.09-11.51-2.18-12.77-14.19-8.52m3.11,9c0,1.52-.84,2.77-1.85,2.77s-1.86-1.25-1.86-2.77.84-2.78,1.86-2.78,1.85,1.25,1.85,2.78m3.85,8.42c-5.3,2.4-7.56,4.35-6.4,5.51,2.4,2.4,17.36-3.47,17.36-6.81s-1.21-3.12-11,1.3m-1.48,8.89c-4.36,1.28-3.37,4.91,1.33,4.91,1.77,0,2.81,1.83,2.86,5,.13,7.75,1.78,7.8,8,.21,9-10.93,4.17-14.94-12.23-10.14m14.55,14c-7.46,6.23-7.48,6.29-3.76,9.65,2.09,1.9,3.35,4.84,2.87,6.7-1.61,6.16,2.23,5.28,9.64-2.2,4-4.1,8-7.45,8.82-7.45s-1.72,3.24-5.58,7.19c-4.84,5-6.34,7.63-4.81,8.57,1.34.83,4.89-1.3,8.93-5.33l6.7-6.71-4-4-4-3.95-5.71,4.06c-8.34,5.94-11,2.85-3.88-4.5,8-8.27,4-9.84-5.3-2.07M121,215c12.86,14.38,11.69,15-5.4,3-17.64-12.39-19.71-15.08-11.61-15.08,5.35,0,7.79,1.73,17,12m18.59-7.88c.58,2.3,3.94,9,7.47,14.82s6,10.65,5.56,10.65c-5.79,0-25.71-15-32.35-24.29l-3.81-5.34h11c9.9,0,11.15.43,12.09,4.16m29,12.55v16.72l-5.47-2.83c-6.57-3.4-20.46-23.61-20.46-29.76,0-.46,5.84-.84,13-.84h13v16.71M199,207.08c-3.19,10.53-12.27,22.72-19.82,26.63l-5.1,2.64V214h6.14c4.4,0,7.64-1.57,11.46-5.56,6.33-6.6,9.05-7.12,7.32-1.39m23.39,1.18c-5.76,8.08-15.87,16.34-26.61,21.74l-9.66,4.84,4-4.38c4.3-4.69,13.56-22.1,13.56-25.5,0-1.26,4.27-2,11.24-2h11.24l-3.8,5.34M237,210.45c-7.85,7-22.36,16.54-25,16.54-.67,0,3.65-5.39,9.58-12,9.39-10.42,11.64-12,17.28-12l6.48,0L237,210.45m14,1.66c-1.89,2.08-2.79,4.94-2.12,6.69.88,2.28.41,2.75-1.89,1.87-3.54-1.35-11.83,3.47-11.72,6.83.13,3.86,10.58,14.81,12.82,13.42,1.55-.95,1.56-1.95,0-3.78s-1.33-3.61.85-6.93c1.6-2.44,2.49-5,2-5.7s.07-.41,1.29.61c6.93,5.87,21.1-3.3,14.82-9.59-1.57-1.57-2.58-.85-4,2.83-2.06,5.42-3.79,6.07-7.15,2.71s-2.7-6.49,1.48-7.58c2-.53,3.7-1.88,3.7-3,0-3.34-6.59-2.29-10.12,1.61M103.07,219a6.63,6.63,0,0,1-4,1.51c-1.41,0-4.69,2.89-7.28,6.41-5.54,7.48-3.83,11.23,3.57,7.86,5.18-2.36,6.28-.29,1.82,3.42-2.13,1.76-2.3,2.73-.66,3.74,2.56,1.58,11.45-8.09,11.8-12.83a14.08,14.08,0,0,1,1.64-5.37c.87-1.42.37-2.28-1.32-2.28a3.65,3.65,0,0,1-3.39-2,1.19,1.19,0,0,0-2.14-.49m2.36,6.83a24.93,24.93,0,0,1-5.43,2.12c-4.62,1.4-4.63,1.4-1.06-2.59,2.39-2.68,4.18-3.38,5.43-2.13,1,1,1.5,2.2,1.06,2.6m140.87.87c0,2.41-2.2,4-4,2.91s-.26-4.45,2.25-4.45a1.66,1.66,0,0,1,1.75,1.54M107.19,237.21c-4.35,8.19-3.46,14,1.17,7.65,3.3-4.5,6.78-2.19,5.33,3.54-1.77,7,2.26,5.38,6.89-2.87,5.21-9.26,6.23-8.54,2.57,1.83-3.42,9.7-2.5,11,4.76,6.7l5.57-3.29-1.26,5c-2.1,8.35,3.29,4.5,6.28-4.49,3.2-9.58,2-11.23-5.2-7-5.47,3.23-5.47,3.23-3.89-1,2.1-5.66-6.67-10.19-10.3-5.33-1.72,2.29-2.69,2.44-4.46.69s-1.77-2.83-.08-4.87,1.62-2.86-.45-3.65c-1.74-.67-4.09,1.74-6.93,7.09m118.27-5.45-5.1,2.76,3.68,7.22c2,4,4.53,7.74,5.56,8.38,2.05,1.27,13-4.51,13-6.86,0-2-4-1.79-7.32.31-4.66,3-5.91,0-1.51-3.59,2.31-1.88,3.56-4,2.78-4.83s-2.4-.44-3.61.76c-2.62,2.63-5.15,2.86-5.15.47,0-.95,1.68-2.26,3.73-2.91s3.25-2,2.67-2.91c-1.41-2.27-2.65-2.1-8.72,1.2m-16.66,7.62c-4,1.05-4.05,3-.26,12.89l3,7.8,6.28-3c6-2.86,9.32-11.57,4.42-11.57-1,0-1.85-1.67-1.85-3.7,0-3.72-3.68-4.49-11.57-2.43M147.34,242c.57.91-.21,1.66-1.71,1.66s-3.24,2.48-3.95,6c-.67,3.31-1.63,7.47-2.13,9.26-1.27,4.53,2.85,4.06,8.17-.93l4.43-4.17-1.27,5.1c-1,3.85-.61,5.09,1.49,5.09,3.32,0,6.59-17.08,3.46-18.12a2.1,2.1,0,0,1-1.08-2.83c.5-1.3-1.05-2.31-3.79-2.47-2.55-.14-4.18.48-3.62,1.39m51.87,1.45c-.56.9-.12,4.44,1,7.87s2.36,7.41,2.81,8.85c2.3,7.34,4.39-1.71,2.24-9.73-2.24-8.39-4-10.37-6-7m-49.52,6.33c-1.4,2.62-2.44,3.22-2.95,1.68-1.16-3.48,1.08-8.22,3.25-6.88,1.23.76,1.13,2.54-.3,5.2m42.57-2.1c-.79,5.33-4.49,6.37-5.74,1.61-1.57-6-9.85-5.08-11.53,1.31-1.33,5.08-1.34,5.08-3.26.93-1.06-2.29-3-4.17-4.39-4.17-1.93,0-1.78,1.45.68,6.59,2.7,5.66,2.76,6.83.48,8.24-1.46.9-2.09,2.2-1.4,2.89,2.65,2.65,7.39-1.36,10.26-8.67,3.25-8.25,5.57-6.45,5.84,4.53.09,3.36,1,5,2.45,4.45,1.27-.45,2.25-2.6,2.17-4.79-.1-2.67,1-4,3.24-4s3.38,1.36,3.38,3.86c0,2.28.95,3.53,2.32,3,2.23-.79,2.38-6.8.4-15.7-1.19-5.31-4.13-5.4-4.9-.15m27.18,3.39a5,5,0,0,1-3.92,1.85c-1.53,0-2.26-.84-1.63-1.85a5,5,0,0,1,3.92-1.86c1.53,0,2.26.84,1.63,1.86"/></g></g></g></svg>