<svg xmlns="http://www.w3.org/2000/svg" xmlns:xlink="http://www.w3.org/1999/xlink" viewBox="0 0 750 500"><defs><style>.cls-1{fill:none;}.cls-2{isolation:isolate;}.cls-3{fill:#ffd8c7;}.cls-4{clip-path:url(#clip-path);}.cls-5{fill:url(#linear-gradient);}.cls-6{fill:url(#linear-gradient-2);}.cls-7{fill:url(#linear-gradient-3);}.cls-8{fill:url(#linear-gradient-4);}.cls-9{fill:url(#linear-gradient-5);}.cls-10{fill:url(#linear-gradient-6);}.cls-11{fill:url(#linear-gradient-7);}.cls-12{fill:url(#linear-gradient-8);}.cls-13{fill:url(#linear-gradient-9);}.cls-14,.cls-15,.cls-17,.cls-18,.cls-20,.cls-21,.cls-22,.cls-23,.cls-24,.cls-25,.cls-26,.cls-27,.cls-28{mix-blend-mode:multiply;}.cls-14{fill:url(#linear-gradient-10);}.cls-15{fill:url(#linear-gradient-11);}.cls-16{fill:url(#linear-gradient-12);}.cls-17{fill:url(#linear-gradient-13);}.cls-18{fill:url(#linear-gradient-14);}.cls-19{fill:url(#linear-gradient-15);}.cls-20{fill:url(#linear-gradient-16);}.cls-21{fill:url(#linear-gradient-17);}.cls-22{fill:url(#linear-gradient-18);}.cls-23{fill:url(#linear-gradient-19);}.cls-24{fill:url(#linear-gradient-20);}.cls-25{fill:url(#linear-gradient-21);}.cls-26,.cls-27,.cls-28{opacity:0.53;}.cls-26{fill:url(#linear-gradient-22);}.cls-27{fill:url(#linear-gradient-23);}.cls-28{fill:url(#linear-gradient-24);}</style><clipPath id="clip-path"><rect class="cls-1" width="750" height="500"/></clipPath><linearGradient id="linear-gradient" x1="95.27" y1="199.47" x2="266.77" y2="27.97" gradientTransform="translate(133.43 -94.69) rotate(45)" gradientUnits="userSpaceOnUse"><stop offset="0" stop-color="#e26144"/><stop offset="1" stop-color="#e29c7c"/></linearGradient><linearGradient id="linear-gradient-2" x1="120.4" y1="482.06" x2="407.08" y2="195.38" gradientTransform="translate(316.76 -87.29) rotate(45)" gradientUnits="userSpaceOnUse"><stop offset="0" stop-color="#8ec5a5"/><stop offset="0.32" stop-color="#97c8ac"/><stop offset="0.85" stop-color="#b1d0bf"/><stop offset="1" stop-color="#b9d3c5"/></linearGradient><linearGradient id="linear-gradient-3" x1="152.36" y1="450.1" x2="375.13" y2="227.33" gradientUnits="userSpaceOnUse"><stop offset="0" stop-color="#ff9b44"/><stop offset="1" stop-color="#ffc158"/></linearGradient><linearGradient id="linear-gradient-4" x1="-39.62" y1="171.37" x2="144.58" y2="-12.83" xlink:href="#linear-gradient-3"/><linearGradient id="linear-gradient-5" x1="-127.9" y1="362.94" x2="128.02" y2="107.03" gradientTransform="matrix(1, 0, 0, 1, 0, 0)" xlink:href="#linear-gradient"/><linearGradient id="linear-gradient-6" x1="122.52" y1="293.48" x2="239.51" y2="176.49" gradientUnits="userSpaceOnUse"><stop offset="0" stop-color="#726162"/><stop offset="0.25" stop-color="#7b6968"/><stop offset="0.67" stop-color="#958078"/><stop offset="1" stop-color="#ad9588"/></linearGradient><linearGradient id="linear-gradient-7" x1="-10.18" y1="499.83" x2="53.73" y2="435.92" xlink:href="#linear-gradient-6"/><linearGradient id="linear-gradient-8" x1="336.06" y1="123.51" x2="364.99" y2="94.57" gradientTransform="translate(63.98 -120.42) rotate(21.41)" xlink:href="#linear-gradient-2"/><linearGradient id="linear-gradient-9" x1="546.62" y1="515.48" x2="577.58" y2="484.52" xlink:href="#linear-gradient-6"/><linearGradient id="linear-gradient-10" x1="-90.59" y1="-290.98" x2="-31.04" y2="-231.43" gradientTransform="matrix(0.89, -0.11, -0.11, 0.89, 332.79, 332.79)" gradientUnits="userSpaceOnUse"><stop offset="0" stop-color="#b8b9b0"/><stop offset="0.11" stop-color="#bcbdb4" stop-opacity="0.95"/><stop offset="0.29" stop-color="#c5c6bf" stop-opacity="0.81"/><stop offset="0.52" stop-color="#d5d6d1" stop-opacity="0.59"/><stop offset="0.78" stop-color="#ebebe9" stop-opacity="0.28"/><stop offset="1" stop-color="#fff" stop-opacity="0"/></linearGradient><linearGradient id="linear-gradient-11" x1="-11.88" y1="-339.84" x2="47.68" y2="-280.28" gradientTransform="matrix(0.95, -0.17, -0.17, 0.95, 199.25, 464.75)" xlink:href="#linear-gradient-10"/><linearGradient id="linear-gradient-12" x1="426.74" y1="26.2" x2="467.66" y2="-14.72" gradientTransform="translate(37.56 -173.74) rotate(22.92)" xlink:href="#linear-gradient-6"/><linearGradient id="linear-gradient-13" x1="-803.35" y1="576.53" x2="-705.17" y2="674.71" gradientTransform="matrix(0.74, 0.03, 0.03, 0.74, 710.85, -46.85)" xlink:href="#linear-gradient-10"/><linearGradient id="linear-gradient-14" x1="-804.39" y1="599.96" x2="-706.21" y2="698.14" gradientTransform="matrix(0.74, 0.03, 0.03, 0.74, 710.85, -46.85)" xlink:href="#linear-gradient-10"/><linearGradient id="linear-gradient-15" x1="-63.9" y1="306.67" x2="64.02" y2="178.75" gradientTransform="matrix(1, 0, 0, 1, 0, 0)" xlink:href="#linear-gradient-2"/><linearGradient id="linear-gradient-16" x1="279.74" y1="497.62" x2="452.43" y2="324.93" gradientTransform="matrix(1, 0, 0, 1, 0, 0)" xlink:href="#linear-gradient-10"/><linearGradient id="linear-gradient-17" x1="626.58" y1="-1470.16" x2="708.74" y2="-1552.32" gradientTransform="translate(596.56 1707.83) rotate(-45)" xlink:href="#linear-gradient-10"/><linearGradient id="linear-gradient-18" x1="-1215.83" y1="7.74" x2="-1132.24" y2="91.33" gradientTransform="matrix(0.67, -0.03, -0.03, 0.67, 867.39, 161.17)" xlink:href="#linear-gradient-10"/><linearGradient id="linear-gradient-19" x1="-1214.48" y1="25.11" x2="-1130.89" y2="108.7" gradientTransform="matrix(0.67, -0.03, -0.03, 0.67, 867.39, 161.17)" xlink:href="#linear-gradient-10"/><linearGradient id="linear-gradient-20" x1="-1086.02" y1="-291.25" x2="-1002.43" y2="-207.66" gradientTransform="matrix(0.67, -0.03, -0.03, 0.67, 867.39, 161.17)" xlink:href="#linear-gradient-10"/><linearGradient id="linear-gradient-21" x1="-2191.54" y1="1487.71" x2="-2107.95" y2="1571.3" gradientTransform="matrix(0.53, 0.1, 0.1, 0.53, 1179.99, -151.44)" xlink:href="#linear-gradient-10"/><linearGradient id="linear-gradient-22" x1="754.68" y1="-212.62" x2="830.28" y2="38.38" gradientTransform="matrix(1.15, -0.14, -0.14, 1.15, -369.27, 369.27)" gradientUnits="userSpaceOnUse"><stop offset="0" stop-color="#b8b9b0"/><stop offset="0.01" stop-color="#b9bab1" stop-opacity="0.99"/><stop offset="0.2" stop-color="#cecfc9" stop-opacity="0.69"/><stop offset="0.39" stop-color="#e0e0dc" stop-opacity="0.44"/><stop offset="0.56" stop-color="#edeeeb" stop-opacity="0.25"/><stop offset="0.73" stop-color="#f7f7f6" stop-opacity="0.11"/><stop offset="0.88" stop-color="#fdfdfd" stop-opacity="0.03"/><stop offset="1" stop-color="#fff" stop-opacity="0"/></linearGradient><linearGradient id="linear-gradient-23" x1="779.79" y1="172.64" x2="822.31" y2="313.81" gradientTransform="matrix(1.15, -0.14, -0.14, 1.15, -178.96, -12.49)" xlink:href="#linear-gradient-22"/><linearGradient id="linear-gradient-24" x1="774.01" y1="204.33" x2="816.53" y2="345.5" gradientTransform="matrix(1.15, -0.14, -0.14, 1.15, -178.96, -12.49)" xlink:href="#linear-gradient-22"/></defs><g class="cls-2"><g id="BACKGROUND"><rect class="cls-3" width="750" height="500"/></g><g id="OBJECTS"><g class="cls-4"><circle class="cls-5" cx="181.02" cy="113.72" r="121.27" transform="translate(-27.39 161.31) rotate(-45)"/><circle class="cls-6" cx="263.74" cy="338.72" r="202.71" transform="translate(-162.26 285.7) rotate(-45)"/><path class="cls-3" d="M344,1.13A112.59,112.59,0,1,0,456.57,113.72,112.59,112.59,0,0,0,344,1.13Zm0,203.33a90.75,90.75,0,1,1,90.75-90.74A90.74,90.74,0,0,1,344,204.46Z"/><path class="cls-7" d="M263.74,181.19A157.53,157.53,0,1,0,421.27,338.72,157.52,157.52,0,0,0,263.74,181.19Zm0,257.13a99.6,99.6,0,1,1,99.6-99.6A99.6,99.6,0,0,1,263.74,438.32Z"/><path class="cls-8" d="M52.48-51A130.25,130.25,0,1,0,182.73,79.27,130.24,130.24,0,0,0,52.48-51Zm0,212.61a82.36,82.36,0,1,1,82.36-82.36A82.36,82.36,0,0,1,52.48,161.63Z"/><circle class="cls-9" cx="0.06" cy="234.98" r="180.96"/><circle class="cls-10" cx="181.02" cy="234.98" r="82.72"/><circle class="cls-11" cx="21.77" cy="467.88" r="45.19"/><circle class="cls-12" cx="350.52" cy="109.04" r="20.46" transform="translate(-15.62 135.46) rotate(-21.41)"/><circle class="cls-13" cx="562.1" cy="500" r="21.89"/><path class="cls-3" d="M65.9,309.8A118.83,118.83,0,1,0,184.72,428.63,118.83,118.83,0,0,0,65.9,309.8Zm0,214.59a95.77,95.77,0,1,1,95.77-95.76A95.76,95.76,0,0,1,65.9,524.39Z"/><path class="cls-14" d="M456.83,8.15,208.54,256.43a32.88,32.88,0,0,1-46.51,0h0a32.88,32.88,0,0,1,0-46.5L410.32-38.36a32.89,32.89,0,0,1,46.51,0h0A32.89,32.89,0,0,1,456.83,8.15Z"/><path class="cls-15" d="M436.07,50.39,152.31,334.16a32.89,32.89,0,0,1-46.51,0h0a32.88,32.88,0,0,1,0-46.5L389.57,3.89a32.88,32.88,0,0,1,46.5,0h0A32.88,32.88,0,0,1,436.07,50.39Z"/><circle class="cls-16" cx="447.2" cy="5.74" r="28.94" transform="translate(33.09 174.65) rotate(-22.92)"/><path class="cls-17" d="M346.4,297.26,79.53,564.14a54.22,54.22,0,0,1-76.67,0h0a54.22,54.22,0,0,1,0-76.67L269.74,220.6a54.21,54.21,0,0,1,76.66,0h0A54.21,54.21,0,0,1,346.4,297.26Z"/><path class="cls-18" d="M346.39,314.55,79.52,581.43a54.22,54.22,0,0,1-76.67,0h0a54.22,54.22,0,0,1,0-76.67L269.73,237.89a54.21,54.21,0,0,1,76.66,0h0A54.21,54.21,0,0,1,346.39,314.55Z"/><path class="cls-3" d="M10.35-19.59A105.59,105.59,0,1,0,116,86,105.59,105.59,0,0,0,10.35-19.59Zm0,190.69A85.1,85.1,0,1,1,95.46,86,85.1,85.1,0,0,1,10.35,171.1Z"/><path class="cls-19" d="M.06,152.26A90.46,90.46,0,0,0-90.4,242.71,90.46,90.46,0,0,0,.06,333.17a90.46,90.46,0,0,0,90.45-90.46A90.46,90.46,0,0,0,.06,152.26Zm0,147.65a57.2,57.2,0,0,1-57.2-57.2A57.2,57.2,0,0,1,.06,185.52a57.2,57.2,0,0,1,57.19,57.19A57.2,57.2,0,0,1,.06,299.91Z"/><path class="cls-20" d="M366.09,289.16A122.11,122.11,0,1,0,488.2,411.27,122.11,122.11,0,0,0,366.09,289.16Zm0,199.32a77.21,77.21,0,1,1,77.21-77.21A77.21,77.21,0,0,1,366.09,488.48Z"/><path class="cls-21" d="M-41,126.05a58.09,58.09,0,0,0,0,82.16,58.09,58.09,0,0,0,82.16,0,58.11,58.11,0,0,0,0-82.16A58.11,58.11,0,0,0-41,126.05ZM26,193.11a36.74,36.74,0,0,1-51.95,0,36.74,36.74,0,0,1,0-52,36.73,36.73,0,0,1,52,0A36.73,36.73,0,0,1,26,193.11Z"/><path class="cls-22" d="M229.21,143.59-7,379.85a37.81,37.81,0,0,1-53.48,0h0a37.83,37.83,0,0,1,0-53.48L175.73,90.12a37.81,37.81,0,0,1,53.48,0h0A37.8,37.8,0,0,1,229.21,143.59Z"/><path class="cls-23" d="M229.52,155.12-6.74,391.38a37.81,37.81,0,0,1-53.48,0h0a37.83,37.83,0,0,1,0-53.48L176,101.64a37.83,37.83,0,0,1,53.48,0h0A37.81,37.81,0,0,1,229.52,155.12Z"/><path class="cls-24" d="M325.89-60,89.63,176.24a37.81,37.81,0,0,1-53.48,0h0a37.81,37.81,0,0,1,0-53.48L272.41-113.5a37.83,37.83,0,0,1,53.48,0h0A37.83,37.83,0,0,1,325.89-60Z"/><path class="cls-25" d="M271.4,420.15,144.12,547.43a37.81,37.81,0,0,1-53.48,0h0a37.81,37.81,0,0,1,0-53.48L217.92,366.67a37.83,37.83,0,0,1,53.48,0h0A37.83,37.83,0,0,1,271.4,420.15Z"/><path class="cls-26" d="M728.86,26.22,446.19,308.89a59.48,59.48,0,0,1-84.12,0h0a59.48,59.48,0,0,1,0-84.12L644.74-57.9a59.48,59.48,0,0,1,84.12,0h0A59.48,59.48,0,0,1,728.86,26.22Z"/><path class="cls-27" d="M803.15,77.64l-159,159a33.46,33.46,0,0,1-47.31,0h0a33.46,33.46,0,0,1,0-47.31l159-159a33.47,33.47,0,0,1,47.32,0h0A33.46,33.46,0,0,1,803.15,77.64Z"/><path class="cls-28" d="M791.93,114.77l-159,159a33.45,33.45,0,0,1-47.32,0h0a33.46,33.46,0,0,1,0-47.31l159-159a33.44,33.44,0,0,1,47.31,0h0A33.46,33.46,0,0,1,791.93,114.77Z"/></g></g></g></svg>