<svg id="Illustration" xmlns="http://www.w3.org/2000/svg" xmlns:xlink="http://www.w3.org/1999/xlink" viewBox="0 0 3710 3710"><defs><style>.cls-1{fill:url(#linear-gradient);}.cls-2{fill:url(#linear-gradient-2);}.cls-12,.cls-3{fill:#91b3fa;}.cls-4{fill:url(#linear-gradient-3);}.cls-5{fill:#bdd0fb;}.cls-6{fill:url(#linear-gradient-4);}.cls-13,.cls-16,.cls-43,.cls-51,.cls-7{fill:#fff;}.cls-7{opacity:0.37;}.cls-8{fill:url(#linear-gradient-5);}.cls-9{fill:url(#linear-gradient-6);}.cls-10{fill:url(#linear-gradient-7);}.cls-11{fill:url(#linear-gradient-8);}.cls-12{opacity:0.67;}.cls-13{opacity:0.78;}.cls-14{fill:url(#linear-gradient-9);}.cls-15{fill:url(#linear-gradient-10);}.cls-16{opacity:0.6;}.cls-17{fill:url(#linear-gradient-11);}.cls-18{fill:url(#linear-gradient-12);}.cls-19{fill:url(#linear-gradient-13);}.cls-20{fill:url(#linear-gradient-14);}.cls-21{fill:url(#linear-gradient-15);}.cls-22{fill:url(#linear-gradient-16);}.cls-23{fill:url(#linear-gradient-17);}.cls-24{fill:url(#linear-gradient-18);}.cls-25{fill:url(#linear-gradient-19);}.cls-26{fill:url(#linear-gradient-20);}.cls-27{fill:url(#linear-gradient-21);}.cls-28{fill:url(#linear-gradient-22);}.cls-29{fill:url(#linear-gradient-23);}.cls-30{fill:url(#linear-gradient-24);}.cls-31{fill:#7d97f4;}.cls-32{fill:url(#linear-gradient-25);}.cls-33{fill:url(#linear-gradient-26);}.cls-34{fill:url(#linear-gradient-27);}.cls-35{fill:url(#linear-gradient-28);}.cls-36{fill:url(#linear-gradient-29);}.cls-37{fill:url(#linear-gradient-30);}.cls-38{fill:url(#linear-gradient-31);}.cls-39{fill:url(#linear-gradient-32);}.cls-40{fill:url(#linear-gradient-33);}.cls-41{fill:url(#linear-gradient-34);}.cls-42{fill:url(#linear-gradient-35);}.cls-44{fill:url(#linear-gradient-36);}.cls-45{fill:url(#linear-gradient-37);}.cls-46{fill:url(#linear-gradient-38);}.cls-47{fill:url(#linear-gradient-39);}.cls-48{fill:url(#linear-gradient-40);}.cls-49{fill:url(#linear-gradient-41);}.cls-50{fill:url(#linear-gradient-42);}.cls-51{opacity:0.7;}.cls-52{fill:url(#linear-gradient-43);}.cls-53{fill:url(#linear-gradient-44);}.cls-54{fill:url(#linear-gradient-45);}.cls-55{fill:url(#linear-gradient-46);}.cls-56{fill:url(#linear-gradient-47);}.cls-57{fill:url(#linear-gradient-48);}.cls-58{fill:url(#linear-gradient-49);}.cls-59{fill:url(#linear-gradient-50);}.cls-60{fill:url(#linear-gradient-51);}.cls-61{fill:url(#linear-gradient-52);}.cls-62{fill:url(#linear-gradient-53);}.cls-63{fill:url(#linear-gradient-54);}.cls-64{fill:url(#linear-gradient-55);}.cls-65{fill:url(#linear-gradient-56);}.cls-66{fill:url(#linear-gradient-57);}.cls-67{fill:url(#linear-gradient-58);}.cls-68{fill:url(#linear-gradient-59);}.cls-69{fill:url(#linear-gradient-60);}.cls-70{fill:url(#linear-gradient-61);}.cls-71{fill:url(#linear-gradient-62);}.cls-72{fill:url(#linear-gradient-63);}.cls-73{fill:url(#linear-gradient-64);}.cls-74{fill:url(#linear-gradient-65);}.cls-75{fill:url(#linear-gradient-66);}.cls-76{fill:url(#linear-gradient-67);}.cls-77{fill:url(#linear-gradient-68);}.cls-78{fill:url(#linear-gradient-69);}.cls-79{fill:url(#linear-gradient-70);}.cls-80{fill:url(#linear-gradient-71);}.cls-81{fill:url(#linear-gradient-72);}.cls-82{fill:url(#linear-gradient-73);}.cls-83{fill:url(#linear-gradient-74);}.cls-84{fill:url(#linear-gradient-75);}.cls-85{fill:url(#linear-gradient-76);}</style><linearGradient id="linear-gradient" x1="3929.55" y1="4182" x2="1215.38" y2="1252.42" gradientUnits="userSpaceOnUse"><stop offset="0" stop-color="#dae3fe"/><stop offset="1" stop-color="#e9effd"/></linearGradient><linearGradient id="linear-gradient-2" x1="1542.43" y1="2930.46" x2="2355.93" y2="489.95" gradientUnits="userSpaceOnUse"><stop offset="0" stop-color="#09005d"/><stop offset="1" stop-color="#1a0f91"/></linearGradient><linearGradient id="linear-gradient-3" x1="1989.17" y1="1722.5" x2="1820.4" y2="3572.24" xlink:href="#linear-gradient-2"/><linearGradient id="linear-gradient-4" x1="2333.66" y1="1119.1" x2="2520.98" y2="1119.1" xlink:href="#linear-gradient"/><linearGradient id="linear-gradient-5" x1="1221.58" y1="-642.72" x2="1218.68" y2="-199.51" gradientTransform="matrix(-0.9, -0.43, -0.43, 0.9, 3932.53, 1216.74)" xlink:href="#linear-gradient-2"/><linearGradient id="linear-gradient-6" x1="2024.68" y1="305.61" x2="1766.13" y2="850.8" gradientTransform="matrix(-0.48, -0.88, -0.88, 0.48, 4225.7, 2016.31)" xlink:href="#linear-gradient-2"/><linearGradient id="linear-gradient-7" x1="1302.58" y1="-642.18" x2="1299.67" y2="-198.98" gradientTransform="matrix(-0.9, -0.43, -0.43, 0.9, 3932.53, 1216.74)" gradientUnits="userSpaceOnUse"><stop offset="0" stop-color="#4f52ff"/><stop offset="1" stop-color="#4042e2"/></linearGradient><linearGradient id="linear-gradient-8" x1="1143.86" y1="-643.23" x2="1140.95" y2="-200.02" xlink:href="#linear-gradient-7"/><linearGradient id="linear-gradient-9" x1="1213.22" y1="-347.88" x2="1546.99" y2="-347.88" xlink:href="#linear-gradient-7"/><linearGradient id="linear-gradient-10" x1="888.76" y1="-347.9" x2="1222.54" y2="-347.9" xlink:href="#linear-gradient-7"/><linearGradient id="linear-gradient-11" x1="2601.21" y1="2031.67" x2="2975.61" y2="2031.67" gradientTransform="matrix(1, 0, 0, 1, 0, 0)" xlink:href="#linear-gradient-7"/><linearGradient id="linear-gradient-12" x1="4349.89" y1="2244.92" x2="4512.99" y2="2677.12" gradientTransform="translate(-1327.05)" gradientUnits="userSpaceOnUse"><stop offset="0" stop-color="#febbba"/><stop offset="1" stop-color="#ff928e"/></linearGradient><linearGradient id="linear-gradient-13" x1="4110.34" y1="-245.83" x2="3797.8" y2="539.98" gradientUnits="userSpaceOnUse"><stop offset="0" stop-color="#ff928e"/><stop offset="1" stop-color="#fe7062"/></linearGradient><linearGradient id="linear-gradient-14" x1="4333.7" y1="3332.39" x2="4525.72" y2="3332.39" gradientTransform="matrix(-1, 0, 0, 1, 7706.39, 0)" xlink:href="#linear-gradient-2"/><linearGradient id="linear-gradient-15" x1="-5532.84" y1="2943.19" x2="-5532.84" y2="3340.66" gradientTransform="matrix(-1, 0, 0, 1, -2256.17, 0)" xlink:href="#linear-gradient-7"/><linearGradient id="linear-gradient-16" x1="3996.39" y1="3332.87" x2="4086.3" y2="3332.87" gradientTransform="matrix(-1, 0, 0, 1, 7706.39, 0)" xlink:href="#linear-gradient-2"/><linearGradient id="linear-gradient-17" x1="-5954.24" y1="3036.82" x2="-5913.82" y2="3461.23" gradientTransform="matrix(-1, 0, 0, 1, -2256.17, 0)" xlink:href="#linear-gradient-7"/><linearGradient id="linear-gradient-18" x1="4034.41" y1="3270.89" x2="4092.75" y2="3270.89" gradientTransform="matrix(-1, 0, 0, 1, 7706.39, 0)" xlink:href="#linear-gradient-12"/><linearGradient id="linear-gradient-19" x1="4343.47" y1="3267.07" x2="4392.09" y2="3267.07" gradientTransform="matrix(-1, 0, 0, 1, 7706.39, 0)" xlink:href="#linear-gradient-12"/><linearGradient id="linear-gradient-20" x1="3521.22" y1="2680.01" x2="3926.22" y2="1380" gradientTransform="matrix(1, 0, 0, 1, 0, 0)" xlink:href="#linear-gradient-7"/><linearGradient id="linear-gradient-21" x1="3351.69" y1="2663.6" x2="3416.43" y2="2301.94" gradientTransform="matrix(1, 0, 0, 1, 0, 0)" xlink:href="#linear-gradient-7"/><linearGradient id="linear-gradient-22" x1="3028.05" y1="2256.84" x2="3420.95" y2="2279.16" xlink:href="#linear-gradient-13"/><linearGradient id="linear-gradient-23" x1="4488.64" y1="2058" x2="4512.6" y2="1910.28" gradientTransform="matrix(-1, 0, 0, 1, 7706.39, 0)" xlink:href="#linear-gradient-12"/><linearGradient id="linear-gradient-24" x1="2965.95" y1="1169.67" x2="2383.12" y2="2061.05" gradientTransform="translate(568.76 -681.81) rotate(15.58)" xlink:href="#linear-gradient-2"/><linearGradient id="linear-gradient-25" x1="3057.04" y1="2060.18" x2="3614.84" y2="1290.41" xlink:href="#linear-gradient-2"/><linearGradient id="linear-gradient-26" x1="2056.71" y1="-108.84" x2="2232.49" y2="356.97" gradientTransform="translate(1409.28 924.69) rotate(41.18)" xlink:href="#linear-gradient-12"/><linearGradient id="linear-gradient-27" x1="3447.84" y1="2138.26" x2="3094.49" y2="2531.62" gradientTransform="matrix(1, 0, 0, 1, 0, 0)" xlink:href="#linear-gradient-12"/><linearGradient id="linear-gradient-28" x1="3037.94" y1="2082.71" x2="3430.85" y2="2105.04" xlink:href="#linear-gradient-13"/><linearGradient id="linear-gradient-29" x1="3473.34" y1="2161.16" x2="3119.98" y2="2554.52" gradientTransform="matrix(1, 0, 0, 1, 0, 0)" xlink:href="#linear-gradient-12"/><linearGradient id="linear-gradient-30" x1="-7715.36" y1="-3310.59" x2="-7761.85" y2="-3463.94" gradientTransform="matrix(-0.75, -0.67, -0.67, 0.75, -4843.62, -803.17)" xlink:href="#linear-gradient-12"/><linearGradient id="linear-gradient-31" x1="-7757.31" y1="-3577.77" x2="-7718.42" y2="-3355.95" gradientTransform="matrix(-0.75, -0.67, -0.67, 0.75, -4843.62, -803.17)" xlink:href="#linear-gradient-2"/><linearGradient id="linear-gradient-32" x1="-7762.89" y1="-3311.31" x2="-7804.72" y2="-3449.27" gradientTransform="matrix(-0.75, -0.67, -0.67, 0.75, -4843.62, -803.17)" xlink:href="#linear-gradient-12"/><linearGradient id="linear-gradient-33" x1="2967.4" y1="3085.71" x2="3027.67" y2="2639.23" gradientTransform="matrix(1, 0, 0, 1, 0, 0)" xlink:href="#linear-gradient-7"/><linearGradient id="linear-gradient-34" x1="3037.01" y1="2432.96" x2="3010.22" y2="2607.09" gradientTransform="matrix(1, 0, 0, 1, 0, 0)" xlink:href="#linear-gradient-7"/><linearGradient id="linear-gradient-35" x1="2971.63" y1="2809.26" x2="2943.53" y2="2941.72" xlink:href="#linear-gradient-2"/><linearGradient id="linear-gradient-36" x1="645.15" y1="748.48" x2="657.5" y2="748.48" gradientTransform="matrix(1, 0, 0, 1, 0, 0)" xlink:href="#linear-gradient-12"/><linearGradient id="linear-gradient-37" x1="646.27" y1="401.58" x2="1568.29" y2="401.58" gradientTransform="matrix(1, 0, 0, 1, 0, 0)" xlink:href="#linear-gradient-12"/><linearGradient id="linear-gradient-38" x1="1612.95" y1="306.08" x2="1639.18" y2="306.08" gradientTransform="matrix(1, 0, 0, 1, 0, 0)" xlink:href="#linear-gradient-12"/><linearGradient id="linear-gradient-39" x1="1787.39" y1="719.4" x2="1798.65" y2="719.4" gradientTransform="matrix(1, 0, 0, 1, 0, 0)" xlink:href="#linear-gradient-12"/><linearGradient id="linear-gradient-40" x1="853.05" y1="1041.4" x2="1791.17" y2="1041.4" gradientTransform="matrix(1, 0, 0, 1, 0, 0)" xlink:href="#linear-gradient-12"/><linearGradient id="linear-gradient-41" x1="786.15" y1="1094.31" x2="811.57" y2="1094.31" gradientTransform="matrix(1, 0, 0, 1, 0, 0)" xlink:href="#linear-gradient-12"/><linearGradient id="linear-gradient-42" x1="787.65" y1="705.44" x2="1658.01" y2="705.44" xlink:href="#linear-gradient-13"/><linearGradient id="linear-gradient-43" x1="1777.63" y1="857.07" x2="1802.26" y2="857.07" gradientTransform="matrix(1, 0, 0, 1, 0, 0)" xlink:href="#linear-gradient-12"/><linearGradient id="linear-gradient-44" x1="1850.56" y1="1014.38" x2="2133.11" y2="1014.38" gradientTransform="matrix(1, 0, 0, 1, 0, 0)" xlink:href="#linear-gradient-12"/><linearGradient id="linear-gradient-45" x1="2084.06" y1="1243.49" x2="2101.16" y2="1243.49" gradientTransform="matrix(1, 0, 0, 1, 0, 0)" xlink:href="#linear-gradient-12"/><linearGradient id="linear-gradient-46" x1="1908.05" y1="1366.89" x2="1933.04" y2="1366.89" gradientTransform="matrix(1, 0, 0, 1, 0, 0)" xlink:href="#linear-gradient-12"/><linearGradient id="linear-gradient-47" x1="1598.38" y1="1197.68" x2="1860.16" y2="1197.68" gradientTransform="matrix(1, 0, 0, 1, 0, 0)" xlink:href="#linear-gradient-12"/><linearGradient id="linear-gradient-48" x1="1637.07" y1="964.61" x2="1654.81" y2="964.61" gradientTransform="matrix(1, 0, 0, 1, 0, 0)" xlink:href="#linear-gradient-12"/><linearGradient id="linear-gradient-49" x1="1664.4" y1="1109.32" x2="2071.84" y2="1109.32" xlink:href="#linear-gradient-13"/><linearGradient id="linear-gradient-50" x1="-1954.47" y1="1216.31" x2="-1757.43" y2="1738.48" gradientTransform="matrix(-1, 0, 0, 1, -929.11, 0)" xlink:href="#linear-gradient-12"/><linearGradient id="linear-gradient-51" x1="793.81" y1="564.07" x2="860.79" y2="1019.48" gradientTransform="matrix(1, 0, 0, 1, 0, 0)" xlink:href="#linear-gradient-7"/><linearGradient id="linear-gradient-52" x1="10598.98" y1="2253.52" x2="10794.61" y2="2253.52" gradientTransform="translate(-9962.55)" xlink:href="#linear-gradient-2"/><linearGradient id="linear-gradient-53" x1="734.24" y1="1857" x2="734.24" y2="2261.94" gradientTransform="matrix(1, 0, 0, 1, 0, 0)" xlink:href="#linear-gradient-7"/><linearGradient id="linear-gradient-54" x1="10255.33" y1="2254" x2="10346.93" y2="2254" gradientTransform="translate(-9962.55)" xlink:href="#linear-gradient-2"/><linearGradient id="linear-gradient-55" x1="304.92" y1="1952.39" x2="346.1" y2="2384.78" gradientTransform="matrix(1, 0, 0, 1, 0, 0)" xlink:href="#linear-gradient-7"/><linearGradient id="linear-gradient-56" x1="10294.07" y1="2190.86" x2="10353.5" y2="2190.86" gradientTransform="translate(-9962.55)" xlink:href="#linear-gradient-12"/><linearGradient id="linear-gradient-57" x1="10608.93" y1="2186.97" x2="10658.47" y2="2186.97" gradientTransform="translate(-9962.55)" xlink:href="#linear-gradient-12"/><linearGradient id="linear-gradient-58" x1="877.13" y1="975.91" x2="505.3" y2="2171.81" gradientTransform="matrix(1, 0, 0, 1, 0, 0)" xlink:href="#linear-gradient-7"/><linearGradient id="linear-gradient-59" x1="10732.11" y1="1425.39" x2="10529.37" y2="1687.51" gradientTransform="translate(-9962.55)" xlink:href="#linear-gradient-2"/><linearGradient id="linear-gradient-60" x1="1156.12" y1="879.29" x2="557.83" y2="1281.13" gradientTransform="matrix(1, 0, 0, 1, 0, 0)" xlink:href="#linear-gradient-7"/><linearGradient id="linear-gradient-61" x1="720.13" y1="930.68" x2="938.91" y2="680.65" gradientTransform="matrix(1, 0, 0, 1, 0, 0)" xlink:href="#linear-gradient-12"/><linearGradient id="linear-gradient-62" x1="10710.05" y1="807.3" x2="10552.19" y2="928.09" gradientTransform="translate(-9962.55)" xlink:href="#linear-gradient-12"/><linearGradient id="linear-gradient-63" x1="10724.74" y1="615.85" x2="10867.69" y2="799.89" gradientTransform="translate(-9962.55)" xlink:href="#linear-gradient-2"/><linearGradient id="linear-gradient-64" x1="10816.07" y1="685.61" x2="10658.21" y2="806.4" gradientTransform="translate(-9962.55)" xlink:href="#linear-gradient-12"/><linearGradient id="linear-gradient-65" x1="68.56" y1="1404" x2="1357.07" y2="1404" xlink:href="#linear-gradient"/><linearGradient id="linear-gradient-66" x1="1262.76" y1="1183.3" x2="1798.5" y2="1183.3" xlink:href="#linear-gradient"/><linearGradient id="linear-gradient-67" x1="-2026.29" y1="25503.8" x2="-1845.47" y2="24211.29" gradientTransform="matrix(-0.25, -0.97, -0.97, 0.25, -2938.61, 4675.63)" xlink:href="#linear-gradient-2"/><linearGradient id="linear-gradient-68" x1="-997.56" y1="20207.68" x2="-816.74" y2="18915.17" gradientTransform="matrix(-0.25, -0.97, -1.2, 0.3, -2694.01, 4613.85)" xlink:href="#linear-gradient-2"/><linearGradient id="linear-gradient-69" x1="-1390.38" y1="1238.34" x2="-1168.7" y2="1558.53" gradientTransform="matrix(-1, 0, 0, 1, -929.11, 0)" xlink:href="#linear-gradient-12"/><linearGradient id="linear-gradient-70" x1="1045.67" y1="714.85" x2="447.38" y2="1116.69" gradientTransform="matrix(1, 0, 0, 1, 0, 0)" xlink:href="#linear-gradient-7"/><linearGradient id="linear-gradient-71" x1="-2093.06" y1="1268.61" x2="-1896.02" y2="1790.78" gradientTransform="matrix(-1, 0, 0, 1, -929.11, 0)" xlink:href="#linear-gradient-12"/><linearGradient id="linear-gradient-72" x1="-1475.27" y1="1296.3" x2="-1251.04" y2="1620.2" gradientTransform="matrix(-1, 0, 0, 1, -929.11, 0)" xlink:href="#linear-gradient-12"/><linearGradient id="linear-gradient-73" x1="2181.15" y1="3623.1" x2="2373.14" y2="2819.42" xlink:href="#linear-gradient-13"/><linearGradient id="linear-gradient-74" x1="2407.5" y1="3549.5" x2="2514.66" y2="2714.57" xlink:href="#linear-gradient-13"/><linearGradient id="linear-gradient-75" x1="2283.53" y1="2883.73" x2="2221.02" y2="3334.68" gradientUnits="userSpaceOnUse"><stop offset="0" stop-color="#e1473d"/><stop offset="1" stop-color="#e9605a"/></linearGradient><linearGradient id="linear-gradient-76" x1="3725.17" y1="-399.02" x2="3412.64" y2="386.79" xlink:href="#linear-gradient-13"/></defs><path class="cls-1" d="M3551.31,2512.54C3178.36,3384.26,2193.9,3758.69,1422.57,3694.85c-210.61-17.43-634.36-52.51-965.22-365.39C-178,2728.58-80.19,1472.57,528.07,733.1,606.4,637.88,1148.6-.14,1993.51,8.4c618.61,6.25,1052.8,355.69,1105.59,399.22,66.7,55,213.8,185.68,346.38,393C3757,1287.76,3784.36,1967.81,3551.31,2512.54Z"/><path class="cls-2" d="M3543,3048.93c0,36-27.08,65.46-60.18,65.46h-3254c-33.1,0-60.18-29.46-60.18-65.46L141.53,1012.55c0-36,39-106.3,110.35-101l3180.2-89.61c41.52-1.17,81.67,16.24,111.08,48.16s45.5,75.56,44.52,120.74Z"/><path class="cls-3" d="M3483.58,2986.12c0,34.1-25.62,62-56.93,62H307.26c-31.31,0-56.93-27.9-56.93-62L224.78,1137.48c3-111.25,92.57-151.23,146.86-148.87l3047.93-89.05c29.17-.85,57.38,11.39,78,33.84s32,53.16,31.3,84.93Z"/><rect class="cls-4" x="10.52" y="3104.51" width="3688.78" height="178.92" rx="9.95"/><path class="cls-5" d="M349.84,1098.24l2170.9-50.88c35.31-.83,64.54,20.17,64.54,46.37v24.13c0,25.17-27.05,45.74-61,46.38L354.34,1205c-34,.64-62.39-18.93-64.07-44.08l-.93-14C287.61,1121,314.87,1099.06,349.84,1098.24Z"/><path class="cls-6" d="M2520.45,1104.9c4.61-36.77-20.93-70.25-57-74.78s-69.11,21.62-73.72,58.39a67.48,67.48,0,0,0,14.68,51.28l-67.22,51.71a9.36,9.36,0,0,0-1,13.7l.62.65a8.69,8.69,0,0,0,12.33.34l61.07-60.14a64.75,64.75,0,0,0,36.5,17.24C2482.83,1167.81,2515.84,1141.67,2520.45,1104.9Zm-71.5,40.58c-26.45-3.32-45.15-27.84-41.77-54.78s27.55-46.08,54-42.77,45.15,27.84,41.78,54.78S2475.4,1148.79,2449,1145.48Z"/><path class="cls-5" d="M309,2038.77l36.2,875.85c1.22,29.53,42.45,53,92.44,52.56l1062.82-8.64c50-.41,90.08-24.49,89.95-54l-3.69-884.06c-.13-30.26-42.39-54.52-93.58-53.73L397.76,1983.6C347.47,1984.37,307.73,2009.06,309,2038.77Z"/><path class="cls-5" d="M1794.74,1263.66l666.27-8.1c68.2-.83,124.74,21.31,125.31,49.08l11.31,550.58c.57,27.74-55,50.26-123.16,49.92l-693.63-3.46c-39-.19-70.66-12.93-71.59-28.8l-32.52-558.55C1675.14,1287.11,1727.86,1264.47,1794.74,1263.66Z"/><path class="cls-5" d="M476.19,1251.06l948.12-8.35c97-.86,177.51,22,178.33,50.58l16.1,567.43c.81,28.59-78.26,51.8-175.28,51.45l-987-3.57c-55.53-.2-100.56-13.32-101.87-29.68l-46.29-575.65C306,1275.22,381,1251.89,476.19,1251.06Z"/><path class="cls-5" d="M1793.16,1972.65l666.27-12.86c68.19-1.31,124.74,33.83,125.31,77.89l11.31,873.77c.57,44-55,79.78-123.17,79.24l-693.62-5.5c-39-.31-70.67-20.51-71.59-45.71l-32.52-886.42C1673.56,2009.86,1726.28,1973.94,1793.16,1972.65Z"/><path class="cls-5" d="M2771.27,1022.8l519.79-8.37c53.21-.85,97.32,22,97.77,50.7l8.82,568.7c.45,28.66-42.9,51.92-96.09,51.57l-541.13-3.58c-30.45-.2-55.13-13.35-55.85-29.75l-25.38-576.93C2678,1047,2719.09,1023.64,2771.27,1022.8Z"/><path class="cls-5" d="M2784,1761.76l519.79-6.57c53.21-.67,97.32,17.28,97.77,39.78l8.82,446.22c.45,22.49-42.9,40.74-96.09,40.46l-541.13-2.8c-30.45-.16-55.13-10.48-55.85-23.35L2692,1802.82C2690.73,1780.76,2731.86,1762.42,2784,1761.76Z"/><path class="cls-7" d="M2808.83,2381.33l519.8-7.56c53.2-.77,97.31,19.89,97.76,45.79l8.83,513.66c.44,25.89-42.91,46.9-96.1,46.58L2798,2976.57c-30.44-.18-55.13-12.06-55.85-26.87l-25.38-521.1C2715.53,2403.2,2756.65,2382.09,2808.83,2381.33Z"/><path class="cls-8" d="M2876.09,380.84c.63-1.41,1.25-2.83,1.91-4.21,31.95-67.42,84.84-81.37,131.45-59.28s69.29,71.86,37.34,139.27c-.28.59-.58,1.17-.87,1.75C3014.51,434.84,2954.18,396.77,2876.09,380.84Z"/><path class="cls-9" d="M3045.92,458.37c-32.4,66.69-106,125-152.19,103.12-45.65-21.63-47.6-113.53-17.64-180.65C2954.18,396.77,3014.51,434.84,3045.92,458.37Z"/><path class="cls-10" d="M2964.53,344.9a606.63,606.63,0,0,0,40.87-89c5.36-15.47,10.11-31.27,12.65-47.7a123.12,123.12,0,0,0,1.49-25.09,54.76,54.76,0,0,0-6.81-25.11,37.62,37.62,0,0,0-20.81-16.72c-8.57-3-17.22-3.44-25.86-2.87s-17.94,3.15-25.12,9.66c-7.38,6.41-10.48,16.2-11,25.06-.57,9,1.27,17.74,4.22,25.93s7.17,16,13.79,22.63c3.38,3.18,7.38,6.56,13.55,7.45a15.2,15.2,0,0,0,9.2-1.84,21.29,21.29,0,0,0,6.27-5.79c5.46-8.63,6.71-17.27,8-25.71a5.81,5.81,0,0,0-11.49-1.77l0,.17,0,.28c-.9,7.54-2.42,15.41-5.67,20.65-1.82,2.41-3.18,3.24-5,3.09-2-.14-4.87-1.94-7.3-4.27-5-4.78-8.88-11.57-11.59-18.54s-4.36-14.54-4-21.77,2.51-14.14,7.55-18.59c4.87-4.62,12-6.94,19.43-7.58,15.09-1.54,31.43,2.05,38.79,14.76,3.71,6.17,5.64,13.68,6.08,21.41a114.67,114.67,0,0,1-1,23.5c-2.15,15.76-6.51,31.33-11.52,46.63a600.77,600.77,0,0,1-38.92,88.72l0,.07a2.45,2.45,0,0,0,4.3,2.33Z"/><path class="cls-11" d="M3016.21,369a599.52,599.52,0,0,1,44-86.31c8.67-13.56,17.95-26.79,28.79-38.44a115.2,115.2,0,0,1,17.55-15.66c6.26-4.55,13.3-7.81,20.42-8.85,14.5-2.34,27.62,8,36,20.69,4.23,6.17,6.93,13.14,6.44,19.83-.25,6.72-4.27,12.82-9.61,17.62s-12.26,8.33-19.38,10.69-14.82,3.61-21.69,2.77c-3.33-.4-6.55-1.49-7.92-2.95s-1.49-2.89-.78-5.83c2-5.84,7.13-12,12.4-17.46l.17-.19a5.81,5.81,0,1,0-8.37-8.06l-.14.14c-5.71,6.35-11.61,12.8-14.83,22.48a21.15,21.15,0,0,0-.51,8.52,15.22,15.22,0,0,0,4.4,8.29c4.6,4.21,9.74,5.17,14.34,5.77,9.35.91,18-.87,26.25-3.66s16.11-7,22.74-13.15c6.53-6,12.15-14.61,12.43-24.38.51-9.68-3.45-18.52-8.42-25.56s-10.86-13.46-18.59-18.2a37.71,37.71,0,0,0-26.12-5.52,54.81,54.81,0,0,0-23.75,10.63,122.34,122.34,0,0,0-18.48,17c-11.11,12.36-20.33,26-28.91,40a606.12,606.12,0,0,0-43,88,2.44,2.44,0,0,0,4.52,1.84Z"/><path class="cls-12" d="M2976.68,400.88S2949.35,647.44,3045.83,661,3134.83,533.11,2976.68,400.88Z"/><path class="cls-12" d="M2976.68,400.88s-173.54,177.26-245.13,111.17S2774.2,362.19,2976.68,400.88Z"/><path class="cls-12" d="M2962,409.76s-233.15,84.71-269.09-5.85S2796.16,287.26,2962,409.76Z"/><path class="cls-12" d="M2986.11,421.21s82.06,234.1,174.91,204.58S3185.91,472,2986.11,421.21Z"/><path class="cls-13" d="M3044.5,645.47a5.67,5.67,0,0,0,2.47.56c22,.05,36.84-6.87,44.17-20.58,21.54-40.29-35-125.4-37.46-129a5.82,5.82,0,1,0-9.66,6.48c15.4,22.94,52,88.69,36.87,117-5.15,9.62-16.55,14.48-33.89,14.44a5.81,5.81,0,0,0-2.5,11.06Z"/><path class="cls-14" d="M2972.08,410.58S2889.76,282.92,2841.42,260c-52.11-24.69-131.56-1.66-170.58,12.53-7.62,2.78-7.17,13.64.62,15.92C2760.58,314.63,2863.67,359.13,2972.08,410.58Z"/><path class="cls-15" d="M2963.66,406.59s150.94-17.11,199.28,5.81c52.09,24.71,84.57,100.78,98.29,140,2.68,7.66-6,14.19-12.71,9.61C3171.85,509.56,3072.13,457.93,2963.66,406.59Z"/><path class="cls-16" d="M3230,525.42a5.82,5.82,0,0,0,7.81-7.6c-2.09-4.74-52.11-115.87-135.28-108.33a5.81,5.81,0,0,0,1.06,11.58c74.93-6.8,123.11,100.35,123.59,101.44A5.8,5.8,0,0,0,3230,525.42Z"/><path class="cls-17" d="M2625,3034.08l-23.74-1514.39c-.26-16.61,15.76-30.2,35.62-30.2h0c32.11,0,58.15-21.78,58.15-48.66V1070.92c0-23.54,23.3-42.41,51.43-41.63l128.08,3.56c31.53.87,56.72,22.26,57.31,48.65l43.8,1952.58Z"/><path class="cls-18" d="M2980.2,2272.21l.52,16.58c51,70.95,97.32,52.85,129.25,31.56-19.21-47.79-22.63-53.07-38-69.68C3014.38,2292.58,2980.2,2272.21,2980.2,2272.21Z"/><path class="cls-19" d="M3212.44,2194.35l-89.68-140.22c-5.89,79.09-19.91,153.17-50.75,196.54,15.33,16.61,18.75,21.89,38,69.68C3189.65,2267.22,3212.44,2194.35,3212.44,2194.35Z"/><path class="cls-20" d="M3300.49,3371.11c-44.71,2.06-88,.76-116.89-.72,26.31-18.73,86.93-59.48,137.65-75.7l34.82-2.08s11.8,17.94,16,59C3366.31,3358.82,3349.44,3368.86,3300.49,3371.11Z"/><path class="cls-21" d="M3183.24,3370.64l.36-.25c28.9,1.48,72.18,2.78,116.89.72,49-2.25,65.82-12.29,71.59-19.49.19,1.89.39,3.77.55,5.76a16.3,16.3,0,0,1-15,17.6c-36.62,2.77-127.42,9-171.2,6.74A6.11,6.11,0,0,1,3183.24,3370.64Z"/><path class="cls-22" d="M3620.3,3359.14c3.27-21,8.53-51.34,12.58-59.09,6.37-12.18,28.15,0,28.15,0s15.3,7.13,22.34,19c4.49,7.57,16.9,29.13,25.31,43.77a9.91,9.91,0,0,1,1.32,5.21l-87.25,3.06A17.46,17.46,0,0,1,3620.3,3359.14Z"/><path class="cls-23" d="M3710,3368.05a9.94,9.94,0,0,1-9.67,9.66l-62.16,1.71a17.56,17.56,0,0,1-15.42-8.31Z"/><path class="cls-24" d="M3613.63,3230.28c.76,2.52,12,57.17,17,81.15a13.68,13.68,0,0,0,14.09,10.94c3.69-.18,8-.51,12.49-1.1a16.53,16.53,0,0,0,14.39-15.75c.8-21,1.19-61.35-6.53-77C3654.4,3207,3613.63,3230.28,3613.63,3230.28Z"/><path class="cls-25" d="M3362.92,3245.92c-4.84-.15,1.93,25-5.39,49.66-1.65,5.56-5.81,9.94-11.62,10-3.76,0-8.22,0-12.75-.39a14,14,0,0,1-12.92-12.63l-5.95-64Z"/><path class="cls-26" d="M3227.67,2565.23c2.16,10.51,78.33,454.8,83,684.71a7.81,7.81,0,0,0,6.73,7.61c9.67,1.35,28.5,3.09,46.76-.3a5.5,5.5,0,0,0,4.54-5.06c2.67-42.84,24.08-405.08-2.14-575.6,0,0,216.58,455.83,249.41,581.52a6.6,6.6,0,0,0,6.76,4.94c9.28-.49,28.57-2.15,43.88-7.79a11.46,11.46,0,0,0,7.23-13.48c-18.34-75.22-146.89-593.46-234.16-707.64Z"/><path class="cls-27" d="M3366.52,2679.43a2.85,2.85,0,0,0,2-4.83l-29-29.66a2.85,2.85,0,0,0-4.07,4l29,29.66A2.85,2.85,0,0,0,3366.52,2679.43Z"/><path class="cls-28" d="M3103.87,2009c55.63-14.57,158.27-37.63,239.94-32.52,26.69,1.67,31.73,26.79,32.8,45.56,12.34,217.57,31.27,399.8,63,512.13-71.39,28.25-142.15,41.35-212,31.09q-78.45-168-137.1-388.23s-22.92-117.15-.66-156.2C3093.38,2014.71,3098,2010.53,3103.87,2009Z"/><path class="cls-29" d="M3237.68,1856.57s14.05,83.81,18.24,122.56a15.18,15.18,0,0,1-8.25,15.16c-15.35,7.9-48.13,20.63-83.84,9a14.18,14.18,0,0,1-9.61-13.8l2.45-111.89Z"/><path class="cls-30" d="M2899.89,1414.69a4.14,4.14,0,0,0,1.57-5.64l-5.7-10.11-.44.25-33.56-54.44a4.13,4.13,0,0,0-5.69-1.35l-6.36,3.92a4.13,4.13,0,0,0-1.35,5.69l31,50.25a4.14,4.14,0,0,1-1.49,5.78l-243.49,137.31a4.13,4.13,0,0,0-1.57,5.64l5.7,10.11.08,0,79.12,140.31a4.14,4.14,0,0,0,5.64,1.57l6.51-3.66a4.15,4.15,0,0,0,1.57-5.64l-77.09-136.71a4.14,4.14,0,0,1,1.57-5.64Z"/><rect class="cls-31" x="2290.81" y="1360.14" width="579.36" height="131.76" transform="translate(-367.7 1451.43) rotate(-29.42)"/><path class="cls-32" d="M3240.73,2675.64l-37.33,18.89a2,2,0,0,1-2.67-.87l-506.42-1000.4a2,2,0,0,1,.87-2.67l37.33-18.89a2,2,0,0,1,2.67.87L3241.6,2673A2,2,0,0,1,3240.73,2675.64Z"/><ellipse class="cls-31" cx="2327.93" cy="1567.89" rx="24.62" ry="66.37" transform="translate(-469.95 1345.67) rotate(-29.42)"/><ellipse class="cls-31" cx="2829.27" cy="1285.72" rx="24.62" ry="66.37" transform="translate(-266.7 1555.54) rotate(-29.42)"/><path class="cls-33" d="M2972,2274.76a21.32,21.32,0,0,1-2.52-18.08c3.65-11.87,11.33-29.29,24.13-25.44,19.07,5.74,21.62,52.87,21.62,52.87l-5.07,30.24,6.37,15.09C3004,2323.35,2988.47,2301.56,2972,2274.76Z"/><path class="cls-34" d="M3413.53,2381.23c7.8-10.94,15.61-22.9,23.32-36.11,76.31-130.7-63.64-330.85-63.64-330.85l-42.66,127c63.06,70.33,36.58,138.18,15.13,194.48-28.09,73.71-149.57,136.2-149.57,136.2l23.14,28.55S3344.14,2478.5,3413.53,2381.23Z"/><path class="cls-35" d="M3461.49,2213.82c-1.58-101.47-82.17-209.27-96.89-228.23a2.26,2.26,0,0,0-3.84.47l-30.21,155.18c12.83,30,10.22,48.85,23,75.87,34.66-4.86,66.84-5.1,101,2.31A5.65,5.65,0,0,0,3461.49,2213.82Z"/><path class="cls-36" d="M3196.11,2471.92c-7.09-3.59-62.69,4.5-54.17,12.16,14.95,13.4,15.6,23.56-.11,36.11-7.76,6.19-25.59,15.59-30.46,1.13-1.37-4.07-1.55-9.35-5.42-11.19-2.86-1.37-10.95,8.42-11.43,11.55-2.7,17.61,11.36,32.26,26.85,38.09,7.52,2.84,15.53,4.05,23.47,5.24,4.42.66,15.45,2.3,16.43,1.87,1.15-.5,1.84-1.66,2.68-2.6,3.62-4,23-20.35,27.23-25.82,2.28-2.95,31.34-39.58,29.86-43.09C3221,2495.36,3202.12,2475,3196.11,2471.92Z"/><path class="cls-37" d="M3140.41,1767.28s-44.92,84.56-39.16,118.72,61.43,31.71,110.05,4l34-91.3Z"/><path class="cls-38" d="M3209.15,1845.12a3.48,3.48,0,0,1-1.52-5.1c3.6-5.5,10.34-16.71,12.49-26.53,0,0,8.08-5.18-20.55-12s-71.32-17.49-80.3-41.86c-8.75-23.76,14.24-83.51,50.92-35.9a3.48,3.48,0,0,0,5.52,0c6-7.83,21.82-24.07,43.77-14.22,20.53,9.21,22.85,24.26,22.56,31.85a3.48,3.48,0,0,0,4.11,3.55c10.38-2,35.3-3.68,46.93,21.88,9.58,21,3.35,33-2.32,38.8a3.48,3.48,0,0,0,1.49,5.77c6.82,2.09,15.64,7.87,14.75,23.86-1.22,22.1-25.93,20.15-33,19.15a3.48,3.48,0,0,0-3.1,1.09c-6,6.68-33.21,35-62.63,38.44a3.51,3.51,0,0,1-3.69-4.64l12.73-37a3.49,3.49,0,0,0-1.89-4.34Z"/><path class="cls-39" d="M3204,1850.38s32-22,34.32-3.47-28.8,26.77-44.22,19.88Z"/><path class="cls-5" d="M3108,3374.05c-98.24,32.81-193.7,32.84-285.74,2.86a56.53,56.53,0,0,1-39-53.74V2872.35c113.11,24.89,231.67,26.16,356.56,0v457.8A46.35,46.35,0,0,1,3108,3374.05Z"/><ellipse class="cls-31" cx="2961.48" cy="2868.76" rx="178.28" ry="35.83"/><path class="cls-40" d="M3139.76,3219.48q-178.28,62-356.56,0V3039.64c119.92,29.57,238.83,31.07,356.56,0Z"/><path class="cls-41" d="M2802.32,2913.33c3.82,14.27,20.11,23.9,34.46,20.37,10-2.48,18.65-10.35,29-10.53,11.76-.2,21.15,9.5,28,19.06a188.79,188.79,0,0,1,27.89,57.39c2,6.83,3.74,14.09,8.55,19.34,10.27,11.25,29.7,7.65,41.12-2.43s17.62-24.64,26.11-37.29,21.51-24.46,36.72-23.54c5.09.31,10,2.05,15.12,2.27a26.21,26.21,0,0,0,25.5-18.38c1-3.33,1.25-6.91,3-9.91,5.15-9,18.78-9.89,25.83-17.19,4.46-4.64,5.95-11.38,11.16-15.93,2-1.72,15.5-7.31,15.77-8.17,2.38-7.26-5.17-13.83-12.16-16.94-41-18.25-87.85-.06-132.29,6.16-43.65,6.11-85.43-3.84-128.67-3.47C2833.58,2874.35,2793.43,2880.09,2802.32,2913.33Z"/><ellipse class="cls-31" cx="2963.55" cy="2869.78" rx="178.28" ry="35.83"/><ellipse class="cls-42" cx="2958.79" cy="2869.78" rx="146.76" ry="21.67"/><path class="cls-31" d="M1019.41,3338.83H55.65A55.64,55.64,0,0,1,0,3283.19V2352.62A55.64,55.64,0,0,1,55.5,2297l971.47-2.61a55.66,55.66,0,0,1,55.8,55.94l-7.71,933.17A55.64,55.64,0,0,1,1019.41,3338.83Z"/><path class="cls-5" d="M972.19,2365.6l-861.77,5.3a56.46,56.46,0,0,0-56.11,56.73l6,782.65a56.47,56.47,0,0,0,55.43,56.2l837.31,15.27a56.46,56.46,0,0,0,57.49-55.66L1029,2422.85A56.45,56.45,0,0,0,972.19,2365.6Z"/><rect class="cls-16" x="239.38" y="2421.29" width="697.77" height="39.72" rx="16.89"/><path class="cls-16" d="M863.06,2512.91h0a16.88,16.88,0,0,1-16.56,16l-580.68,10.59a16.89,16.89,0,0,1-17.2-16.89v-1.38a16.89,16.89,0,0,1,16.62-16.89l580.69-9.2A16.88,16.88,0,0,1,863.06,2512.91Z"/><path class="cls-43" d="M922.34,3237.49h-.58l-785.42-9.43a48.15,48.15,0,0,1-47.54-49L109,2626.35a47.76,47.76,0,0,1,14.74-33.63,48.29,48.29,0,0,1,34.31-13.44l784,15.26a48.22,48.22,0,0,1,47.19,49,.57.57,0,0,0,0,.13l-18.84,546.7A48.21,48.21,0,0,1,922.34,3237.49Zm-765.22-642.2a32.11,32.11,0,0,0-32.09,31.5l-20.22,552.68a32.11,32.11,0,0,0,31.73,32.58L922,3221.47h.39a32.18,32.18,0,0,0,32.1-31.54l18.85-546.76a32.18,32.18,0,0,0-31.49-32.62l-784-15.26Zm824.17,48.08h0Z"/><path class="cls-43" d="M971.11,2701.9H115.74a8,8,0,0,1,0-16H971.11a8,8,0,1,1,0,16Z"/><path class="cls-44" d="M655.7,763.37a5.44,5.44,0,0,1-9.06-3.57c-.63-7.27-1.13-14.64-1.48-21.9a5.44,5.44,0,1,1,10.86-.53c.35,7.13.84,14.36,1.46,21.49A5.44,5.44,0,0,1,655.7,763.37Z"/><path class="cls-45" d="M1566.49,255.23a5.45,5.45,0,0,1-6.89.32c-11.79-8.79-24.09-17.21-36.53-25a5.44,5.44,0,0,1,5.79-9.22c12.69,8,25.22,16.57,37.24,25.52a5.43,5.43,0,0,1,1.11,7.61A5,5,0,0,1,1566.49,255.23Zm-100.72-59.92a5.44,5.44,0,0,1-5.93.9c-13.31-6.16-27.07-11.88-40.9-17a5.44,5.44,0,0,1,3.78-10.21c14.09,5.23,28.12,11.06,41.69,17.33a5.45,5.45,0,0,1,2.65,7.23A5.53,5.53,0,0,1,1465.77,195.31Zm-110.85-38.09a5.4,5.4,0,0,1-4.89,1.26c-14.35-3.36-29-6.18-43.48-8.4a5.44,5.44,0,0,1,1.65-10.76c14.78,2.27,29.69,5.15,44.31,8.57a5.44,5.44,0,0,1,2.41,9.33ZM655.36,669.06a5.44,5.44,0,0,1-9.07-4.47c1.19-14.92,3-30,5.35-44.82a5.44,5.44,0,1,1,10.74,1.71c-2.31,14.54-4.07,29.34-5.24,44A5.49,5.49,0,0,1,655.36,669.06Zm583.33-526.72a5.46,5.46,0,0,1-3.78,1.4c-14.68-.36-29.57-.14-44.25.67a5.44,5.44,0,0,1-.59-10.87c15-.82,30.14-1,45.11-.68a5.44,5.44,0,0,1,3.51,9.48ZM676.58,553.77a5.44,5.44,0,0,1-8.87-5.55c4.2-14.43,9-28.84,14.29-42.82a5.44,5.44,0,1,1,10.18,3.84c-5.18,13.72-9.9,27.86-14,42A5.36,5.36,0,0,1,676.58,553.77ZM1121.9,151.61a5.39,5.39,0,0,1-2.65,1.3c-14.41,2.66-28.94,5.93-43.19,9.73a5.44,5.44,0,1,1-2.8-10.51c14.52-3.88,29.33-7.21,44-9.92a5.44,5.44,0,0,1,4.62,9.4ZM720.65,445.17a5.44,5.44,0,0,1-8.45-6.6c7-13.24,14.69-26.36,22.74-39a5.44,5.44,0,1,1,9.17,5.85c-7.89,12.39-15.4,25.26-22.3,38.26A5.69,5.69,0,0,1,720.65,445.17Zm288.82-260.6a5.42,5.42,0,0,1-1.59,1c-13.6,5.56-27.16,11.72-40.31,18.33a5.44,5.44,0,0,1-4.88-9.72c13.39-6.74,27.21-13,41.08-18.68a5.44,5.44,0,0,1,5.7,9.07ZM906.08,239.71a6,6,0,0,1-.62.48c-12.19,8.19-24.22,17-35.76,26.13a5.46,5.46,0,0,1-7.65-.89,5.55,5.55,0,0,1,.89-7.64c11.77-9.32,24-18.28,36.45-26.63a5.44,5.44,0,0,1,6.69,8.55ZM786,347.9a5.44,5.44,0,0,1-7.82-7.53c9.6-11.51,19.78-22.79,30.26-33.5a5.44,5.44,0,1,1,7.78,7.6C806,325,796,336,786.57,347.34A5.73,5.73,0,0,1,786,347.9Z"/><path class="cls-46" d="M1637.38,317.8a5.44,5.44,0,0,1-7.57-.27c-4.94-5.15-10-10.28-15.2-15.26a5.44,5.44,0,0,1-.13-7.69,5.5,5.5,0,0,1,7.69-.13c5.24,5.07,10.46,10.3,15.49,15.55a5.44,5.44,0,0,1-.16,7.69Z"/><path class="cls-47" d="M1796.47,734.31a5.43,5.43,0,0,1-9.07-4.23c.26-7.2.39-14.44.37-21.55a5.44,5.44,0,1,1,10.88,0c0,7.23-.12,14.62-.39,22A5.37,5.37,0,0,1,1796.47,734.31Z"/><path class="cls-48" d="M1608.49,1137.84l-3.67,3.28a5.44,5.44,0,0,1-7.25-8.11l0,0,3.59-3.21c9.54-8.61,18.92-17.67,27.88-26.94a5.49,5.49,0,0,1,7.69-.12,5.44,5.44,0,0,1,.13,7.69C1627.77,1119.83,1618.21,1129.07,1608.49,1137.84Zm-59.94,47.23a6.26,6.26,0,0,1-.57.45c-12.16,8.33-24.8,16.3-37.57,23.69a5.44,5.44,0,0,1-5.45-9.42c12.54-7.25,24.94-15.07,36.87-23.24a5.44,5.44,0,0,1,6.72,8.52ZM1683,1056.24a5.44,5.44,0,0,1-8-7.3c8.68-11.6,17-23.67,24.74-35.88a5.44,5.44,0,0,1,9.19,5.82c-7.89,12.45-16.37,24.75-25.22,36.58A5.94,5.94,0,0,1,1683,1056.24ZM1447.37,1240.4a5.38,5.38,0,0,1-1.53,1c-13.61,5.76-27.59,11-41.54,15.71a5.44,5.44,0,0,1-3.45-10.32c13.68-4.58,27.4-9.76,40.76-15.41a5.44,5.44,0,0,1,5.76,9.05Zm295-283.05a5.44,5.44,0,0,1-8.57-6.35c6.13-13,11.85-26.54,17-40.13a5.44,5.44,0,0,1,10.18,3.85c-5.25,13.85-11.08,27.61-17.32,40.9A5.46,5.46,0,0,1,1742.33,957.35Zm-405.16,317a5.23,5.23,0,0,1-2.57,1.29c-14.44,2.9-29.19,5.27-43.83,7a5.43,5.43,0,1,1-1.31-10.79c14.37-1.75,28.84-4.07,43-6.91a5.43,5.43,0,0,1,4.71,9.37Zm443.45-425.83a5.44,5.44,0,0,1-8.94-5.32c3.42-14.06,6.34-28.44,8.68-42.71a5.44,5.44,0,1,1,10.74,1.76c-2.39,14.54-5.36,29.19-8.84,43.52A5.43,5.43,0,0,1,1780.62,848.54Zm-558.2,436.92a5.38,5.38,0,0,1-3.67,1.39c-14.71-.07-29.63-.74-44.37-2a5.44,5.44,0,0,1,.9-10.84c14.46,1.2,29.1,1.85,43.53,1.93a5.44,5.44,0,0,1,3.61,9.48Zm-114.64-12.32a5.43,5.43,0,0,1-4.77,1.29c-11.35-2.4-22.8-5.17-34-8.26q-4.54-1.25-9-2.55a5.44,5.44,0,0,1,3-10.45q4.41,1.29,8.87,2.51c11,3,22.28,5.75,33.41,8.1a5.44,5.44,0,0,1,2.53,9.36Zm-109.93-34.92a5.42,5.42,0,0,1-5.8,1c-13.54-5.85-27-12.3-40.07-19.18a5.44,5.44,0,0,1,5.07-9.63c12.8,6.75,26,13.08,39.31,18.82a5.44,5.44,0,0,1,1.49,9ZM897.16,1182a5.44,5.44,0,0,1-6.76.42c-12.07-8.46-24-17.51-35.37-26.89a5.44,5.44,0,1,1,6.92-8.4c11.18,9.21,22.86,18.08,34.69,26.38a5.43,5.43,0,0,1,1.33,7.57A5.13,5.13,0,0,1,897.16,1182Z"/><path class="cls-49" d="M809.77,1106.4a5.44,5.44,0,0,1-7.6-.31c-5-5.27-9.94-10.74-14.76-16.25a5.68,5.68,0,0,1,.52-7.68,5.44,5.44,0,0,1,7.67.52c4.73,5.41,9.6,10.77,14.48,16a5.44,5.44,0,0,1-.22,7.69Z"/><path class="cls-50" d="M857.41,955a6.86,6.86,0,0,0,7.11,3.58L947,945.81A363.72,363.72,0,0,0,1037.7,1021l2.7,83.39a6.86,6.86,0,0,0,4.84,6.33l95.67,29.55a6.84,6.84,0,0,0,7.56-2.5l49.27-67.33a363.92,363.92,0,0,0,117.31-11l60.92,57.08a6.87,6.87,0,0,0,7.89,1.07l88.55-46.76a6.86,6.86,0,0,0,3.57-7.12l-12.78-82.5a363.64,363.64,0,0,0,75.23-90.67l83.39-2.71a6.86,6.86,0,0,0,6.33-4.83l29.56-95.68a6.86,6.86,0,0,0-2.51-7.56l-67.33-49.27a363.64,363.64,0,0,0-11-117.31L1634,552.31a6.88,6.88,0,0,0,1.06-7.9l-46.76-88.55a6.86,6.86,0,0,0-7.12-3.57l-82.5,12.78A363.68,363.68,0,0,0,1408,389.84l-2.71-83.39a6.86,6.86,0,0,0-4.83-6.33l-95.68-29.55a6.84,6.84,0,0,0-7.56,2.5l-49.27,67.33a363.83,363.83,0,0,0-117.3,11l-60.92-57.08a6.85,6.85,0,0,0-7.9-1.06L973.25,340a6.87,6.87,0,0,0-3.57,7.12l12.78,82.5a363.85,363.85,0,0,0-75.23,90.67L823.84,523a6.87,6.87,0,0,0-6.33,4.83L788,623.52a6.85,6.85,0,0,0,2.5,7.56l67.33,49.27a363.83,363.83,0,0,0,11,117.3l-57.08,60.92a6.87,6.87,0,0,0-1.06,7.9Z"/><path class="cls-51" d="M1287.86,777.52l-.07.06a91.58,91.58,0,1,1,.07-.06Zm-119.13-132a80.76,80.76,0,0,0,108.14,120l.06-.05a80.76,80.76,0,0,0-108.14-120Z"/><path class="cls-51" d="M1392.22,889.44C1329,946.52,1238.07,969.88,1150.91,943A250.93,250.93,0,0,1,1102,922l8-14.22a235.84,235.84,0,0,0,45.69,19.6c96.64,29.84,198.22-6.43,255.72-83l.32-.42c.11-.16.22-.29.33-.44a233.33,233.33,0,0,0-118.56-362.27c-123-38-254,31.17-292,154.17a233.23,233.23,0,0,0-3.77,124.31l-15.85,3.88a249.51,249.51,0,0,1,4-133C1026.61,499,1166.74,425,1298.34,465.63a248.19,248.19,0,0,1,111.5,70.91,251.16,251.16,0,0,1,35.67,51.12,249.63,249.63,0,0,1-53.29,301.78Z"/><path class="cls-52" d="M1779.47,863a4.23,4.23,0,0,1,1-7.5c5.41-1.82,10.94-3.49,16.44-5a4.23,4.23,0,0,1,2.18,8.17c-5.33,1.42-10.68,3-15.91,4.8A4.23,4.23,0,0,1,1779.47,863Z"/><path class="cls-53" d="M2116.63,1186.49a4.23,4.23,0,0,1-1.68-4.67,258.68,258.68,0,0,0,7.44-34,4.23,4.23,0,0,1,8.37,1.24,268.57,268.57,0,0,1-7.69,35.11,4.23,4.23,0,0,1-5.24,2.88A4.15,4.15,0,0,1,2116.63,1186.49Zm9.87-91.9a4.23,4.23,0,0,1-1.83-3.21,260.49,260.49,0,0,0-4.68-34.48,4.23,4.23,0,1,1,8.28-1.69,268.64,268.64,0,0,1,4.83,35.6,4.23,4.23,0,0,1-6.6,3.78Zm-274.09-245.1a4.22,4.22,0,0,1,2.2-7.71c6.36-.27,12.85-.31,19.27-.12,5.56.16,11.16.5,16.66,1a4.23,4.23,0,0,1-.77,8.42c-5.33-.49-10.75-.82-16.13-1-6.23-.18-12.52-.14-18.67.11A4.18,4.18,0,0,1,1852.41,849.49Zm251.71,155.45a4.26,4.26,0,0,1-1.48-1.76,258.83,258.83,0,0,0-16.35-30.71,4.23,4.23,0,1,1,7.18-4.46,267.55,267.55,0,0,1,16.89,31.71,4.23,4.23,0,0,1-6.24,5.22ZM1944,861.75a4.23,4.23,0,0,1,3.67-7.52,267.07,267.07,0,0,1,33.41,13.24,4.22,4.22,0,1,1-3.63,7.63,259,259,0,0,0-32.35-12.81A4.5,4.5,0,0,1,1944,861.75Zm108,66.83a5.38,5.38,0,0,1-.64-.54,261.61,261.61,0,0,0-25.93-23.22,4.22,4.22,0,0,1-.73-5.93,4.32,4.32,0,0,1,5.94-.73,271.37,271.37,0,0,1,26.77,24,4.23,4.23,0,0,1-5.41,6.45Z"/><path class="cls-54" d="M2085.91,1254.24a4.21,4.21,0,0,1-1.18-5.76c3-4.67,5.83-9.47,8.48-14.3a4.24,4.24,0,0,1,5.75-1.66,4.13,4.13,0,0,1,1.66,5.74c-2.75,5-5.7,10-8.77,14.76a4.22,4.22,0,0,1-5.84,1.29Z"/><path class="cls-55" d="M1909.9,1372.12a4.14,4.14,0,0,1-1.78-2.75,4.22,4.22,0,0,1,3.42-4.9c5.44-1,10.92-2.12,16.27-3.43a4.23,4.23,0,0,1,2,8.22c-5.53,1.35-11.18,2.54-16.8,3.54A4.23,4.23,0,0,1,1909.9,1372.12Z"/><path class="cls-56" d="M1733.34,1341.73a4.23,4.23,0,0,1,4.48-7.16,257.87,257.87,0,0,0,30.79,15,4.23,4.23,0,1,1-3.18,7.83,265.78,265.78,0,0,1-31.81-15.44Zm-45.77-33a3.94,3.94,0,0,1-.45-.36,269.16,269.16,0,0,1-24.67-25.31,4.22,4.22,0,0,1,6.43-5.48,263.21,263.21,0,0,0,23.89,24.51,4.23,4.23,0,0,1-5.2,6.64Zm131.38,63.7a4.23,4.23,0,0,1,3.09-7.66,263.51,263.51,0,0,0,34.06,3.54,4.22,4.22,0,1,1-.33,8.44,270.14,270.14,0,0,1-35.16-3.65A4.13,4.13,0,0,1,1819,1372.38ZM1631.4,1237.17a4.2,4.2,0,0,1-1.34-1.49,266.53,266.53,0,0,1-14.62-32.17,4.23,4.23,0,1,1,7.91-3,257.27,257.27,0,0,0,14.16,31.15,4.23,4.23,0,0,1-6.11,5.49Zm-28.47-86.34a4.24,4.24,0,0,1-1.8-2.89,268.68,268.68,0,0,1-2.75-35.23,4.23,4.23,0,0,1,8.45-.1,262.39,262.39,0,0,0,2.66,34.12,4.22,4.22,0,0,1-6.56,4.1Zm2.57-90.89a4.24,4.24,0,0,1-1.76-4.34,267.27,267.27,0,0,1,9.32-34.1,4.23,4.23,0,0,1,8,2.77,258.92,258.92,0,0,0-9,33,4.23,4.23,0,0,1-5,3.31A4.42,4.42,0,0,1,1605.5,1059.94Z"/><path class="cls-57" d="M1638.91,975.16a4.23,4.23,0,0,1-1.22-5.7c3-4.87,6.16-9.69,9.44-14.34a4.22,4.22,0,0,1,5.83-1.06l.06,0a4.23,4.23,0,0,1,1,5.89c-3.18,4.5-6.26,9.18-9.14,13.89a4.24,4.24,0,0,1-5.82,1.39Z"/><path class="cls-58" d="M1716.55,972.79a3.16,3.16,0,0,0-.83,3.58l14.71,35.56a167.59,167.59,0,0,0-23.84,48.81l-37,10.29a3.15,3.15,0,0,0-2.31,2.85L1664.4,1120a3.17,3.17,0,0,0,1.95,3.12l35.52,14.74a167.84,167.84,0,0,0,17.69,51.35l-18.94,33.5a3.16,3.16,0,0,0,.39,3.65l30.58,34.58a3.16,3.16,0,0,0,3.58.82l35.56-14.7a167.57,167.57,0,0,0,48.81,23.83l10.29,37.06a3.16,3.16,0,0,0,2.85,2.31l46.08,2.82a3.17,3.17,0,0,0,3.11-1.94l14.74-35.53a167.75,167.75,0,0,0,51.35-17.69l33.5,18.94a3.17,3.17,0,0,0,3.65-.38l34.58-30.59a3.16,3.16,0,0,0,.83-3.57l-14.71-35.57a167.64,167.64,0,0,0,23.83-48.8l37.06-10.29a3.17,3.17,0,0,0,2.31-2.86l2.82-46.07a3.15,3.15,0,0,0-1.94-3.12l-35.52-14.74a167.6,167.6,0,0,0-17.7-51.35l18.94-33.5a3.16,3.16,0,0,0-.38-3.65l-30.59-34.58a3.14,3.14,0,0,0-3.57-.82l-35.57,14.7a167.64,167.64,0,0,0-48.8-23.83l-10.29-37.06a3.17,3.17,0,0,0-2.86-2.31l-46.07-2.82a3.18,3.18,0,0,0-3.12,1.94l-14.73,35.53a167.66,167.66,0,0,0-51.35,17.69l-33.51-18.94a3.16,3.16,0,0,0-3.65.39Z"/><path class="cls-51" d="M1841.46,1148.42l0,0a47.33,47.33,0,1,1,35.45,7.43A47,47,0,0,1,1841.42,1148.4Zm46.17-67.72a34.64,34.64,0,0,0-39.06,57.23h0a34.64,34.64,0,1,0,39-57.24Z"/><path class="cls-51" d="M1802.69,1207.35a117.82,117.82,0,0,1-47.94-126.52c.23-.92.48-1.84.73-2.75l12.21,3.43a106.88,106.88,0,0,0-3.72,22.06h0a105.28,105.28,0,0,0,1.33,24.3s0,0,0,.06a.5.5,0,0,0,0,.12,105.06,105.06,0,0,0,88.42,85.91l.9.12.73.1,1.88.23c1.7.18,3.41.33,5.14.43a104.33,104.33,0,0,0,76-26.16,105.72,105.72,0,0,0,17.35-19.65,105.09,105.09,0,0,0-135.26-152.33l-5.84-11.25a117.75,117.75,0,1,1-12,201.9Z"/><path class="cls-3" d="M2457.22,482.81a4.14,4.14,0,0,1-2-3.33c-.25-5.47-.63-11-1.11-16.3a4.13,4.13,0,1,1,8.23-.73c.49,5.45.87,11.06,1.14,16.64a4.13,4.13,0,0,1-3.93,4.32A4.09,4.09,0,0,1,2457.22,482.81Z"/><path class="cls-3" d="M1856,838.57c-8.23-5-16.36-10.42-24.16-16a4.13,4.13,0,1,1,4.82-6.71c9,6.45,18.37,12.58,27.92,18.26l0,0a4.13,4.13,0,0,1-4.26,7.07C1858.94,840.33,1857.48,839.46,1856,838.57Zm53.23,27.23a4.13,4.13,0,0,1,3.75-7.33c10.21,4.28,20.74,8.17,31.3,11.58a4.13,4.13,0,0,1-2.54,7.86c-10.77-3.48-21.52-7.46-32-11.82A3.29,3.29,0,0,1,1909.27,865.8ZM1994,890.7a4.13,4.13,0,0,1,2.87-7.59c10.94,1.94,22.06,3.42,33.07,4.41a4.13,4.13,0,0,1-.75,8.23c-11.23-1-22.59-2.53-33.75-4.5A4.31,4.31,0,0,1,1994,890.7Zm88.15,5.56a4.13,4.13,0,0,1,1.95-7.65c11-.55,22.21-1.59,33.2-3.09a4.13,4.13,0,0,1,1.12,8.18c-11.22,1.53-22.63,2.59-33.91,3.15A4.12,4.12,0,0,1,2082.19,896.26ZM2169.33,882a4.14,4.14,0,0,1,1-7.5c10.65-3,21.31-6.51,31.69-10.41a4.13,4.13,0,0,1,2.91,7.73c-10.6,4-21.49,7.56-32.36,10.63A4.1,4.1,0,0,1,2169.33,882Zm81.82-33.31a4.13,4.13,0,0,1,.18-7.15c9.75-5.3,19.37-11.08,28.61-17.17a4.13,4.13,0,1,1,4.54,6.9c-9.43,6.21-19.25,12.11-29.2,17.53A4.14,4.14,0,0,1,2251.15,848.66Zm72.44-50.57a4,4,0,0,1-1-.8,4.12,4.12,0,0,1,.37-5.82c8.33-7.32,16.44-15.09,24.1-23.08a4.13,4.13,0,1,1,6,5.72c-7.82,8.16-16.1,16.09-24.6,23.56A4.14,4.14,0,0,1,2323.59,798.09Zm59.41-65.4-.26-.17a4.13,4.13,0,0,1-.93-5.77c5.72-7.94,11.21-16.19,16.31-24.52.68-1.11,1.35-2.23,2-3.35a4.13,4.13,0,0,1,5.66-1.42l0,0a4.12,4.12,0,0,1,1.39,5.64c-.68,1.15-1.37,2.28-2.07,3.42-5.2,8.51-10.81,16.94-16.66,25A4.12,4.12,0,0,1,2383,732.69Zm43.28-77a4.14,4.14,0,0,1-1.64-5.13c4.3-10.18,8.22-20.7,11.66-31.27a4.13,4.13,0,1,1,7.85,2.56c-3.51,10.78-7.51,21.52-11.9,31.92a4.12,4.12,0,0,1-5.41,2.2A5.85,5.85,0,0,1,2426.28,655.68ZM2451.43,571a4.13,4.13,0,0,1-1.91-4.25c2-10.94,3.47-22.06,4.49-33.07a4.13,4.13,0,1,1,8.23.77c-1,11.23-2.59,22.59-4.59,33.75a4.13,4.13,0,0,1-4.8,3.34A4,4,0,0,1,2451.43,571Z"/><path class="cls-3" d="M1789.82,787.64a4,4,0,0,1-.71-.54c-4-3.88-8-7.84-11.82-11.77a4.13,4.13,0,0,1,6-5.73c3.71,3.85,7.61,7.73,11.58,11.53a4.13,4.13,0,0,1-5,6.51Z"/><path class="cls-3" d="M1667.22,503.32a4.13,4.13,0,0,1-2-3.5c0-5.51.07-11.12.29-16.69a4.13,4.13,0,1,1,8.25.31c-.21,5.46-.3,10.95-.28,16.34a4.12,4.12,0,0,1-6.28,3.54Z"/><path class="cls-3" d="M1673.24,433.23a4.13,4.13,0,0,1-1.92-4.24c1.93-10.94,4.35-21.95,7.2-32.74a4.13,4.13,0,1,1,8,2.11c-2.79,10.57-5.16,21.36-7.06,32.06a4.11,4.11,0,0,1-4.78,3.35A4,4,0,0,1,1673.24,433.23Zm24.33-83.47a4.12,4.12,0,0,1-1.66-5.1c4.27-10.3,9-20.53,14.13-30.41a4.13,4.13,0,0,1,7.33,3.8c-5,9.67-9.65,19.68-13.83,29.77a4.12,4.12,0,0,1-5.4,2.23A3.81,3.81,0,0,1,1697.57,349.76Zm42-76.14a1.88,1.88,0,0,1-.23-.16,4.12,4.12,0,0,1-1-5.75c6.41-9.09,13.3-18,20.47-26.54a4.13,4.13,0,0,1,6.32,5.31c-7,8.35-13.76,17.1-20,26A4.14,4.14,0,0,1,1739.54,273.62Zm57.68-65.05a3.84,3.84,0,0,1-.91-.76,4.12,4.12,0,0,1,.3-5.83c8.25-7.46,16.93-14.66,25.79-21.41a4.13,4.13,0,0,1,5,6.57c-8.68,6.61-17.18,13.67-25.26,21A4.14,4.14,0,0,1,1797.22,208.57Zm70.49-50.86a4.13,4.13,0,0,1,.13-7.11c9.68-5.49,19.71-10.63,29.82-15.29a4.13,4.13,0,0,1,3.46,7.5c-9.9,4.56-19.73,9.6-29.21,15A4.13,4.13,0,0,1,1867.71,157.71Zm79.87-34.31a4.12,4.12,0,0,1,1-7.47c10.66-3.25,21.57-6.07,32.44-8.41a4.13,4.13,0,1,1,1.73,8.07c-10.64,2.29-21.33,5.06-31.76,8.24A4.09,4.09,0,0,1,1947.58,123.4Zm85.4-16a4.13,4.13,0,0,1,1.84-7.65c11.11-.83,22.38-1.19,33.5-1.08a4.13,4.13,0,1,1-.08,8.26c-10.89-.11-21.93.25-32.8,1.06A4.19,4.19,0,0,1,2033,107.4Zm86.85,3.16a4.13,4.13,0,0,1,2.76-7.61c11,1.62,22,3.74,32.91,6.29a4.12,4.12,0,1,1-1.88,8c-10.65-2.49-21.49-4.56-32.24-6.16A4,4,0,0,1,2119.83,110.56Zm84.09,22a4.13,4.13,0,0,1,3.64-7.38c10.43,4,20.78,8.46,30.78,13.28a4.13,4.13,0,0,1-3.59,7.44c-9.79-4.72-19.93-9.1-30.15-13A4.32,4.32,0,0,1,2203.92,132.57Zm104.13,59.32a3.13,3.13,0,0,1-.42-.29c-8.55-6.78-17.48-13.28-26.55-19.31a4.12,4.12,0,0,1-1.15-5.72,4.07,4.07,0,0,1,5.72-1.15c9.27,6.15,18.39,12.78,27.11,19.71a4.13,4.13,0,0,1-4.71,6.76Z"/><path class="cls-3" d="M2359.15,240.54a4.75,4.75,0,0,1-1-.8c-3.61-4.11-7.32-8.16-11-12.05a4.13,4.13,0,0,1,6-5.7c3.79,4,7.58,8.1,11.27,12.3a4.13,4.13,0,0,1-5.26,6.25Z"/><path class="cls-31" d="M2316,327.86a4.74,4.74,0,0,0-4.93-2.46l-57,9a251.51,251.51,0,0,0-62.82-51.87l-2-57.64a4.72,4.72,0,0,0-3.35-4.37l-66.19-20.28a4.76,4.76,0,0,0-5.23,1.74l-34,46.64a251.43,251.43,0,0,0-81.08,7.79L1957.18,217a4.74,4.74,0,0,0-5.46-.72l-61.15,32.47a4.76,4.76,0,0,0-2.46,4.93l9,57a251.24,251.24,0,0,0-51.87,62.81l-57.65,2a4.74,4.74,0,0,0-4.37,3.35l-20.27,66.2a4.72,4.72,0,0,0,1.74,5.22l46.63,33.95a251.41,251.41,0,0,0,7.8,81.08l-39.37,42.22A4.73,4.73,0,0,0,1779,613l32.47,61.15a4.75,4.75,0,0,0,4.93,2.46l57-9a251.25,251.25,0,0,0,62.82,51.86l2,57.65a4.75,4.75,0,0,0,3.35,4.37l66.2,20.28a4.76,4.76,0,0,0,5.23-1.75L2047,753.42a251.46,251.46,0,0,0,81.09-7.79L2170.26,785a4.74,4.74,0,0,0,5.46.72l61.15-32.47a4.75,4.75,0,0,0,2.46-4.92l-9-57a251.42,251.42,0,0,0,51.87-62.81l57.65-2a4.76,4.76,0,0,0,4.37-3.35l20.27-66.2a4.74,4.74,0,0,0-1.74-5.22l-46.63-34a251.47,251.47,0,0,0-7.8-81.09l39.37-42.21a4.74,4.74,0,0,0,.72-5.46Z"/><path class="cls-3" d="M2028.47,558.8a67.75,67.75,0,1,1,31.87,9.79A67.73,67.73,0,0,1,2028.47,558.8Zm64-105a55,55,0,0,0-26-8h0a55.28,55.28,0,1,0,38.23,18.12A55.6,55.6,0,0,0,2092.52,453.79Zm-25.73-14.18,0,0Z"/><path class="cls-3" d="M1972.09,649.63c-65.83-40.27-98.88-121.46-75.27-198.57a173.46,173.46,0,0,1,17.82-39.64c40.26-65.83,121.46-98.9,198.58-75.28,1.39.43,2.77.87,4.14,1.33A173.87,173.87,0,0,1,2144.17,349c1,.53,2,1.07,3,1.62l-6,10.82A162.43,162.43,0,0,0,2109.59,348l-.31-.1c-84.72-25.76-174.67,22.09-200.61,106.8s21.89,174.93,106.7,200.92c71.6,21.93,147-8.77,184.38-69.9a161.23,161.23,0,0,0,18.94-122.45l12-3a173.52,173.52,0,0,1-20.39,131.89c-40.26,65.84-121.46,98.9-198.58,75.29A173.13,173.13,0,0,1,1972.09,649.63Z"/><path class="cls-59" d="M1076.63,1306.75l-38.72,38.17c-55-5.28-97.31-22.38-129.84-44.07,19.58-48.68,39.46-77.56,55.08-94.48C1014.32,1278.33,1076.63,1306.75,1076.63,1306.75Z"/><path class="cls-60" d="M807.14,1163.89,898.52,1021c6,80.58,33.21,141.15,64.63,185.34-15.62,16.92-35.5,45.8-55.08,94.48C826.89,1246.73,807.14,1163.89,807.14,1163.89Z"/><path class="cls-61" d="M710,2293c45.56,2.1,89.65.78,119.09-.73-26.8-19.08-88.56-60.59-140.23-77.12L653.35,2213s-12,18.28-16.31,60.11C642.92,2280.44,660.11,2290.66,710,2293Z"/><path class="cls-62" d="M829.43,2292.49l-.37-.26c-29.44,1.51-73.53,2.83-119.09.73-49.86-2.3-67.05-12.52-72.93-19.86-.19,1.93-.4,3.84-.56,5.87a16.62,16.62,0,0,0,15.26,17.94c37.31,2.82,129.81,9.2,174.42,6.86A6.22,6.22,0,0,0,829.43,2292.49Z"/><path class="cls-63" d="M384.16,2280.77c-3.34-21.39-8.69-52.3-12.82-60.21-6.48-12.4-28.68,0-28.68,0s-15.58,7.27-22.76,19.38c-4.57,7.72-17.21,29.69-25.78,44.6a10,10,0,0,0-1.34,5.31l88.88,3.11A17.79,17.79,0,0,0,384.16,2280.77Z"/><path class="cls-64" d="M292.78,2289.85a10.13,10.13,0,0,0,9.85,9.84l63.32,1.74a17.88,17.88,0,0,0,15.71-8.47Z"/><path class="cls-65" d="M391,2149.48c-.77,2.57-12.25,58.24-17.28,82.68a14,14,0,0,1-14.36,11.15c-3.76-.19-8.14-.53-12.73-1.12a16.84,16.84,0,0,1-14.65-16.06c-.81-21.4-1.22-62.5,6.64-78.42C349.42,2125.74,391,2149.48,391,2149.48Z"/><path class="cls-66" d="M646.38,2165.42c4.92-.15-2,25.44,5.48,50.59,1.69,5.67,5.93,10.12,11.84,10.2,3.84.05,8.38,0,13-.39A14.29,14.29,0,0,0,689.85,2213l6.06-65.24Z"/><path class="cls-67" d="M784.16,1471.94c-2.2,10.7-79.8,463.35-84.51,697.57a8,8,0,0,1-6.86,7.76c-9.85,1.38-29,3.14-47.64-.31a5.61,5.61,0,0,1-4.63-5.15c-2.71-43.65-24.52-412.69,2.19-586.42,0,0-220.65,464.39-254.1,592.44a6.73,6.73,0,0,1-6.89,5.05c-9.45-.5-29.1-2.2-44.7-8a11.67,11.67,0,0,1-7.37-13.72c18.69-76.64,149.65-604.62,238.57-720.94Z"/><path class="cls-68" d="M642.71,1588.29a2.9,2.9,0,0,1-2.07-4.92l29.55-30.22a2.9,2.9,0,0,1,4.14,4l-29.55,30.22A2.89,2.89,0,0,1,642.71,1588.29Z"/><path class="cls-69" d="M910.29,905.24c-56.68-14.85-161.22-38.1-244.45-33.14a37.67,37.67,0,0,0-35.52,35.37c-12.57,221.66-29.75,418.35-62.1,532.8,72.72,28.77,144.81,42.12,215.94,31.67q79.92-171.2,139.68-395.53s23.35-119.34.67-159.12C921,911.08,916.32,906.82,910.29,905.24Z"/><path class="cls-70" d="M774,750s-14.31,85.38-18.58,124.87a15.47,15.47,0,0,0,8.41,15.43c15.64,8.06,49,21,85.42,9.12A14.42,14.42,0,0,0,859,885.33l-2.5-114Z"/><path class="cls-71" d="M867.31,655.36s27.61,63.44,29.46,96.73,9,54.9-29.46,61.6-70.93-12.47-88.5-45.63c0,0-27.53-51.11-21.35-72S867.31,655.36,867.31,655.36Z"/><path class="cls-72" d="M792,744.21h4.87s-20.05-41.13-2.43-48.36,87.41-21.46,102.47-46.22c14.51-23.87,1.57-54.71-17.8-63.34a2.59,2.59,0,0,0-3.3,1.22l-1.6,3a2.62,2.62,0,0,1-4.83-.49h0a2.6,2.6,0,0,0-4.69-.72c-4.6,7.4-17.09,19.45-50.56,25.63-47.5,8.76-78.9,28-79.68,60.81a2.62,2.62,0,0,1-4,2.15c-3.5-2.14-9.11-3.14-16.61,3.16-13,11-7.71,39.42,20.88,62.82a2.6,2.6,0,0,1-.12,4.19c-5.18,3.38-12.91,11.41,7.11,22.11,20.48,10.95,32.6,9.75,37.18,8.58a2.61,2.61,0,0,0,2-2.7L779,747a2.62,2.62,0,0,1,2.61-2.78Z"/><path class="cls-73" d="M793.16,750.3s-10.54-40.52-28.7-29.16,9.42,45.4,24,46.92Z"/><path class="cls-74" d="M203.67,1409.56,166.38,1419c-64,16.17-107,64.27-96.13,107.42l13,51.3c10.9,43.15,71.62,65,135.62,48.84l37.3-9.43c2.46-.62,4.92-1.3,7.36-2l1093.57-327.21-28.24-111.76L211.12,1407.85Q207.37,1408.63,203.67,1409.56Zm16.06,51.2c48.18-12.18,93.11,1.16,100.34,29.79s-25.95,61.71-74.13,73.89-93.11-1.16-100.35-29.79S171.55,1472.94,219.73,1460.76Z"/><path class="cls-75" d="M1692.42,1024.26,1476,1079a51.24,51.24,0,0,0-34.45,29.3L1409.2,1183a51.22,51.22,0,0,0,15.32,60.6l64,50.39a51.23,51.23,0,0,0,44.23,9.42l216.4-54.7c32.64-8.25,60.37,25.81,45,55.75-36.86,71.61-104.51,128.24-190.61,150-155.62,39.33-293.35-55-331.18-204.64s38.54-298.09,194.17-337.43c86.1-21.76,172.53-4.07,239,41.42C1733.28,972.86,1725.06,1016,1692.42,1024.26Z"/><path class="cls-76" d="M1697.58,1044.66l-216.4,54.69a51.23,51.23,0,0,0-34.45,29.31l-32.38,74.75a51.23,51.23,0,0,0,15.32,60.61l64,50.39a51.21,51.21,0,0,0,44.24,9.41l216.4-54.7c32.64-8.25,60.37,25.82,45,55.75-36.87,71.61-104.51,128.25-190.61,150-155.63,39.34-293.35-55-331.19-204.63s38.55-298.1,194.17-337.43c86.1-21.77,172.53-4.07,239,41.42C1738.43,993.25,1730.22,1036.4,1697.58,1044.66Z"/><path class="cls-77" d="M207.78,1425.83l-37.29,9.43c-64,16.17-107,64.27-96.13,107.42l13,51.29c10.91,43.16,71.63,65,135.62,48.85l37.3-9.43c2.47-.63,4.92-1.3,7.36-2l1093.58-327.21-28.25-111.76L215.23,1424.12C212.74,1424.64,210.25,1425.21,207.78,1425.83Zm16.06,51.2c48.19-12.18,93.11,1.16,100.35,29.79s-26,61.71-74.14,73.89-93.11-1.16-100.34-29.79S175.66,1489.21,223.84,1477Z"/><path class="cls-78" d="M483.66,1200.45c-28,78.64-12.25,163-12.25,163l-36.94,9.85s-47.73-56.77-36.81-182.74C431.76,1185.3,463.7,1193.29,483.66,1200.45Z"/><path class="cls-79" d="M397.66,1190.51c1.22-14.17,3.15-29.16,6-45.09,25-138.94,203.08-245.81,245-269.21a5.72,5.72,0,0,1,8.5,5.22l-6,188.86c-99.19,13.34-146.14,70.09-167.55,130.16C463.7,1193.29,431.76,1185.3,397.66,1190.51Z"/><path class="cls-80" d="M1154.56,1376a24,24,0,0,0,15.48-13.4c5.67-12.71,12.06-33.07-1.58-39.27-20.32-9.23-57.27,28.63-57.27,28.63l-18,29.26-16.51,8C1091.76,1393.45,1120.92,1386.52,1154.56,1376Z"/><path class="cls-81" d="M469,1344.92h45.67s-37.05,22.23-38.28,45.6,14.71,71.78,22.16,85c8.16,14.41-103.43-21.46-64-130.56Z"/><path class="cls-82" d="M2724.89,3583.72v39.15c0,10-5.15,18.3-11.95,19.2l-610.83,55.36a43.93,43.93,0,0,1-13.59-.27c-1.18-.21-2.36-.47-3.53-.76l-425.6-80.22c-4.52-1.17-7.85-7.09-7.85-14v-41.37l451.56-56,58.13-27.51,57.79,8.32,34.13-6.54,78,22.7Z"/><path class="cls-83" d="M2724.89,3583.72v39.15c0,10-5.15,18.3-11.95,19.2l-610.8,55.36a43.54,43.54,0,0,1-13.57-.28v-210.9l72.68-8.89,57.79,8.33,34.12-6.54,78,22.7Z"/><path class="cls-84" d="M2253.15,3479.15,1651.54,3559l433.94,81.73a41.91,41.91,0,0,0,16.14,1l623.27-58Z"/><path class="cls-85" d="M2473.69,3551.28c0,28.65-90.17,50.93-214.63,56.71-31.43,1.44-65,1.85-99.86,1-171.31-4-309-35.81-309-71.09a9.62,9.62,0,0,1,.24-2.54h-.24l.71-1.7a10.63,10.63,0,0,1,.64-1.65l39.51-103.28,47.71-124.63,66.82-174.67,51.14-133.71,63.62-166.25c7.95-20.82,22.7-33.76,38.65-33.76a28.35,28.35,0,0,1,6.38.7c13.46,2.94,25.47,15.06,32.38,33.09L2261.94,2997l51.23,135.47,67.6,178.17v0l48.54,128v0l.77.08,40.42,104C2472.24,3545.59,2473.69,3548.43,2473.69,3551.28Z"/><path class="cls-43" d="M2430.08,3438.78c-39,13-101.36,22.42-176,25.91-30.09,1.42-61.91,1.87-95.07,1.24-115.1-2.19-214.9-17-268-37.14l47.76-124.64c55.88,12.57,133.77,21,220.34,22.35,28,.42,55.27.06,81.25-1,54.66-2.17,102.86-7.41,140.84-14.86l48.12,128v0Z"/><path class="cls-43" d="M2313.75,3132.44c-29.77,3.22-62.49,5.4-97.22,6.39-18.6.55-37.76.73-57.33.54-56-.54-108.43-4.13-153.58-9.9l51.14-133.71c32,2.53,66.48,4,102.44,4.18q19.05.12,37.5-.26c22.54-.42,44.39-1.32,65.24-2.71Z"/></svg>