<svg xmlns="http://www.w3.org/2000/svg" xmlns:xlink="http://www.w3.org/1999/xlink" viewBox="0 0 3710 3710"><defs><style>.cls-1{fill:none;}.cls-2{isolation:isolate;}.cls-3{fill:#ffd8c7;}.cls-4{fill:#8ec5a5;}.cls-5{fill:url(#linear-gradient);}.cls-6{clip-path:url(#clip-path);}.cls-39,.cls-7{opacity:0.5;}.cls-10,.cls-39,.cls-7{mix-blend-mode:soft-light;}.cls-8{fill:#fcfdfe;}.cls-9{fill:url(#linear-gradient-2);}.cls-10,.cls-54{opacity:0.3;}.cls-11{clip-path:url(#clip-path-2);}.cls-12,.cls-32{fill:#97a6b7;}.cls-13{fill:#e6ebf4;}.cls-14{fill:#d8dee8;}.cls-15,.cls-39{fill:#fff;}.cls-16{fill:url(#linear-gradient-3);}.cls-17{fill:url(#linear-gradient-4);}.cls-18{fill:url(#linear-gradient-5);}.cls-19{fill:url(#linear-gradient-6);}.cls-20{fill:url(#linear-gradient-7);}.cls-21{fill:url(#linear-gradient-8);}.cls-22{fill:url(#linear-gradient-9);}.cls-23{fill:url(#linear-gradient-10);}.cls-24{fill:url(#linear-gradient-11);}.cls-25{fill:url(#linear-gradient-12);}.cls-26{fill:url(#linear-gradient-13);}.cls-27{fill:url(#linear-gradient-14);}.cls-28{fill:url(#linear-gradient-15);}.cls-29{fill:url(#linear-gradient-16);}.cls-30{fill:url(#linear-gradient-17);}.cls-31{fill:url(#linear-gradient-18);}.cls-32{opacity:0.1;}.cls-32,.cls-54,.cls-65{mix-blend-mode:multiply;}.cls-33{fill:#e4e9f2;}.cls-34{fill:url(#linear-gradient-19);}.cls-35{fill:url(#linear-gradient-20);}.cls-36{clip-path:url(#clip-path-3);}.cls-37{fill:url(#linear-gradient-21);}.cls-38{fill:url(#linear-gradient-22);}.cls-40{fill:url(#linear-gradient-23);}.cls-41{fill:url(#linear-gradient-24);}.cls-42{fill:url(#linear-gradient-25);}.cls-43{fill:url(#linear-gradient-26);}.cls-44{fill:url(#linear-gradient-27);}.cls-45{fill:url(#linear-gradient-28);}.cls-46{fill:url(#linear-gradient-29);}.cls-47{fill:url(#linear-gradient-30);}.cls-48{fill:url(#linear-gradient-31);}.cls-49{fill:url(#linear-gradient-32);}.cls-50{fill:url(#linear-gradient-33);}.cls-51{fill:url(#linear-gradient-34);}.cls-52{fill:url(#linear-gradient-35);}.cls-53{fill:url(#linear-gradient-36);}.cls-54{fill:url(#linear-gradient-37);}.cls-55{fill:url(#linear-gradient-38);}.cls-56{fill:url(#linear-gradient-39);}.cls-57{fill:url(#linear-gradient-40);}.cls-58{fill:url(#linear-gradient-41);}.cls-59{fill:url(#linear-gradient-42);}.cls-60{fill:url(#linear-gradient-43);}.cls-61{fill:url(#linear-gradient-44);}.cls-62{fill:url(#linear-gradient-45);}.cls-63{fill:url(#linear-gradient-46);}.cls-64{fill:url(#linear-gradient-47);}.cls-65{opacity:0.2;fill:url(#linear-gradient-48);}</style><linearGradient id="linear-gradient" x1="-907.87" y1="3009.64" x2="-62.32" y2="5231.4" gradientTransform="matrix(-0.43, 0.9, 0.9, 0.43, -2978.69, 1219.59)" gradientUnits="userSpaceOnUse"><stop offset="0" stop-color="#ffc444"/><stop offset="1" stop-color="#f36f56"/></linearGradient><clipPath id="clip-path"><path class="cls-1" d="M1742.91,2887.24l-176.48,245.32s-219-2.58-228.74-121.67-208.3-150.15-311.48-179.57c-279.93-79.83-127.64-381.26-477.43-514.21-93-35.36-284.07-69.74-323.94-181.22-45.42-127,65.93-165,20.41-252.8-71.16-137.3-47.09-307.23,104.46-356.53,149.57-48.66,327.24,146.66,393.49,490,74.95,238.76,118.61,258.59,233.66,285.63,80.6,18.94,311.64,16.92,345.86,157.35s85.54,257.31,189.36,247.54C1670.05,2692.16,1742.91,2887.24,1742.91,2887.24Z"/></clipPath><linearGradient id="linear-gradient-2" x1="3926.52" y1="2532.35" x2="5064.74" y2="4406.14" gradientTransform="matrix(-0.52, 0.85, 0.85, 0.52, 421.86, -3633.37)" gradientUnits="userSpaceOnUse"><stop offset="0" stop-color="#e38ddd"/><stop offset="1" stop-color="#9571f6"/></linearGradient><clipPath id="clip-path-2"><path class="cls-1" d="M1370.28,2857.19c-69.73-9.23-190-39.76-162.28-140.13,38.55-139.55-160.07-260.35-250.87-269.29-112.38-11.08-373.23-42.36-316.92-258.86,46.87-180.23,113-288.88-68.43-410.15s-233.23-297.82-113.42-470C584.44,1127.6,439.48,832.92,613,725.8,915.3,539.15,1181.53,1026,1103,1423.16S1370.28,2857.19,1370.28,2857.19Z"/></clipPath><linearGradient id="linear-gradient-3" x1="1525.78" y1="1045.56" x2="1582.7" y2="2149.05" gradientUnits="userSpaceOnUse"><stop offset="0.49" stop-color="#ebeff2"/><stop offset="1" stop-color="#fff"/></linearGradient><linearGradient id="linear-gradient-4" x1="1693.8" y1="1049.75" x2="1750.39" y2="2146.96" xlink:href="#linear-gradient-3"/><linearGradient id="linear-gradient-5" x1="2036.23" y1="1058.5" x2="2092.14" y2="2142.53" xlink:href="#linear-gradient-3"/><linearGradient id="linear-gradient-6" x1="2193.63" y1="1062.75" x2="2249.19" y2="2140" xlink:href="#linear-gradient-3"/><linearGradient id="linear-gradient-7" x1="2525.42" y1="1071.02" x2="2580.35" y2="2136.23" xlink:href="#linear-gradient-3"/><linearGradient id="linear-gradient-8" x1="2678.55" y1="1074.85" x2="2733.2" y2="2134.52" xlink:href="#linear-gradient-3"/><linearGradient id="linear-gradient-9" x1="1525.93" y1="1790.58" x2="1582.3" y2="2883.63" xlink:href="#linear-gradient-3"/><linearGradient id="linear-gradient-10" x1="1693.95" y1="1790.69" x2="1750" y2="2877.41" xlink:href="#linear-gradient-3"/><linearGradient id="linear-gradient-11" x1="2036.37" y1="1790.91" x2="2091.76" y2="2864.93" xlink:href="#linear-gradient-3"/><linearGradient id="linear-gradient-12" x1="2193.77" y1="1791.21" x2="2248.82" y2="2858.69" xlink:href="#linear-gradient-3"/><linearGradient id="linear-gradient-13" x1="2525.55" y1="1791.26" x2="2579.99" y2="2846.86" xlink:href="#linear-gradient-3"/><linearGradient id="linear-gradient-14" x1="2678.68" y1="1791.31" x2="2732.84" y2="2841.45" xlink:href="#linear-gradient-3"/><linearGradient id="linear-gradient-15" x1="1526.11" y1="2722.89" x2="1581.81" y2="3802.87" xlink:href="#linear-gradient-3"/><linearGradient id="linear-gradient-16" x1="1694.13" y1="2717.89" x2="1749.5" y2="3791.49" xlink:href="#linear-gradient-3"/><linearGradient id="linear-gradient-17" x1="2525.71" y1="2692.56" x2="2579.54" y2="3736.14" xlink:href="#linear-gradient-3"/><linearGradient id="linear-gradient-18" x1="2678.84" y1="2687.88" x2="2732.39" y2="3726.1" xlink:href="#linear-gradient-3"/><linearGradient id="linear-gradient-19" x1="1859.98" y1="3303.11" x2="2399.92" y2="3303.11" xlink:href="#linear-gradient-3"/><linearGradient id="linear-gradient-20" x1="1770.7" y1="3408.96" x2="2484.94" y2="3408.96" xlink:href="#linear-gradient-3"/><clipPath id="clip-path-3"><polygon class="cls-1" points="1490.39 625.18 1580.33 627.54 1663.84 852.4 2040.75 1137.98 2108.69 1710.87 2396.95 1895.66 2472.19 2377.15 2873.05 2362.62 2979.32 1955.17 2940.78 418.66 1245.64 105 880.77 271.34 935.97 663.58 1490.39 625.18"/></clipPath><linearGradient id="linear-gradient-21" x1="1019.25" y1="618.98" x2="1503.23" y2="618.98" gradientUnits="userSpaceOnUse"><stop offset="0" stop-color="#6165d7"/><stop offset="1" stop-color="#aa80f9"/></linearGradient><linearGradient id="linear-gradient-22" x1="1503.23" y1="1452.02" x2="2878.08" y2="1452.02" xlink:href="#linear-gradient-21"/><linearGradient id="linear-gradient-23" x1="2661.34" y1="1949.67" x2="3143.54" y2="1949.67" gradientUnits="userSpaceOnUse"><stop offset="0" stop-color="#ff9085"/><stop offset="1" stop-color="#fb6fbb"/></linearGradient><linearGradient id="linear-gradient-24" x1="876.76" y1="2486.28" x2="2945.42" y2="2486.28" xlink:href="#linear-gradient-23"/><linearGradient id="linear-gradient-25" x1="3042.38" y1="2390.77" x2="3410.72" y2="2390.77" gradientTransform="translate(152.37)" gradientUnits="userSpaceOnUse"><stop offset="0" stop-color="#aa80f9"/><stop offset="1" stop-color="#6165d7"/></linearGradient><linearGradient id="linear-gradient-26" x1="2900.64" y1="3735.78" x2="2947.82" y2="3777.75" gradientTransform="translate(49.52 206.94) rotate(-8.05)" gradientUnits="userSpaceOnUse"><stop offset="0" stop-color="#444b8c"/><stop offset="1" stop-color="#26264f"/></linearGradient><linearGradient id="linear-gradient-27" x1="2020.82" y1="3777.81" x2="2020.82" y2="3695.62" gradientTransform="translate(965.72 77.42) rotate(-8.05)" gradientUnits="userSpaceOnUse"><stop offset="0" stop-color="#ab316d"/><stop offset="1" stop-color="#792d3d"/></linearGradient><linearGradient id="linear-gradient-28" x1="2905.38" y1="3730.45" x2="2952.56" y2="3772.41" xlink:href="#linear-gradient-26"/><linearGradient id="linear-gradient-29" x1="2958.45" y1="3526.1" x2="3005.63" y2="3568.07" gradientTransform="translate(152.37)" xlink:href="#linear-gradient-26"/><linearGradient id="linear-gradient-30" x1="2078.58" y1="3568.16" x2="2078.58" y2="3485.96" gradientTransform="translate(1077.68)" xlink:href="#linear-gradient-27"/><linearGradient id="linear-gradient-31" x1="-724.28" y1="3605.85" x2="-1031.93" y2="2363.7" gradientTransform="matrix(-1, 0, 0, 1, 2428.11, 0)" xlink:href="#linear-gradient-26"/><linearGradient id="linear-gradient-32" x1="2923.98" y1="2634.04" x2="3280" y2="2230.96" xlink:href="#linear-gradient-25"/><linearGradient id="linear-gradient-33" x1="2963.19" y1="3520.77" x2="3010.37" y2="3562.74" gradientTransform="translate(152.37)" xlink:href="#linear-gradient-26"/><linearGradient id="linear-gradient-34" x1="3004.85" y1="2029.15" x2="3260.36" y2="2350.6" gradientTransform="translate(152.37)" xlink:href="#linear-gradient-27"/><linearGradient id="linear-gradient-35" x1="3102.68" y1="2027.62" x2="3171.8" y2="2267.92" gradientTransform="translate(152.37)" gradientUnits="userSpaceOnUse"><stop offset="0" stop-color="#311944"/><stop offset="1" stop-color="#893976"/></linearGradient><linearGradient id="linear-gradient-36" x1="3015.63" y1="2020.58" x2="3271.13" y2="2342.04" gradientTransform="translate(152.37)" xlink:href="#linear-gradient-27"/><linearGradient id="linear-gradient-37" x1="2937.78" y1="2646.23" x2="3293.81" y2="2243.15" xlink:href="#linear-gradient-25"/><linearGradient id="linear-gradient-38" x1="-2427.52" y1="2341.12" x2="-2609.69" y2="2635.81" gradientTransform="matrix(-1, 0.01, 0.01, 1, 365.99, -14.86)" xlink:href="#linear-gradient-26"/><linearGradient id="linear-gradient-39" x1="-2446.12" y1="2322.22" x2="-2402.77" y2="2232.3" gradientTransform="matrix(-1, 0.01, 0.01, 1, 365.99, -14.86)" xlink:href="#linear-gradient-25"/><linearGradient id="linear-gradient-40" x1="-2489.45" y1="2297.56" x2="-2340.88" y2="2297.56" gradientTransform="matrix(-1, 0, 0, 1, 429.37, 0)" xlink:href="#linear-gradient-26"/><linearGradient id="linear-gradient-41" x1="-2496.03" y1="2311.22" x2="-2348.17" y2="2311.22" gradientTransform="matrix(-1, 0, 0, 1, 429.37, 0)" xlink:href="#linear-gradient-26"/><linearGradient id="linear-gradient-42" x1="-2502.88" y1="2337.17" x2="-2419.34" y2="2337.17" gradientTransform="matrix(-1, 0, 0, 1, 429.37, 0)" xlink:href="#linear-gradient-26"/><linearGradient id="linear-gradient-43" x1="-2388.98" y1="2457.59" x2="-2432.69" y2="2528.3" gradientTransform="matrix(-1, 0.01, 0.01, 1, 365.99, -14.86)" xlink:href="#linear-gradient-27"/><linearGradient id="linear-gradient-44" x1="2770.33" y1="2498.32" x2="3126.36" y2="2095.25" xlink:href="#linear-gradient-25"/><linearGradient id="linear-gradient-45" x1="3056.09" y1="1967.22" x2="3226.23" y2="2181.28" gradientTransform="translate(152.37)" xlink:href="#linear-gradient"/><linearGradient id="linear-gradient-46" x1="3112.73" y1="1895.59" x2="3130.64" y2="2095.38" gradientTransform="translate(152.37)" xlink:href="#linear-gradient"/><linearGradient id="linear-gradient-47" x1="3093.43" y1="1939.93" x2="3109.02" y2="2113.94" gradientTransform="translate(152.37)" xlink:href="#linear-gradient"/><linearGradient id="linear-gradient-48" x1="3101.49" y1="1900.87" x2="3118.81" y2="2094.16" gradientTransform="translate(152.37)" xlink:href="#linear-gradient"/></defs><g class="cls-2"><g id="Illustration"><path class="cls-3" d="M2114.75,117.22C2579.31,125.43,3298.08,302.06,3505,756c72.26,158.54,67.37,391.61,57.59,857.74-2.88,137-7.65,336.7-41.13,584.48-69.57,514.7-116.92,865.1-296.14,1069.13C2776.2,3778.56,1154,3763.79,461.29,2843.4c-377.88-502.08-436-1216.3-90.49-1806.57C751.22,387,1492.81,106.24,2114.75,117.22Z"/><path class="cls-4" d="M2420.65,371.86l28.13,57.9a499.47,499.47,0,0,0-65.76,58l-53.15-36a31.61,31.61,0,0,0-44,8.82l-61.41,91.93a32.21,32.21,0,0,0,8.44,44.5l53.67,36.52a516.46,516.46,0,0,0-28.32,83.34l-64.87-4.44c-17.5-1.2-32.72,12.22-34,30l-8.06,111.22c-1.29,17.82,11.87,33.26,29.4,34.49l65.13,4.55a512.89,512.89,0,0,0,16.65,86.86l-59.09,29.32a32.86,32.86,0,0,0-14.82,43.47l48.1,101.18a31.69,31.69,0,0,0,42.77,15.07l59.26-29.41a507.66,507.66,0,0,0,57.21,67.57l-36.81,55.6a33.27,33.27,0,0,0,8.64,45.56l92.12,63.67a31.74,31.74,0,0,0,44.71-8.77l36.77-55.73a506,506,0,0,0,83.39,29.58l-4.38,67.11c-1.19,18.18,12.29,34,30.1,35.31l111.51,8.28c17.86,1.33,33.26-12.36,34.4-30.56l4.17-66.54a496.53,496.53,0,0,0,87.18-17l29.15,60c8,16.43,27.46,23.3,43.51,15.33l100.34-49.79c16.05-8,22.55-27.73,14.52-44.13l-29.09-59.44a500.12,500.12,0,0,0,67.17-59.18l54,36.73a32,32,0,0,0,45-8.83l61.55-94.17a33.28,33.28,0,0,0-9.35-45.6l-53.74-36.36A517.46,517.46,0,0,0,3239,962.15l64,4.48a32,32,0,0,0,34.18-30.37l6.22-112.47a33,33,0,0,0-30.5-34.71l-63.33-4.34a513.54,513.54,0,0,0-18.34-88.43l56.67-28.12a32.23,32.23,0,0,0,14.27-43.37l-50.09-100.19a32.33,32.33,0,0,0-43.2-14.69l-56.5,28a507.28,507.28,0,0,0-59.09-67.36l34.64-52.5a32.25,32.25,0,0,0-9.13-44.55l-92.26-61.43a31.87,31.87,0,0,0-44.29,8.88l-34.89,52.7a504.46,504.46,0,0,0-83.83-28.3l4-63.26a32,32,0,0,0-29.8-33.91l-109.66-7A31.87,31.87,0,0,0,2694.24,271l-4.14,63.45a495.78,495.78,0,0,0-86,17.65l-28.07-57.35a31.59,31.59,0,0,0-42.46-14.44l-98.36,48.81A32.12,32.12,0,0,0,2420.65,371.86Zm35,610.43c-78.17-162.53-11.86-357.76,147.69-436.93s353.33-13,433.26,148.65c80.4,162.64,15.18,360.1-146.13,440.14S2534.31,1145.8,2455.66,982.29Z"/><path class="cls-5" d="M1512.08,2707c90.82-8.55,151.82,55.51,188.71,108.78-3.29,8.13-3.11,13.64-4.6,22.54-13.45,80.36-36.32,111.77-62.08,188.88-5.55,16.59-36.65,60.36-50.5,77.42l-26.34,31.41s-209.86-6.09-219.58-125.17-208.3-150.15-311.48-179.57c-63.35-18.07-86.54-46.63-108.75-57-235.16-109.84-335.32-65.58-389.84-148.27-60.19-91.29,44.64-171.35-15.6-274.11-68-116-247.35-91.85-287.18-216.05-6.83-21.29-13.26-43.35-10.49-73,6.84-73.3,66.3-111.44,30.9-179.75-71.16-137.3-47.09-307.23,104.46-356.53,149.57-48.66,327.24,146.66,393.49,490,74.95,238.76,118.61,258.59,233.67,285.63,80.58,19,311.63,16.92,345.85,157.35S1408.26,2716.8,1512.08,2707Z"/><g class="cls-6"><g class="cls-7"><path class="cls-8" d="M1653,2989.17l-2.9,5.24c-29.1-15.74-58.23-32-86.58-48.31-209.93-120.88-400-258.47-564.82-409-139.69-127.52-263.31-266.06-367.41-411.77C547.61,2008.17,476,1885.73,418.47,1761.44c-40.43-87.38-73.54-174.77-98.39-259.73-4.33-14.81-7.94-30.26-11.43-45.2-4.66-19.91-9.47-40.5-16-59.72l5.37-2.28c6.65,19.48,11.5,40.21,16.18,60.25,3.48,14.87,7.07,30.24,11.36,44.9,24.77,84.7,57.78,171.82,98.1,258.95,57.38,124,128.82,246.14,212.35,363,103.89,145.42,227.26,283.68,366.68,411,164.58,150.24,354.31,287.61,563.92,408.3C1594.89,2957.22,1624,2973.45,1653,2989.17Z"/><path class="cls-8" d="M770.09,2293l-4.27,4.17c-160.79-177.45-570.77-230.49-574.89-231l1.06-5.83C196.13,2060.84,608,2114.12,770.09,2293Z"/><path class="cls-8" d="M1264.79,2745.51l-3.8,4.62c-123.83-106.36-117.22-437.18-117.14-440.5l5.68-.26C1149.44,2312.67,1142.89,2640.81,1264.79,2745.51Z"/><path class="cls-8" d="M1340.54,2799.21l-3,5.19c-92.46-52.68-249.26-71.36-441.5-52.61-9.67.94-9.67.94-10.59.44l2.94-5.23-1.47,2.61.45-2.91c.64,0,4.29-.34,8.52-.75C1089.24,2727.09,1247.15,2746,1340.54,2799.21Z"/><path class="cls-8" d="M1600.39,2959.64l-4.26,4.19c-79.46-86.94-49.73-269.93-49.42-271.76l5.6.61C1552,2694.49,1522.74,2874.69,1600.39,2959.64Z"/><path class="cls-8" d="M1650,2997.68c-95-11.9-198.26,4.3-315.76,49.54l-1.65-5.49c118.4-45.58,222.58-61.9,318.48-49.88Z"/><path class="cls-8" d="M458.71,1831.16l-4.47,3.93c-83.72-104.21-196.44-191.89-233.48-220.71-9-7-12.11-9.44-13-10.51l4.32-4.11c.73.81,5.85,4.79,12.34,9.84C261.53,1638.51,374.61,1726.48,458.71,1831.16Z"/><path class="cls-8" d="M569.14,2023.19l-5.31,2.47c-45.52-119.34,58.95-366.21,63.42-376.67l5.17,2.06C631.34,1653.59,524.46,1906.08,569.14,2023.19Z"/></g></g><path class="cls-9" d="M613,725.79C915.3,539.15,1181.53,1026,1103,1423.16c-22.78,115.21-19.89,186.73-.48,232.29,65.54,130.22,91.92,241.24,103.91,318.54,34.77,224.22-24.79,337.9,36,517.27,38.42,113.3,104.83,193.72,154,243.33a178.64,178.64,0,0,0-31,35.86l-48.73,74.16c-70-12.73-133.53-37.7-108.7-127.56,38.55-139.54-160.07-260.34-250.87-269.28-112.38-11.08-373.23-42.36-316.92-258.86,46.87-180.23,113-288.88-68.43-410.15s-233.23-297.82-113.42-470C584.44,1127.6,439.48,832.92,613,725.79Z"/><g class="cls-10"><g class="cls-11"><path class="cls-8" d="M1776.57,2908.94c-261.21-177.31-732.18-575.24-951.71-1248.08C678,1210.73,695.55,825.39,719.08,635.75l8.5,1C704.14,825.73,686.66,1209.66,833,1658.2c218.73,670.42,688.07,1067,948.37,1243.65Z"/><path class="cls-8" d="M728.22,1248.18a609.34,609.34,0,0,1,1.52-74c12.44-151.5,84-300.4,207-430.6l6.23,5.88C821.35,878.19,750.56,1025.3,738.28,1174.84a598.28,598.28,0,0,0-1.5,73Z"/><path class="cls-8" d="M1160.54,2312.56c-21.81-13.24-42.39-23.4-62.91-31.06-202-75.46-393.29-32.67-489.32-.45l-2.72-8.12c97.1-32.58,290.53-75.84,495,.55,21,7.85,42.08,18.24,64.36,31.76Z"/><path class="cls-8" d="M838.1,1699.85a428.27,428.27,0,0,0-27.9-38.51c-125.08-153.71-332.76-189.64-484.95-192.71l.17-8.57c154,3.11,364.28,39.62,491.42,195.87a434.85,434.85,0,0,1,28.46,39.29Z"/></g></g><polygon class="cls-12" points="2132.07 702.79 1613.39 698.32 1613.39 528.86 2132.07 511.71 2132.07 702.79"/><polygon class="cls-13" points="1553.87 975.64 937.4 1043.1 937.4 766.73 1553.87 706.22 1553.87 975.64"/><polygon class="cls-13" points="1358.3 3469.2 797.11 3397.14 797.11 1020.5 1358.3 978.76 1358.3 3469.2"/><polygon class="cls-12" points="1303.03 1041.6 775.85 1079.7 775.85 978.6 1303.03 937.64 1303.03 1041.6"/><polygon class="cls-12" points="1417.82 726.19 899.14 767.3 899.14 666.79 1417.82 621.6 1417.82 726.19"/><polygon class="cls-12" points="1303.03 1769.3 775.85 1787.41 775.85 1690.35 1303.03 1669.5 1303.03 1769.3"/><polygon class="cls-12" points="1303.03 2492.84 775.85 2491.07 775.85 2394.02 1303.03 2393.04 1303.03 2492.84"/><path class="cls-14" d="M2285.42,669.57c0,83.46-69.29,148.81-155.22,146-86.43-2.88-156.86-73.59-156.86-157.93s70.43-149.66,156.86-145.9C2216.13,515.44,2285.42,586.11,2285.42,669.57Z"/><polygon class="cls-15" points="2769.79 1020.92 1456.09 985.65 1456.09 715.39 2769.79 762.36 2769.79 1020.92"/><polygon class="cls-15" points="2876.08 3385.84 1341.3 3470.15 1341.3 978.28 2876.08 1019.86 2876.08 3385.84"/><polygon class="cls-14" points="2820.81 775.98 1405.07 726 1405.07 621.88 2820.81 676.71 2820.81 775.98"/><polygon class="cls-14" points="2810.97 1076.22 1303.03 1035.71 1303.03 931.23 2810.97 977.27 2810.97 1076.22"/><polygon class="cls-14" points="2876.08 1768.9 1303.03 1767.11 1303.03 1662.62 2876.08 1669.94 2876.08 1768.9"/><polygon class="cls-14" points="2914.34 2457.61 1303.03 2494.32 1303.03 2394.01 2914.34 2362.62 2914.34 2457.61"/><polygon class="cls-14" points="2914.34 3383.82 1303.03 3472.29 1303.03 3455.58 2914.34 3367.98 2914.34 3383.82"/><polygon class="cls-14" points="1804.71 1574.48 1443.33 1571.81 1443.33 1126.73 1804.71 1134.67 1804.71 1574.48"/><polygon class="cls-16" points="1617.64 1531.67 1464.59 1530.41 1464.59 1152.15 1617.64 1155.28 1617.64 1531.67"/><polygon class="cls-17" points="1783.45 1533.19 1634.65 1531.83 1634.65 1155.65 1783.45 1158.88 1783.45 1533.19"/><polygon class="cls-14" points="2302.13 1578.28 1953.51 1575.6 1953.51 1137.98 2302.13 1145.79 2302.13 1578.28"/><polygon class="cls-18" points="2123.57 1536.19 1979.02 1534.93 1979.02 1163.06 2123.57 1166.11 2123.57 1536.19"/><polygon class="cls-19" points="2276.62 1537.65 2140.57 1536.33 2140.57 1166.46 2276.62 1169.52 2276.62 1537.65"/><polygon class="cls-14" points="2786.8 1581.9 2446.68 1579.32 2446.68 1148.96 2786.8 1156.51 2786.8 1581.9"/><polygon class="cls-20" points="2608.24 1540.57 2472.19 1539.31 2472.19 1173.61 2608.24 1176.59 2608.24 1540.57"/><polygon class="cls-21" points="2761.29 1541.94 2625.24 1540.71 2625.24 1176.93 2761.29 1179.86 2761.29 1541.94"/><polygon class="cls-14" points="1804.71 2310.23 1443.33 2316.39 1443.33 1871.31 1804.71 1870.43 1804.71 2310.23"/><polygon class="cls-22" points="1617.64 2272.06 1464.59 2274.46 1464.59 1896.2 1617.64 1895.66 1617.64 2272.06"/><polygon class="cls-23" points="1783.45 2269.46 1634.65 2271.79 1634.65 1895.61 1783.45 1895.15 1783.45 2269.46"/><polygon class="cls-14" points="2302.13 2301.79 1953.51 2307.71 1953.51 1870.08 2302.13 1869.3 2302.13 2301.79"/><polygon class="cls-24" points="2123.57 2264.15 1979.02 2266.41 1979.02 1894.54 2123.57 1894.07 2123.57 2264.15"/><polygon class="cls-25" points="2276.62 2261.77 2140.57 2263.89 2140.57 1894.01 2276.62 1893.64 2276.62 2261.77"/><polygon class="cls-14" points="2786.8 2293.52 2446.68 2299.27 2446.68 1868.91 2786.8 1868.14 2786.8 2293.52"/><polygon class="cls-26" points="2608.24 2256.54 2472.19 2258.66 2472.19 1892.96 2608.24 1892.56 2608.24 2256.54"/><polygon class="cls-27" points="2761.29 2254.16 2625.24 2256.28 2625.24 1892.5 2761.29 1892.09 2761.29 2254.16"/><polygon class="cls-14" points="1804.71 3226.84 1443.33 3243.99 1443.33 2803.07 1804.71 2791.14 1804.71 3226.84"/><polygon class="cls-28" points="1617.64 3198.57 1464.59 3205.56 1464.59 2827.3 1617.64 2822.17 1617.64 3198.57"/><polygon class="cls-29" points="1783.45 3190.84 1634.65 3197.77 1634.65 2821.59 1783.45 2816.53 1783.45 3190.84"/><polygon class="cls-14" points="2786.8 3180.08 2446.68 3196.2 2446.68 2769.86 2786.8 2758.67 2786.8 3180.08"/><polygon class="cls-30" points="2608.24 3152.51 2472.19 3158.84 2472.19 2793.14 2608.24 2788.52 2608.24 3152.51"/><polygon class="cls-31" points="2761.29 3145.44 2625.24 3151.74 2625.24 2787.96 2761.29 2783.36 2761.29 3145.44"/><polygon class="cls-14" points="1876.98 918.96 1528.36 908.55 1528.36 759.2 1876.98 771.35 1876.98 918.96"/><polygon class="cls-14" points="2297.88 931.45 1953.51 921.21 1953.51 773.97 2297.88 785.92 2297.88 931.45"/><polygon class="cls-14" points="2710.27 943.58 2374.41 933.63 2374.41 788.47 2710.27 800.08 2710.27 943.58"/><path class="cls-32" d="M1341.3,1036.72s309.06,49.08,442.16,257.9c131.93,207,429.62,128.88,688.95,188.46,254.83,58.53,406.61,186.7,406.61,186.7L1341.3,1667Z"/><path class="cls-32" d="M1341.3,1771.34s309.06,41.61,442.16,247.22c131.93,203.8,429.62,118.51,688.95,171.82,254.83,52.39,406.61,176.89,406.61,176.89L1341.3,2401.61Z"/><path class="cls-32" d="M1341.3,2823.49s309.06,31.09,442.16,232.18C1915.39,3255,2213.08,3159.56,2472.41,3204c254.83,43.72,406.61,163.07,406.61,163.07L1341.3,3453.77Z"/><polygon class="cls-33" points="2302.13 3320.36 1953.51 3338.38 1953.51 2704.43 2302.13 2693.86 2302.13 3320.36"/><polygon class="cls-14" points="2357.4 2724.48 1902.49 2738.75 1902.49 2648.62 2357.4 2635.72 2357.4 2724.48"/><polygon class="cls-34" points="2399.91 3315.41 1859.98 3343.19 1859.98 3289.85 2399.91 3263.04 2399.91 3315.41"/><polygon class="cls-14" points="2450.93 3364.9 1800.46 3399.7 1800.46 3346.26 2450.93 3312.62 2450.93 3364.9"/><polygon class="cls-35" points="2484.95 3415.35 1770.69 3454.79 1770.69 3401.3 2484.95 3363.13 2484.95 3415.35"/><g class="cls-36"><polygon class="cls-37" points="1503.23 852.4 1019.25 852.4 1019.25 455.51 1503.23 385.55 1503.23 852.4"/><polygon class="cls-38" points="2878.08 621.89 2878.08 2544.19 1503.23 2544.19 1503.23 359.86 1553 369.32 1657.16 389.19 2843.81 615.38 2878.08 621.89"/><rect class="cls-15" x="1841.59" y="428.38" width="38.55" height="2115.8"/><rect class="cls-15" x="2411.23" y="526.89" width="38.55" height="2017.3"/><polygon class="cls-15" points="2878.08 1724.39 1508.93 1735.54 1509.3 1693.88 2878.08 1686.2 2878.08 1724.39"/><polygon class="cls-15" points="2878.08 2312.35 1503.23 2377.15 1503.6 2335.14 2878.08 2273.87 2878.08 2312.35"/><polygon class="cls-15" points="2878.08 1023.02 1515.71 970.74 1516.08 929.5 2878.08 985.17 2878.08 1023.02"/><rect class="cls-15" x="2843.81" y="578.29" width="34.26" height="1965.9"/><polygon class="cls-15" points="2858.24 629.21 1503.23 409.07 1503.23 349.47 2866.48 578.48 2858.24 629.21"/><path class="cls-39" d="M2878.08,2481.19v63H1694.64q-95.54-12.66-191.41-29V385.55c15.29-26.34,31.87,2.49,49.77-16.23l104.16,19.87c1.67,73.5,19.32,173.68,25.1,190.86,72.25,213.89,321,250.68,486.72,363.32,140.87,95.77,301.05,210.85,370.05,372.2,79.41,185.71,27.42,383.5,19,576-6.85,157.27,43,308.72,149,426,37.09,41.07,84.46,90.84,136.8,135.64C2855,2462.85,2866.43,2472.23,2878.08,2481.19Z"/><polygon class="cls-15" points="1503.23 348.97 997.84 428.38 997.84 488.35 1503.23 409.07 1503.23 348.97"/><polygon class="cls-15" points="1044.95 654.09 997.84 658.19 997.84 428.38 1044.95 428.38 1044.95 654.09"/></g><polygon class="cls-40" points="2709.43 2178.41 2869.81 1900.52 3143.54 2046.2 3095.45 1866.47 2821.75 1720.92 2661.34 1998.69 2709.43 2178.41"/><path class="cls-41" d="M2746,2676.89c-346,500.4-1026.35,648.25-1516.72,329.66a1018,1018,0,0,1-165.9-134.24,1004.47,1004.47,0,0,1-186.63-258.53l223,97.82a888.41,888.41,0,0,0,205.85,184.63C1736.32,3176.11,2334,3046.16,2637.83,2606.6c126.22-182.49,186.09-393.39,173.51-604.77a925.49,925.49,0,0,0-15.49-123.25c-6.84-35.12,16.73-70.37,52.68-78.8s70.5,13.2,77.34,48.32q8.61,44.69,13.49,89.44C2967,2195,2899.75,2454.45,2746,2676.89Z"/><path class="cls-42" d="M3413.16,2182.44c7.55,2.85,122.66,48.63,146.32,168.77,1.91,9.7,20.4,112.92-49.6,185.84-78.49,81.77-229.64,79.74-289.63,11.39-14-15.94-21.37-33.61-25.51-48.46h0l15.81-42c19.29-23.29,45.55-28.81,59.58-32.26,34.57-8.52,60.68,6.88,80.48-9.8,11-9.22,13.13-22.5,15.08-34.36,6.62-40.4-16.18-65.27-17.84-90.18-1.24-18.62-7.76-59.43,16.55-86C3379.79,2188.5,3401.11,2183.91,3413.16,2182.44Z"/><path class="cls-43" d="M3458,3521.36c1.34-7.39,25.23-14.09,37.06-4.18,5.87,4.92,9.91,14.89,6.51,19.39-1.23,1.64,3.83,4.52-1,4.58C3484.47,3541.34,3456.68,3528.71,3458,3521.36Z"/><path class="cls-44" d="M3483.05,3524.06l24.56-3.48c-11.38-13.7-9.27-57.33-9.27-57.33l-26.13,5.83s3,12,8,29.64C3482,3504.77,3482.76,3514.23,3483.05,3524.06Z"/><path class="cls-45" d="M3480.87,3521s29.57-6.81,32.77-1,5.68,21.58-13.08,21.07S3479.2,3526,3480.87,3521Z"/><path class="cls-46" d="M3121,3549.1c2.36-7.14,26.95-10.42,37.28,1,5.12,5.69,7.73,16.13,3.74,20.11-1.46,1.46,3.15,5-1.66,4.39C3144.36,3572.58,3118.61,3556.19,3121,3549.1Z"/><path class="cls-47" d="M3145.37,3555.27h24.81c-9.35-15.16-1.16-58.07-1.16-58.07l-26.68,2.11s1.27,12.28,3.81,30.48C3147,3536,3146.46,3545.5,3145.37,3555.27Z"/><path class="cls-48" d="M3081.08,2617.11a1147.65,1147.65,0,0,0-38.47,176c-30.13,219.2,33.91,226.19,21.95,469.09-3.81,77.53,67.17,256.32,73.43,260.27a77,77,0,0,0,9.82.38,97.4,97.4,0,0,0,25-4.17c11.25-1.93,51.79-111.75,42.39-177-6.65-46.21-4.72-95.8-.86-195,.62-16.07,41.74-312.68,41.74-312.68h0c12.51,109.79,26.89,203.07,39.36,275.4,40.07,232.37,170.34,373,177.14,375.27,1.34.54,13.57,5,23.56-1.61a16.22,16.22,0,0,0,6-6.71c3.49-2.73-1-232-40.76-404.54-57.68-250.45-32.56-309-50.83-420.91C3394.7,2554.13,3081.08,2617.11,3081.08,2617.11Z"/><path class="cls-49" d="M3314,2162.89c-38.29-1.13-122.22-10.32-188.43,20.15-1,.47,22.73,14.89,17.84,20.62a316.94,316.94,0,0,0-34.22,49.11c-10.23,18.23-19.46,39.48-28.77,71.16a611.17,611.17,0,0,0-22.71,124.14c-8.86,116.55-.08,170.31,7.9,206.88,34.62,17.78,123.83,49.6,230.13,33.79A359.19,359.19,0,0,0,3410.51,2651c-27.59-83.51-6-128.2,4.26-169.39,14.56-58.73,14.79-54.29,26.78-100.95,19.78-77,23-155.64,9.43-171.74C3414.34,2165.47,3348.32,2163.9,3314,2162.89Z"/><path class="cls-50" d="M3143.64,3552s30.24-2.61,32.58,3.65,2.61,22.15-15.9,19S3141.29,3556.66,3143.64,3552Z"/><path class="cls-51" d="M3206.27,2119c-11.86-20.06-6.57-43-5.38-47.92,5-20.72,6.84-23.86,10.69-28.25l5.44-5.75.69-.5c3.79-2.6,17.91-6.83,21-7,9.74-.49,29.56,34.43,40.91,88.25.92,1.92,1.83,3.87,2.73,5.83q6.21,13.45,11.16,26.55a16,16,0,0,0,13.36,10.27c56.84,5.47,65.06,12.63,65.33,16.85.62,9.39-36.88,20.24-65.08,24.37-61.51,9-124.74-7.22-124.45-18.69.11-4.45,9.85-10.11,49-16.13A15.9,15.9,0,0,0,3244.9,2149c-.48-3.38-1-6.77-1.43-10.15C3239.23,2137.87,3215,2133.76,3206.27,2119Z"/><path class="cls-52" d="M3205.36,2032.23c4.44,16.43,5.41,26.78,10.11,28.55a28.54,28.54,0,0,1,7.69,4.91,8.83,8.83,0,0,1,1.45,1.7c6.37,9.4-6.86,26-2.44,29.78,3.2,2.75,13.2-4.74,15.31-2.19,2,2.4-5.82,10.55-3.52,13.44,1.74,2.19,6.86-1.6,11.48,1.23,2.3,1.4,2.17,3,5.62,8.3a54.09,54.09,0,0,0,6.11,7.82c8.25,8.14,25.29,7.37,27.36,2.68.57-1.3-.41-2-.49-5.86a29.76,29.76,0,0,1,1.22-8.06c1.85-6.42,8.83-12.51,15.39-20.52,12.13-14.81,13.75-25.12,14.15-28.56.14-1.22.19-2.13.22-2.79.68-13.16-4.05-31-12.42-40.46-14-15.91-32.29-1.71-54-15.39-25-15.78.26,13.34-11.14,13C3224.92,2019.41,3197.16,2001.85,3205.36,2032.23Z"/><path class="cls-53" d="M3227.05,2091.73c2.55-6.62,11-3.3,13,3.85s-3,16.46-10.11,16.84S3223.61,2100.63,3227.05,2091.73Z"/><path class="cls-54" d="M3298.33,2586.3c-38.21-10.38-61.77,35.65-94.62,28.87-45.25-9.35-61.38-109.25-65.75-136.32-15.78-97.75,13.64-133.91-12.83-176.41a91.89,91.89,0,0,0-27-27.53,385.12,385.12,0,0,0-17.64,49,611.9,611.9,0,0,0-22.71,124.14c-8.86,116.55-.07,170.31,7.9,206.88,34.62,17.78,123.83,49.6,230.13,33.79a358.1,358.1,0,0,0,106.51-33.6c-28.31-4.64-46.66-15.26-59.05-27.14C3325.79,2611.27,3320.42,2592.3,3298.33,2586.3Z"/><path class="cls-55" d="M3036.29,2487.2l-110.84-247.39a7.61,7.61,0,0,0-7.9-4.44l-193.81,24.44a7.61,7.61,0,0,0-5.89,10.89L2848.54,2538a7.61,7.61,0,0,0,8.66,4l172.56-42.67Z"/><path class="cls-15" d="M3005.79,2457.25,2916,2256.94a6.17,6.17,0,0,0-6.39-3.6l-156.93,19.79A6.16,6.16,0,0,0,2748,2282l105.81,216.43a6.17,6.17,0,0,0,7,3.28l139.73-34.55Z"/><path class="cls-56" d="M2883.5,2255.73l-7.11-16.06a5.56,5.56,0,0,0-5.74-3.27l-80.65,9.48a5.57,5.57,0,0,0-4.42,7.83l8,17.48a5.57,5.57,0,0,0,5.82,3.22l79.82-10.92A5.56,5.56,0,0,0,2883.5,2255.73Z"/><path class="cls-57" d="M2773.5,2309.89c.13,0,.25,0,.37,0L2916,2291.62a3.21,3.21,0,1,0-.82-6.36l-142.14,18.23a3.21,3.21,0,0,0,.44,6.4Z"/><path class="cls-58" d="M2780.8,2324.24l.4,0,141.43-19.62a3.21,3.21,0,1,0-.88-6.36l-141.43,19.62a3.21,3.21,0,0,0,.48,6.39Z"/><path class="cls-59" d="M2852,2346.81a4.28,4.28,0,0,0,.49,0l77.12-12.85a3.21,3.21,0,1,0-1.05-6.33l-77.13,12.85a3.21,3.21,0,0,0,.57,6.38Z"/><path class="cls-60" d="M2816.56,2472.59S2785,2451.1,2781.29,2436s-2.76-43.64-2.76-43.64l18.41,40.14s8.9-2.55,12.73-15.77,10.31-1.12,7.69,8.88S2816.56,2472.59,2816.56,2472.59Z"/><path class="cls-61" d="M3125.61,2183c-33.09,5-96.17,32.8-129.94,77.38-62.46,82.48-38.59,169.11-90.91,200-15,8.82-41.23,16-88.65-.78l-18.18,9.66s-22.2,112.92,114.92,117.14,205.43-166.23,205.43-166.23l64.35-208.62Z"/><path class="cls-62" d="M3322.09,2017.94a50.27,50.27,0,0,0-5.23-8c-7.82-9.85-17.57-15.75-28.67-21.28-18.59-9.25-38.76-11.64-57.6-1.19-13.29,7.37-23.78,21.42-30.94,34.55a21.09,21.09,0,0,0-.32,19.54c11.6,23,44.12,78.34,85.34,71.12,15.59-2.73,30.22-12.51,36.45-27.18C3329.85,2064.94,3332.87,2038.36,3322.09,2017.94Z"/><path class="cls-63" d="M3311,2062.64c-6.68,32.12-13.36,37.39-26.55,35.93a8.91,8.91,0,0,1-4.2-1.41.14.14,0,0,1-.08,0,7.29,7.29,0,0,1-2.57-3.17c-.05-.09-.09-.13-.09-.17-3.51-8.14.39-27,4.07-61.21,5-46.43-44.07-48.23-44.07-48.23a36.53,36.53,0,0,1,2.35-5.14,8.13,8.13,0,0,1,1.85-1.58,10.34,10.34,0,0,1,3-1.33c13.92-4.2,32,1.5,43.86,8.87C3313.71,2000.79,3316.24,2037.5,3311,2062.64Z"/><path class="cls-64" d="M3206,2011.62s-15.42,3.09-12.75,20.76c2.16,14.21,32,82.72,84.19,83s42.22-27.21,42.22-27.21-14.51,24-43.69,17.31-44.88-21.69-63.44-54.52C3212.49,2050.94,3197.92,2022,3206,2011.62Z"/><path class="cls-65" d="M3288.32,2033.64c-.35,14.39-6.51,63.52-8.1,63.52a.14.14,0,0,1-.08,0,30.77,30.77,0,0,1-2.57-3.17c-.05-.09-.09-.13-.09-.17-3.51-8.14.39-27,4.07-61.21,5-46.43-44.07-48.23-44.07-48.23a36.53,36.53,0,0,1,2.35-5.14,8.13,8.13,0,0,1,1.85-1.58c9.46,1.54,32.42,6.51,39.14,19.44C3289.39,2013.47,3288.7,2019,3288.32,2033.64Z"/></g></g></svg>