<svg xmlns="http://www.w3.org/2000/svg" xmlns:xlink="http://www.w3.org/1999/xlink" viewBox="0 0 3710 3710"><defs><style>.cls-1{fill:url(#linear-gradient);}.cls-2,.cls-34{fill:#d8dee8;}.cls-3{fill:url(#linear-gradient-2);}.cls-4{fill:url(#linear-gradient-3);}.cls-5{isolation:isolate;}.cls-6{fill:#ffd8c7;}.cls-7,.cls-86{mix-blend-mode:soft-light;}.cls-8{clip-path:url(#clip-path);}.cls-9{fill:#fcfdfe;}.cls-10{clip-path:url(#clip-path-2);}.cls-11{clip-path:url(#clip-path-3);}.cls-12{clip-path:url(#clip-path-4);}.cls-13{fill:url(#linear-gradient-7);}.cls-14{fill:url(#linear-gradient-8);}.cls-15{fill:url(#linear-gradient-9);}.cls-16{fill:url(#linear-gradient-10);}.cls-17,.cls-85,.cls-86{fill:#fff;}.cls-18{fill:#e6ebf4;}.cls-19{fill:url(#linear-gradient-11);}.cls-20{fill:url(#linear-gradient-12);}.cls-21{fill:url(#linear-gradient-13);}.cls-22{fill:url(#linear-gradient-14);}.cls-23{fill:url(#linear-gradient-15);}.cls-24{fill:url(#linear-gradient-16);}.cls-25{fill:url(#linear-gradient-17);}.cls-26{fill:#97a6b7;}.cls-27{fill:url(#linear-gradient-18);}.cls-28{fill:url(#linear-gradient-19);}.cls-29{fill:url(#linear-gradient-20);}.cls-30{fill:url(#linear-gradient-21);}.cls-31{fill:url(#linear-gradient-22);}.cls-32{fill:url(#linear-gradient-23);}.cls-33{fill:url(#linear-gradient-24);}.cls-34,.cls-45,.cls-48,.cls-65,.cls-82,.cls-88,.cls-92,.cls-94,.cls-95{mix-blend-mode:multiply;}.cls-35{fill:url(#linear-gradient-25);}.cls-36{fill:url(#linear-gradient-26);}.cls-37{fill:url(#linear-gradient-27);}.cls-38{fill:url(#linear-gradient-28);}.cls-39{fill:url(#linear-gradient-29);}.cls-40{fill:url(#linear-gradient-30);}.cls-41{fill:url(#linear-gradient-31);}.cls-42{fill:url(#linear-gradient-32);}.cls-43{fill:url(#linear-gradient-33);}.cls-44{fill:url(#linear-gradient-34);}.cls-45,.cls-48,.cls-92,.cls-93,.cls-94,.cls-95{opacity:0.3;}.cls-45{fill:url(#linear-gradient-35);}.cls-46{fill:url(#linear-gradient-36);}.cls-47{fill:url(#linear-gradient-37);}.cls-48{fill:url(#linear-gradient-38);}.cls-49{fill:url(#linear-gradient-39);}.cls-50{fill:url(#linear-gradient-40);}.cls-51{fill:url(#linear-gradient-41);}.cls-52{fill:url(#linear-gradient-42);}.cls-53{fill:url(#linear-gradient-43);}.cls-54{fill:url(#linear-gradient-44);}.cls-55{fill:url(#linear-gradient-45);}.cls-56{fill:url(#linear-gradient-46);}.cls-57{fill:url(#linear-gradient-47);}.cls-58{fill:url(#linear-gradient-48);}.cls-59{fill:url(#linear-gradient-49);}.cls-60{fill:url(#linear-gradient-50);}.cls-61{fill:url(#linear-gradient-51);}.cls-62{fill:#26264f;}.cls-63{fill:url(#linear-gradient-52);}.cls-64{fill:url(#linear-gradient-53);}.cls-65,.cls-82,.cls-86{opacity:0.4;}.cls-65{fill:url(#linear-gradient-54);}.cls-66{fill:url(#linear-gradient-55);}.cls-67{fill:url(#linear-gradient-56);}.cls-68{fill:url(#linear-gradient-57);}.cls-69{fill:url(#linear-gradient-58);}.cls-70{fill:url(#linear-gradient-59);}.cls-71{fill:url(#linear-gradient-60);}.cls-72{fill:url(#linear-gradient-61);}.cls-73{fill:url(#linear-gradient-62);}.cls-74{fill:url(#linear-gradient-63);}.cls-75{fill:url(#linear-gradient-64);}.cls-76{fill:url(#linear-gradient-65);}.cls-77{fill:url(#linear-gradient-66);}.cls-78{fill:url(#linear-gradient-67);}.cls-79{fill:url(#linear-gradient-68);}.cls-80{fill:url(#linear-gradient-69);}.cls-81,.cls-85{opacity:0.8;}.cls-83{fill:url(#linear-gradient-70);}.cls-84{fill:url(#linear-gradient-71);}.cls-87{fill:url(#linear-gradient-72);}.cls-88{opacity:0.5;fill:url(#linear-gradient-73);}.cls-89{fill:url(#linear-gradient-74);}.cls-90{fill:url(#linear-gradient-75);}.cls-91{fill:url(#linear-gradient-76);}.cls-92{fill:url(#linear-gradient-77);}.cls-93{fill:url(#linear-gradient-78);}.cls-94{fill:url(#linear-gradient-79);}.cls-95{fill:url(#linear-gradient-80);}.cls-96{fill:url(#linear-gradient-81);}.cls-97{fill:url(#linear-gradient-82);}</style><linearGradient id="linear-gradient" x1="2568.81" y1="625.42" x2="3121.98" y2="4161.81" gradientUnits="userSpaceOnUse"><stop offset="0" stop-color="#ffc444"/><stop offset="0.31" stop-color="#fba94a"/><stop offset="1" stop-color="#f36f56"/></linearGradient><linearGradient id="linear-gradient-2" x1="475.41" y1="1910.54" x2="798.6" y2="3976.62" gradientUnits="userSpaceOnUse"><stop offset="0" stop-color="#e38ddd"/><stop offset="1" stop-color="#9571f6"/></linearGradient><linearGradient id="linear-gradient-3" x1="343.05" y1="2376.14" x2="550.71" y2="3703.68" gradientUnits="userSpaceOnUse"><stop offset="0" stop-color="#ff9085"/><stop offset="1" stop-color="#fb6fbb"/></linearGradient><clipPath id="clip-path"><path class="cls-1" d="M2526.37,2477.77c-20.52,2.54-67.38-10-78.25-18.31-72.34-55.28-214.49-150-233-244.43-3.15-16.13,64.06-49.17,70.26-66.32,37.74-31.46,52.78-40,74-87.58,62.54-140.34-204.86-304.77,20.91-444.92,165.36-102.65,333.25-79.81,242-354.07s-.88-840.13,344.15-721.28c198,68.21,87.38,349.91,219.56,502.64,125.6,145.13,90.33,300.33-60.76,445.75s-36.86,197.89,55.26,342.83c110.66,174.1-172.95,283-308.17,322.16C2763.42,2185.74,2507.4,2339.43,2526.37,2477.77Z"/></clipPath><clipPath id="clip-path-2"><path class="cls-2" d="M2529.37,2615.32c-12.51-4.79-35.51-26.24-39.2-34.3-24.55-53.67-77-151.15-58.85-210.82,3.11-10.19,51.63-8.62,60.4-16.55,31.18-6.51,42.4-6.83,69-27.58,78.53-61.26-24.39-236.78,147.47-248.21,125.89-8.36,215,55.84,246.31-128.88s255.38-481,416.6-307.88c92.52,99.33-56.58,226.82-27.47,354.47,27.67,121.3-39.78,199.35-170.53,236.54s-81.36,102-72.8,213c10.29,133.32-185.16,109.27-274.45,90.47C2754,2520.43,2560.65,2530.39,2529.37,2615.32Z"/></clipPath><clipPath id="clip-path-3"><path class="cls-3" d="M559.91,2965.4c10.6,4.71,37.82,5.61,45,2.92,47.85-17.91,139.62-45.61,164.93-93.33,4.32-8.15-26.4-36.84-26.93-47.06-15.14-23-21.83-30.1-25.46-59.08-10.73-85.56,159.67-130.31,61.25-242.35-72.1-82.07-166-97.15-72.3-229.58s137.32-451.06-67.34-443.43c-117.45,4.38-103.92,173.69-199.79,234.19-91.09,57.49-97.43,146.58-40,249.29s-12.44,112.28-85.52,175.12c-87.79,75.47,46.78,180.17,113,223.21C480.17,2770,592.63,2894.2,559.91,2965.4Z"/></clipPath><clipPath id="clip-path-4"><path class="cls-4" d="M535.89,3038.79c7.5-.54,23.35-8.31,26.64-12,21.93-24.82,66-68.62,66-103.63,0-6-26.33-13-29.74-18.73-15.69-8.57-21.66-10.57-32.57-26C534,2832.65,617.84,2755.15,527.4,2721c-66.25-25-124.56-5-111.29-109.34s-58.81-299.91-173.59-233.21c-65.87,38.28-6.56,131-43,194.85-34.61,60.63-11.1,113.54,53.06,154.81s27.08,68,4.41,126.25c-27.25,69.92,81.64,88.84,132.65,93.29C430.74,2951.25,532.93,2988.08,535.89,3038.79Z"/></clipPath><linearGradient id="linear-gradient-7" x1="2003.36" y1="-188.36" x2="2563.16" y2="1324.41" gradientUnits="userSpaceOnUse"><stop offset="0" stop-color="#6bffd4"/><stop offset="0.85" stop-color="#25767a"/></linearGradient><linearGradient id="linear-gradient-8" x1="680.12" y1="240.03" x2="1000" y2="1113.04" xlink:href="#linear-gradient-7"/><linearGradient id="linear-gradient-9" x1="962.5" y1="-276.42" x2="1688.89" y2="1256.35" xlink:href="#linear-gradient-7"/><linearGradient id="linear-gradient-10" x1="1834.2" y1="186.86" x2="2007.47" y2="1346.43" xlink:href="#linear-gradient-7"/><linearGradient id="linear-gradient-11" x1="2233.95" y1="613.92" x2="2500.52" y2="1820.14" xlink:href="#linear-gradient-7"/><linearGradient id="linear-gradient-12" x1="1270.18" y1="1037.59" x2="1610.05" y2="2017.23" xlink:href="#linear-gradient-7"/><linearGradient id="linear-gradient-13" x1="2190.96" y1="1943.7" x2="2430.88" y2="2590.13" xlink:href="#linear-gradient-7"/><linearGradient id="linear-gradient-14" x1="870.93" y1="1494.97" x2="1244.13" y2="2727.84" xlink:href="#linear-gradient-7"/><linearGradient id="linear-gradient-15" x1="997.86" y1="1187.85" x2="1437.69" y2="2454.04" xlink:href="#linear-gradient-7"/><linearGradient id="linear-gradient-16" x1="1491.56" y1="913.05" x2="1425.56" y2="2223.01" gradientUnits="userSpaceOnUse"><stop offset="0" stop-color="#6165d7"/><stop offset="1" stop-color="#aa80f9"/></linearGradient><linearGradient id="linear-gradient-17" x1="2362.53" y1="560.27" x2="2304.89" y2="1704.32" xlink:href="#linear-gradient-16"/><linearGradient id="linear-gradient-18" x1="820.61" y1="1779.67" x2="528.59" y2="2356.94" xlink:href="#linear-gradient-16"/><linearGradient id="linear-gradient-19" x1="1322.98" y1="2086" x2="1516.24" y2="2905.69" xlink:href="#linear-gradient-7"/><linearGradient id="linear-gradient-20" x1="1826.5" y1="1861.55" x2="1979.78" y2="2594.61" gradientUnits="userSpaceOnUse"><stop offset="0.26" stop-color="#6bffd4"/><stop offset="0.85" stop-color="#25767a"/></linearGradient><linearGradient id="linear-gradient-21" x1="1910.62" y1="1207.49" x2="1812.24" y2="3160.06" xlink:href="#linear-gradient-16"/><linearGradient id="linear-gradient-22" x1="819.14" y1="2455.91" x2="571.69" y2="2945.07" xlink:href="#linear-gradient-16"/><linearGradient id="linear-gradient-23" x1="137.49" y1="580.82" x2="1050.48" y2="1740.39" xlink:href="#linear-gradient-7"/><linearGradient id="linear-gradient-24" x1="453.23" y1="1213.88" x2="162.85" y2="1787.89" xlink:href="#linear-gradient-16"/><linearGradient id="linear-gradient-25" x1="1885.4" y1="-22.14" x2="1830.08" y2="1075.78" xlink:href="#linear-gradient-16"/><linearGradient id="linear-gradient-26" x1="590.76" y1="762.84" x2="126.82" y2="1679.94" xlink:href="#linear-gradient-16"/><linearGradient id="linear-gradient-27" x1="1124.52" y1="1008.34" x2="675.34" y2="1116.43" xlink:href="#linear-gradient-16"/><linearGradient id="linear-gradient-28" x1="1988.29" y1="1321.97" x2="2011.25" y2="1715.06" xlink:href="#linear-gradient-16"/><linearGradient id="linear-gradient-29" x1="2745.67" y1="2494.81" x2="2811.48" y2="2617.56" gradientUnits="userSpaceOnUse"><stop offset="0" stop-color="#ffc444"/><stop offset="0.46" stop-color="#ffc244"/><stop offset="0.63" stop-color="#febb46"/><stop offset="0.75" stop-color="#fcb048"/><stop offset="0.84" stop-color="#fa9f4c"/><stop offset="0.93" stop-color="#f78951"/><stop offset="1" stop-color="#f36f56"/></linearGradient><linearGradient id="linear-gradient-30" x1="1682.6" y1="3430.16" x2="1626.52" y2="3245.25" gradientTransform="matrix(-0.99, 0.12, 0.12, 0.99, 4409.11, -89.7)" gradientUnits="userSpaceOnUse"><stop offset="0" stop-color="#444b8c"/><stop offset="1" stop-color="#26264f"/></linearGradient><linearGradient id="linear-gradient-31" x1="1634.26" y1="3394.16" x2="1634.26" y2="3097.08" gradientTransform="matrix(-0.99, 0.12, 0.12, 0.99, 4409.11, -89.7)" gradientUnits="userSpaceOnUse"><stop offset="0" stop-color="#ffc444"/><stop offset="1" stop-color="#f36f56"/></linearGradient><linearGradient id="linear-gradient-32" x1="1743.64" y1="3394.16" x2="1743.64" y2="3097.08" xlink:href="#linear-gradient-31"/><linearGradient id="linear-gradient-33" x1="1764.3" y1="3405.39" x2="1708.22" y2="3220.48" xlink:href="#linear-gradient-30"/><linearGradient id="linear-gradient-34" x1="1608.57" y1="2753.13" x2="1581.29" y2="3366.98" gradientTransform="matrix(-0.99, 0.12, 0.12, 0.99, 4409.11, -89.7)" gradientUnits="userSpaceOnUse"><stop offset="0" stop-color="#311944"/><stop offset="1" stop-color="#a03976"/></linearGradient><linearGradient id="linear-gradient-35" x1="1608.57" y1="2753.13" x2="1581.29" y2="3366.98" gradientTransform="matrix(-0.99, 0.12, 0.12, 0.99, 4409.11, -89.7)" xlink:href="#linear-gradient-3"/><linearGradient id="linear-gradient-36" x1="2024.48" y1="3014.27" x2="1524.29" y2="2991.53" xlink:href="#linear-gradient-34"/><linearGradient id="linear-gradient-37" x1="5286.68" y1="2444.69" x2="5590.39" y2="3011.17" gradientTransform="matrix(-1, 0, 0, 1, 8611.21, 0)" xlink:href="#linear-gradient-3"/><linearGradient id="linear-gradient-38" x1="864.51" y1="2211.64" x2="1141.53" y2="2781.3" gradientTransform="translate(1409.03 536.33) rotate(-16.77)" xlink:href="#linear-gradient-3"/><linearGradient id="linear-gradient-39" x1="-258.55" y1="1810.76" x2="-322.53" y2="1914.27" gradientTransform="matrix(-0.98, -0.19, -0.19, 0.98, 3121.17, 432.7)" xlink:href="#linear-gradient-29"/><linearGradient id="linear-gradient-40" x1="5585.2" y1="2284.64" x2="5888.91" y2="2851.12" gradientTransform="matrix(-1, 0, 0, 1, 8611.21, 0)" xlink:href="#linear-gradient-3"/><linearGradient id="linear-gradient-41" x1="1502.74" y1="1855.35" x2="1691.9" y2="2335.99" gradientTransform="matrix(0.98, 0.2, -0.2, 0.98, 2117.61, 73.01)" xlink:href="#linear-gradient-30"/><linearGradient id="linear-gradient-42" x1="-3306.46" y1="2669.13" x2="-3220.66" y2="2325.92" gradientTransform="translate(6113.78)" xlink:href="#linear-gradient-2"/><linearGradient id="linear-gradient-43" x1="-3546.77" y1="2788" x2="-3506.07" y2="2824.2" gradientTransform="translate(6010.94 206.94) rotate(-8.05)" xlink:href="#linear-gradient-30"/><linearGradient id="linear-gradient-44" x1="-4432.83" y1="2824.25" x2="-4432.83" y2="2753.35" gradientTransform="translate(6927.14 77.42) rotate(-8.05)" xlink:href="#linear-gradient-31"/><linearGradient id="linear-gradient-45" x1="-3542.68" y1="2783.4" x2="-3501.98" y2="2819.6" gradientTransform="translate(6010.94 206.94) rotate(-8.05)" xlink:href="#linear-gradient-30"/><linearGradient id="linear-gradient-46" x1="-3512.61" y1="3486.67" x2="-3471.91" y2="3522.87" gradientTransform="translate(6113.78)" xlink:href="#linear-gradient-30"/><linearGradient id="linear-gradient-47" x1="-4398.72" y1="3522.94" x2="-4398.72" y2="3452.04" gradientTransform="translate(7039.09)" xlink:href="#linear-gradient-31"/><linearGradient id="linear-gradient-48" x1="5752.49" y1="3555.46" x2="5487.08" y2="2483.87" gradientTransform="matrix(-1, 0, 0, 1, 8389.53, 0)" xlink:href="#linear-gradient-30"/><linearGradient id="linear-gradient-49" x1="6189.61" y1="2756.59" x2="5518.49" y2="2289.85" gradientTransform="matrix(-1, 0, 0, 1, 8611.21, 0)" xlink:href="#linear-gradient-2"/><linearGradient id="linear-gradient-50" x1="-3508.52" y1="3482.07" x2="-3467.82" y2="3518.27" gradientTransform="translate(6113.78)" xlink:href="#linear-gradient-30"/><linearGradient id="linear-gradient-51" x1="2679.28" y1="2204.37" x2="2876.76" y2="2452.83" gradientTransform="matrix(1, 0, 0, 1, 0, 0)" xlink:href="#linear-gradient-31"/><linearGradient id="linear-gradient-52" x1="-2089.84" y1="2045.23" x2="-1869.42" y2="2322.55" gradientTransform="translate(5269.41 769.82) rotate(15.68)" xlink:href="#linear-gradient-31"/><linearGradient id="linear-gradient-53" x1="5724.53" y1="2595.12" x2="5765.06" y2="2595.12" gradientTransform="matrix(-1, 0, 0, 1, 8611.21, 0)" xlink:href="#linear-gradient-16"/><linearGradient id="linear-gradient-54" x1="5753.6" y1="2658.04" x2="6059.02" y2="2658.04" gradientTransform="matrix(-1, 0, 0, 1, 8611.21, 0)" xlink:href="#linear-gradient-2"/><linearGradient id="linear-gradient-55" x1="6294.86" y1="2451.83" x2="6355.76" y2="2528.44" gradientTransform="matrix(-1, 0, 0, 1, 8611.21, 0)" xlink:href="#linear-gradient-31"/><linearGradient id="linear-gradient-56" x1="-3124.44" y1="2793.73" x2="-3765.82" y2="2347.68" gradientTransform="translate(6113.78)" xlink:href="#linear-gradient-2"/><linearGradient id="linear-gradient-57" x1="2954.84" y1="1581.99" x2="3207.73" y2="1988.57" gradientUnits="userSpaceOnUse"><stop offset="0" stop-color="#311944"/><stop offset="1" stop-color="#893976"/></linearGradient><linearGradient id="linear-gradient-58" x1="2964.26" y1="1574.45" x2="3217.15" y2="1981.03" xlink:href="#linear-gradient-3"/><linearGradient id="linear-gradient-59" x1="6467.08" y1="3145.67" x2="6514.96" y2="3098.46" gradientTransform="matrix(-1, 0, 0, 1, 6905.22, 0)" gradientUnits="userSpaceOnUse"><stop offset="0" stop-color="#fcb148"/><stop offset="0.05" stop-color="#fdba46"/><stop offset="0.14" stop-color="#ffc244"/><stop offset="0.32" stop-color="#ffc444"/><stop offset="0.48" stop-color="#fdb946"/><stop offset="0.78" stop-color="#f99c4d"/><stop offset="0.87" stop-color="#f8924f"/><stop offset="1" stop-color="#f8924f"/></linearGradient><linearGradient id="linear-gradient-60" x1="5611.88" y1="3465.2" x2="5822.81" y2="3257.24" xlink:href="#linear-gradient-59"/><linearGradient id="linear-gradient-61" x1="5643.23" y1="3277.65" x2="5850.96" y2="3277.65" gradientTransform="matrix(-1, 0, 0, 1, 6905.22, 0)" gradientUnits="userSpaceOnUse"><stop offset="0" stop-color="#444b8c"/><stop offset="1" stop-color="#3e4177"/></linearGradient><linearGradient id="linear-gradient-62" x1="5969.32" y1="3022.86" x2="5757.81" y2="3437.51" gradientTransform="matrix(-1, 0, 0, 1, 6905.22, 0)" gradientUnits="userSpaceOnUse"><stop offset="0" stop-color="#ebeff2"/><stop offset="0.99" stop-color="#b7c0ce"/></linearGradient><linearGradient id="linear-gradient-63" x1="6323.7" y1="3170.91" x2="6493.72" y2="3170.91" xlink:href="#linear-gradient-61"/><linearGradient id="linear-gradient-64" x1="6595.77" y1="2952.5" x2="6414.47" y2="3307.93" xlink:href="#linear-gradient-62"/><linearGradient id="linear-gradient-65" x1="4728.82" y1="3251.3" x2="4981.89" y2="3251.3" xlink:href="#linear-gradient-61"/><linearGradient id="linear-gradient-66" x1="5114.12" y1="2969.07" x2="4873.96" y2="3439.88" xlink:href="#linear-gradient-61"/><linearGradient id="linear-gradient-67" x1="4892.54" y1="3255.82" x2="5023.23" y2="3255.82" xlink:href="#linear-gradient-61"/><linearGradient id="linear-gradient-68" x1="5031.69" y1="3797.31" x2="3211.72" y2="6091.69" xlink:href="#linear-gradient-59"/><linearGradient id="linear-gradient-69" x1="5170.74" y1="3062.17" x2="5054.84" y2="3710.26" xlink:href="#linear-gradient-59"/><linearGradient id="linear-gradient-70" x1="4830.99" y1="3090.78" x2="5248.23" y2="3090.78" xlink:href="#linear-gradient-59"/><linearGradient id="linear-gradient-71" x1="4861.16" y1="3140.72" x2="5208.01" y2="3140.72" xlink:href="#linear-gradient-59"/><linearGradient id="linear-gradient-72" x1="917.97" y1="3135.33" x2="632.21" y2="3004.99" gradientTransform="matrix(1, 0, 0, 1, 0, 0)" xlink:href="#linear-gradient-59"/><linearGradient id="linear-gradient-73" x1="6030.08" y1="3407.45" x2="6577.55" y2="2867.68" xlink:href="#linear-gradient-59"/><linearGradient id="linear-gradient-74" x1="5040.18" y1="2727.59" x2="5959.89" y2="2727.59" xlink:href="#linear-gradient-61"/><linearGradient id="linear-gradient-75" x1="6125.26" y1="2719.82" x2="6429.8" y2="2719.82" xlink:href="#linear-gradient-61"/><linearGradient id="linear-gradient-76" x1="5908.16" y1="2746.46" x2="6210.63" y2="2746.46" xlink:href="#linear-gradient-61"/><linearGradient id="linear-gradient-77" x1="5241.09" y1="3035.92" x2="5678.82" y2="2604.37" xlink:href="#linear-gradient-61"/><linearGradient id="linear-gradient-78" x1="5915.01" y1="2881.17" x2="5929.44" y2="2866.95" xlink:href="#linear-gradient-61"/><linearGradient id="linear-gradient-79" x1="6065.46" y1="2894.09" x2="6194.98" y2="2766.39" xlink:href="#linear-gradient-61"/><linearGradient id="linear-gradient-80" x1="6230.15" y1="2811.01" x2="6359.43" y2="2683.56" xlink:href="#linear-gradient-61"/><linearGradient id="linear-gradient-81" x1="5965.47" y1="2882.18" x2="6146.32" y2="2703.88" xlink:href="#linear-gradient-59"/><linearGradient id="linear-gradient-82" x1="1333.62" y1="3009.64" x2="966.4" y2="2856.74" gradientTransform="matrix(1, 0, 0, 1, 0, 0)" xlink:href="#linear-gradient-59"/></defs><g class="cls-5"><g id="Illustration"><path class="cls-6" d="M3567.24,1460.25c-38.52-467-57.78-700.46-147.44-851.53-256.69-432.54-1003-535.4-1474.34-496-631,52.79-1352.91,409.47-1670.67,1098.12-288.61,625.5-155.53,1333.5,279.34,1796.65,797.19,849,2441.63,697.43,2843.33,140.33,160.32-222.34,171.87-577.46,188.85-1099.12C3594.48,1797.62,3578.56,1597.51,3567.24,1460.25Z"/><g class="cls-5"><g class="cls-7"><path class="cls-1" d="M2526.37,2477.77c-20.52,2.54-67.38-10-78.25-18.31-72.34-55.28-214.49-150-233-244.43-3.15-16.13,64.06-49.17,70.26-66.32,37.74-31.46,52.78-40,74-87.58,62.54-140.34-204.86-304.77,20.91-444.92,165.36-102.65,333.25-79.81,242-354.07s-.88-840.13,344.15-721.28c198,68.21,87.38,349.91,219.56,502.64,125.6,145.13,90.33,300.33-60.76,445.75s-36.86,197.89,55.26,342.83c110.66,174.1-172.95,283-308.17,322.16C2763.42,2185.74,2507.4,2339.43,2526.37,2477.77Z"/><g class="cls-8"><path class="cls-9" d="M2336.18,2344.62l-2.85-3.34c515.38-439,714.46-1136.16,532.54-1865l4.27-1.07c86.21,345.4,86.46,697.1.71,1017.09C2780.71,1828.76,2595.82,2123.47,2336.18,2344.62Z"/><path class="cls-9" d="M3234.78,1899.17c-184.78-12-470.15,59.84-636.14,160.2l-2.27-3.76c166.64-100.76,453.15-172.9,638.69-160.83Z"/><path class="cls-9" d="M2436.36,2257.29l-3.66-2.42c55.63-84.09,66.61-193.08,32.64-323.92-24.91-96-73-201.2-142.82-312.83l3.73-2.33c70.1,112,118.33,217.67,143.35,314C2503.9,2062,2492.72,2172.12,2436.36,2257.29Z"/><path class="cls-9" d="M2881.26,1446.46l-3.79-2.23c96.71-163.9,278.36-247.86,413.72-289.43l1.29,4.2C3157.87,1200.35,2977.25,1283.78,2881.26,1446.46Z"/><path class="cls-9" d="M2935.63,1014.24l-4.32.79C2893,804.09,2726.85,652.31,2631.23,580.6l2.64-3.52C2730,649.18,2897.05,801.83,2935.63,1014.24Z"/></g></g><g class="cls-7"><path class="cls-2" d="M2529.37,2615.32c-12.51-4.79-35.51-26.24-39.2-34.3-24.55-53.67-77-151.15-58.85-210.82,3.11-10.19,51.63-8.62,60.4-16.55,31.18-6.51,42.4-6.83,69-27.58,78.53-61.26-24.39-236.78,147.47-248.21,125.89-8.36,215,55.84,246.31-128.88s255.38-481,416.6-307.88c92.52,99.33-56.58,226.82-27.47,354.47,27.67,121.3-39.78,199.35-170.53,236.54s-81.36,102-72.8,213c10.29,133.32-185.16,109.27-274.45,90.47C2754,2520.43,2560.65,2530.39,2529.37,2615.32Z"/><g class="cls-10"><path class="cls-9" d="M2461.1,2481.21l-.61-2.78c428.59-94.2,754.85-432.47,872.74-904.88l2.76.69c-55.87,223.88-162.85,425.2-309.38,582.17C2872.57,2321.44,2677,2433.76,2461.1,2481.21Z"/><path class="cls-9" d="M3110.94,2500c-102.07-63.15-287.24-108.95-412.78-102.08l-.16-2.85c126-6.89,311.95,39.09,414.44,102.51Z"/><path class="cls-9" d="M2545,2461.76l-1.35-2.51c57.44-31.17,96.92-90.18,117.33-175.39,15-62.49,19.54-137.34,13.57-222.5l2.84-.19c6,85.44,1.4,160.58-13.64,223.35C2643.16,2370.55,2603.21,2430.19,2545,2461.76Z"/><path class="cls-9" d="M3046.55,2133.32l-1.49-2.43c105.25-64.32,234.77-57,324.88-39.59l-.54,2.79C3279.78,2076.75,3151,2069.48,3046.55,2133.32Z"/><path class="cls-9" d="M3209.3,1902.58l-2.71-.87c42.32-132.36-6.51-269.81-39.38-340l2.58-1.21C3202.84,1631.07,3251.92,1769.29,3209.3,1902.58Z"/></g></g></g><g class="cls-5"><g class="cls-7"><path class="cls-3" d="M559.91,2965.4c10.6,4.71,37.82,5.61,45,2.92,47.85-17.91,139.62-45.61,164.93-93.33,4.32-8.15-26.4-36.84-26.93-47.06-15.14-23-21.83-30.1-25.46-59.08-10.73-85.56,159.67-130.31,61.25-242.35-72.1-82.07-166-97.15-72.3-229.58s137.32-451.06-67.34-443.43c-117.45,4.38-103.92,173.69-199.79,234.19-91.09,57.49-97.43,146.58-40,249.29s-12.44,112.28-85.52,175.12c-87.79,75.47,46.78,180.17,113,223.21C480.17,2770,592.63,2894.2,559.91,2965.4Z"/><g class="cls-11"><path class="cls-9" d="M683.74,2924.88l2.07-1.34C480.53,2603.84,487.17,2197,703.58,1835.22l-2.12-1.27c-102.56,171.45-160,360.3-166.05,546.12C529,2575.42,580.32,2763.81,683.74,2924.88Z"/><path class="cls-9" d="M273.7,2539.27c101.2,23.64,242.75,108.72,315.55,189.66l1.83-1.65C518,2646,375.87,2560.61,274.26,2536.87Z"/><path class="cls-9" d="M644.16,2861.66l2.36-.71c-16.18-54.22-4.32-114.54,35.24-179.28,29-47.47,72-96.17,127.65-144.74l-1.62-1.86c-55.89,48.74-99,97.63-128.14,145.31C639.71,2745.74,627.77,2806.73,644.16,2861.66Z"/><path class="cls-9" d="M537.3,2353.73l2.4-.59c-25.25-103.77-109.13-178.45-175.05-222.83l-1.38,2.05C428.83,2176.49,512.24,2250.72,537.3,2353.73Z"/><path class="cls-9" d="M578.5,2112.74l2.19,1.13c54.94-107,168.89-161.5,231.92-184.44l-.84-2.31C748.39,1950.17,633.82,2005,578.5,2112.74Z"/></g></g><g class="cls-7"><path class="cls-4" d="M535.89,3038.79c7.5-.54,23.35-8.31,26.64-12,21.93-24.82,66-68.62,66-103.63,0-6-26.33-13-29.74-18.73-15.69-8.57-21.66-10.57-32.57-26C534,2832.65,617.84,2755.15,527.4,2721c-66.25-25-124.56-5-111.29-109.34s-58.81-299.91-173.59-233.21c-65.87,38.28-6.56,131-43,194.85-34.61,60.63-11.1,113.54,53.06,154.81s27.08,68,4.41,126.25c-27.25,69.92,81.64,88.84,132.65,93.29C430.74,2951.25,532.93,2988.08,535.89,3038.79Z"/><g class="cls-12"><path class="cls-9" d="M594.4,2977.89l.78-1.4c-214.83-120.4-334.95-355.22-321.31-628.13l-1.6-.08c-6.46,129.34,18.2,254.88,71.32,363.06C399.44,2825.06,486.17,2917.23,594.4,2977.89Z"/><path class="cls-9" d="M242.34,2882.14c65.1-17.29,172-11.73,238.31,12.41l.55-1.5c-66.57-24.24-173.9-29.82-239.27-12.46Z"/><path class="cls-9" d="M552.5,2953.77l1.14-1.13c-25.78-26.09-37.37-64.22-34.45-113.31,2.14-36,11.88-76.94,29-121.7l-1.5-.57c-17.13,44.91-26.91,86-29.06,122.18C514.65,2888.8,526.39,2927.33,552.5,2953.77Z"/><path class="cls-9" d="M336.65,2695.69l1.19-1.06c-46-51.69-116.79-68.88-168-74.19l-.17,1.59C220.61,2627.32,290.94,2644.38,336.65,2695.69Z"/><path class="cls-9" d="M286.83,2545.25l1.59,0c-1.17-78,47.45-143.85,76.53-176.17l-1.19-1.07C334.52,2400.49,285.65,2466.73,286.83,2545.25Z"/></g></g></g><polygon class="cls-2" points="330.11 3024.17 402.9 3019.47 402.9 3042.15 330.11 3024.17"/><path class="cls-13" d="M1942.7,605.41s-28.62-116.61,15.24-117.52c43.68-.91,46.52,20.77,46.52,20.77s25.54-126.79,61.39-87,35.73,67.23,35.73,67.23,73-184.56,109.26-106.25c36.17,78,32.46,121.44,32.46,121.44s72.91-122.69,95.88-60.85,30.24,64.08,30.24,64.08,82.93-227.78,136.35-138.41c53.15,88.91,23.46,144.36,23.46,144.36s53-68.38,62.88-18.9,72.29,43.51,29.51,126.06C2578.67,703.31,1942.7,605.41,1942.7,605.41Z"/><path class="cls-14" d="M404.41,620.19s-42.24-150.69,19.36-155c59.63-4.13,63.75,23.57,63.75,23.57s32.39-164,79.85-114.41c46.17,48.26,46.47,82.67,46.47,82.67s88.52-230.51,132.72-135.18c43,92.69,39,144.77,39,144.77s82-148.33,107.76-76.68c25.28,70.4,33.19,72.71,33.19,72.71S1013.07,200.58,1067.57,301c52.49,96.76,23.56,159,23.56,159s51.41-77.26,60.86-24c9.38,52.89,67.49,42.73,27.9,133.78C1139.33,663.19,404.41,620.19,404.41,620.19Z"/><path class="cls-15" d="M971.33,562.56S940,440.57,988,439.72c47.75-.85,50.86,21.82,50.86,21.82s27.92-132.49,67.1-90.79c39,41.55,39,70.36,39,70.36s79.71-192.71,119.34-110.78c39.5,81.64,35.45,127,35.45,127s79.6-128,104.67-63.35c25,64.51,33,67,33,67s90.5-237.72,148.77-144.24c58,93,25.58,150.81,25.58,150.81s57.82-71.27,68.56-19.58,78.81,45.6,32.18,131.68C1665.69,666.12,971.33,562.56,971.33,562.56Z"/><path class="cls-16" d="M1531.89,587.29s-29.74-118.89,15.82-119.77c45.38-.89,48.33,21.21,48.33,21.21s26.54-129.2,63.78-88.6,37.11,68.56,37.11,68.56,75.78-188,113.47-108.17c37.56,79.55,33.71,123.78,33.71,123.78s75.7-124.94,99.55-61.91,31.39,65.32,31.39,65.32,86.09-232,141.54-140.87c55.16,90.62,24.34,147.08,24.34,147.08s55-69.6,65.26-19.19,75,44.4,30.63,128.44C2192.24,687.57,1531.89,587.29,1531.89,587.29Z"/><polygon class="cls-17" points="2645.26 2977.02 1095.84 3084.59 1095.84 595.65 2645.26 662.03 2645.26 2977.02"/><polygon class="cls-18" points="1094.08 3145.47 402.9 3042.15 402.9 651.38 1097.42 587.14 1094.08 3145.47"/><polygon class="cls-2" points="2352.59 2795.09 2438.67 2789.7 2438.67 2534.32 2352.59 2538.61 2352.59 2795.09"/><polygon class="cls-2" points="2322.47 2540.03 2223.47 2544.62 2223.47 2802.64 2322.47 2796.89 2322.47 2540.03"/><polygon class="cls-2" points="2473.1 2532.92 2473.1 2787.93 2563.49 2782.31 2563.49 2528.46 2473.1 2532.92"/><polygon class="cls-2" points="1375.6 2853.22 1465.98 2847.65 1465.98 2580.38 1375.6 2584.81 1375.6 2853.22"/><polygon class="cls-2" points="1345.47 2586.39 1233.57 2591.68 1233.57 2861.84 1345.47 2855.2 1345.47 2586.39"/><polygon class="cls-2" points="1509.02 2578.57 1509.02 2845.37 1612.31 2839.23 1612.31 2573.68 1509.02 2578.57"/><polygon class="cls-2" points="652.53 2843.97 751.52 2850.2 751.52 2579.52 652.53 2575.17 652.53 2843.97"/><polygon class="cls-2" points="613.79 2573.7 501.89 2568.72 501.89 2834.75 613.79 2841.84 613.79 2573.7"/><polygon class="cls-2" points="790.26 2581.38 790.26 2852.84 910.77 2859.55 910.77 2586.01 790.26 2581.38"/><polygon class="cls-2" points="652.53 2175.09 751.52 2176.64 751.52 1905.95 652.53 1906.29 652.53 2175.09"/><polygon class="cls-2" points="613.79 1906.47 501.89 1906.73 501.89 2172.77 613.79 2174.61 613.79 1906.47"/><polygon class="cls-2" points="889.25 1070.62 988.24 1064.21 988.24 789.23 889.25 797.64 889.25 1070.62"/><polygon class="cls-2" points="846.21 800.74 730 809.81 730 1079.94 846.21 1073.05 846.21 800.74"/><polygon class="cls-2" points="2352.59 2148.96 2438.67 2146.34 2438.67 1886.04 2352.59 1887.55 2352.59 2148.96"/><polygon class="cls-2" points="2322.47 1888.01 2223.47 1889.62 2223.47 2152.61 2322.47 2149.8 2322.47 1888.01"/><polygon class="cls-2" points="2473.1 1885.59 2473.1 2145.51 2563.49 2142.79 2563.49 1884.05 2473.1 1885.59"/><polygon class="cls-2" points="2352.59 1749.44 2438.67 1748.53 2438.67 1488.24 2352.59 1488.03 2352.59 1749.44"/><polygon class="cls-2" points="2322.47 1487.9 2223.47 1487.69 2223.47 1750.68 2322.47 1749.7 2322.47 1487.9"/><polygon class="cls-2" points="2473.1 1488.37 2473.1 1748.28 2563.49 1747.36 2563.49 1488.62 2473.1 1488.37"/><polygon class="cls-2" points="1444.46 1073.82 1539.15 1075.93 1539.15 804.4 1444.46 801.07 1444.46 1073.82"/><polygon class="cls-2" points="1410.03 799.96 1306.73 796.44 1306.73 1070.9 1410.03 1073.12 1410.03 799.96"/><polygon class="cls-2" points="1569.27 805.5 1569.27 1076.63 1681.18 1078.97 1681.18 809.19 1569.27 805.5"/><polygon class="cls-2" points="1375.6 2177.03 1465.98 2174.33 1465.98 1901.92 1375.6 1903.46 1375.6 2177.03"/><polygon class="cls-2" points="1345.47 1904.01 1233.57 1905.87 1233.57 2181.23 1345.47 2178 1345.47 1904.01"/><polygon class="cls-2" points="1509.02 1901.29 1509.02 2173.23 1612.31 2170.26 1612.31 1899.61 1509.02 1901.29"/><path class="cls-19" d="M2005.41,1168.09s-28.46-115.51,15.14-117.58c43.42-2,46.25,19.48,46.25,19.48s25.39-127.09,61-88.35,35.52,66.09,35.52,66.09S2235.89,861.79,2272,938.91c36,76.85,32.28,120.23,32.28,120.23s72.49-124.26,95.32-63.2,30.07,63.1,30.07,63.1,82.45-229.31,135.57-141.61c52.84,87.25,23.32,143.32,23.32,143.32s52.72-69.57,62.52-20.5,71.88,41.49,29.35,124.92C2637.69,1249,2005.41,1168.09,2005.41,1168.09Z"/><path class="cls-20" d="M1095.64,1652.43s-31-119.79,16.47-123c47.21-3.17,50.29,19.23,50.29,19.23s27.61-133.12,66.35-93.56,38.61,68.07,38.61,68.07,78.82-195.52,118-116c39.06,79.26,35.06,124.56,35.06,124.56s78.73-131.19,103.52-68.1c24.74,62.94,32.65,65,32.65,65s89.5-240.82,147.14-150.69c57.34,89.64,25.31,148.74,25.31,148.74s57.19-73.7,67.82-22.82,78,41.52,31.83,129.41C1782.39,1721.63,1095.64,1652.43,1095.64,1652.43Z"/><path class="cls-21" d="M1965.55,2317s-28.56-114.18,15.2-118.62c43.58-4.41,46.42,17,46.42,17s25.49-128.71,61.26-91.83,35.66,64.29,35.66,64.29,72.81-190.22,109-114.91c36.09,75,32.4,118.71,32.4,118.71s72.75-128.42,95.67-68.49,30.18,61.58,30.18,61.58,82.76-234.19,136.07-149.21c53,84.55,23.4,142.32,23.4,142.32s52.92-72.56,62.75-23.93,72.14,37.67,29.45,123.56C2600.17,2363.78,1965.55,2317,1965.55,2317Z"/><path class="cls-22" d="M731.26,2361.84s-32-120.75,17-125.52c48.78-4.76,52,17.9,52,17.9S828.75,2118,868.77,2157s39.88,67.93,39.88,67.93,81.42-201.26,121.9-121.69c40.34,79.28,36.21,125.45,36.21,125.45s81.29-135.87,106.89-72.57,33.71,65,33.71,65,92.4-247.6,151.91-157.88c59.17,89.22,26.11,150.3,26.11,150.3s59-76.73,70-25.38,80.45,39.65,32.85,130.43C1440.43,2409.8,731.26,2361.84,731.26,2361.84Z"/><path class="cls-23" d="M722.46,1631.54s-9.23-130.65,32.42-111.42c42.33,19.55,43.49,40.48,43.49,40.48s36.12-266.5,80.5-195.47c45.2,72.36,27.36,132.9,27.36,132.9s96.23-149.36,106.16-85.66c10,64-.67,87.65-.67,87.65s44.07-60,79-38c35.37,22.19,25.88,52.08,25.88,52.08s55.67-170,146.64-114.38c94,57.45,60.34,136.84,60.34,136.84s91.38-95.68,111.06-51.36c19.82,44.67,19.79,69.72,19.79,69.72s35-77.93,65-39.51c30.29,38.85,79.07,76.21,10.61,117.89-67.06,40.83-593.43,34.39-593.43,34.39S723.26,1668.85,722.46,1631.54Z"/><polygon class="cls-24" points="1857.64 1754.3 1048.49 1762.22 1048.49 1599.76 1857.64 1597.79 1857.64 1754.3"/><polygon class="cls-25" points="2701.21 1309.55 1956.63 1300.93 1956.63 1145.14 2701.21 1159.24 2701.21 1309.55"/><polygon class="cls-26" points="1014.06 3189.81 325.43 3119.63 325.43 3024.95 1014.06 3089.99 1014.06 3189.81"/><polygon class="cls-27" points="1052.8 1763.8 682.66 1768.81 682.66 1609.28 1052.8 1600.15 1052.8 1763.8"/><polygon class="cls-18" points="2141.7 3011.75 1762.95 3038.2 1762.95 2566.58 2141.7 2548.46 2141.7 3011.75"/><path class="cls-28" d="M996.3,2352.22s-31.22-119.34,16.62-124c47.64-4.68,50.74,17.72,50.74,17.72s27.86-134.59,66.95-96.08,39,67.15,39,67.15,79.53-198.89,119.08-120.24c39.4,78.38,35.37,124,35.37,124s79.42-134.27,104.43-71.69,32.93,64.3,32.93,64.3,90.3-244.72,148.44-156c57.83,88.22,25.52,148.59,25.52,148.59s57.7-75.83,68.42-25.07,78.64,39.23,32.11,129C1689.13,2399.93,996.3,2352.22,996.3,2352.22Z"/><path class="cls-29" d="M1555.62,2331.92s-29.68-116.37,15.79-120.91c45.28-4.53,48.22,17.31,48.22,17.31s26.48-131.19,63.64-93.62,37,65.5,37,65.5,75.62-193.89,113.23-117.17c37.47,76.46,33.63,120.95,33.63,120.95s75.54-130.89,99.34-69.84,31.32,62.73,31.32,62.73,85.91-238.64,141.24-152.09c55,86.1,24.29,145,24.29,145s54.92-74,65.12-24.41,74.86,38.32,30.57,125.84C2214.55,2379.08,1555.62,2331.92,1555.62,2331.92Z"/><polygon class="cls-30" points="2701.21 2390.78 1005.46 2460.89 1005.46 2298.14 2701.21 2240.48 2701.21 2390.78"/><polygon class="cls-31" points="1005.46 2461.64 712.79 2452.04 712.79 2292.13 1005.46 2298.51 1005.46 2461.64"/><path class="cls-32" d="M609.11,1058c1.06-7.34,27.48-166.12-41-163.12-67.84,3-67.32,39-67.32,39S391,707.55,357.3,815.61c-33.51,107.55,0,155.08,0,155.08s-67.87-78.51-56.77-23.46,37.46,145,37.46,145Z"/><polygon class="cls-33" points="674.05 1191.82 325.43 1207.82 325.43 1052.07 674.05 1030.28 674.05 1191.82"/><polygon class="cls-34" points="401.89 725.41 1087.7 710.4 2645.26 769.03 2645.26 711.9 962.33 643.49 401.89 725.41"/><polygon class="cls-35" points="2701.21 727.72 1005.46 663.95 1005.46 500.82 2701.21 577.41 2701.21 727.72"/><polygon class="cls-36" points="1005.46 663.95 325.43 722.24 325.43 566.48 1005.46 500.82 1005.46 663.95"/><polygon class="cls-17" points="1956.63 3034.73 1943.72 3035.46 1943.72 2557.8 1956.63 2557.31 1956.63 3034.73"/><polygon class="cls-2" points="2692.61 3065.46 1014.06 3189.81 1014.06 3090.11 2692.61 2973.29 2692.61 3065.46"/><polygon class="cls-37" points="721.39 1191.82 674.05 1191.82 674.05 1030.28 721.39 1031.14 721.39 1191.82"/><rect class="cls-38" x="1956.63" y="1144.47" width="51.65" height="154.94"/><path class="cls-39" d="M2791.44,2563s0-17.94-10.19-28.57-18.15-30.56-17.93-19.71,3.32,24.58,3.32,24.58-12.41,3.77-3.33,17.06S2795.27,2581.52,2791.44,2563Z"/><path class="cls-40" d="M3185.74,3419.07c6.93,11,5.85,16.22,4.66,18.57-3.49,6.89-14.16,1.85-40,7.68a44.12,44.12,0,0,1-16.3,1.13c-6.42-.82-14.16-3.38-14-5.09.06-.62,1.14-1,1.56-1.12,7.1-2.31,51.12-21,51.12-21Z"/><path class="cls-41" d="M3186.56,3393.11l-1.34,26.46s-10.36,9.07-14.3-.22c-2.83-6.68-4.72-25.28-4.72-25.28Z"/><polygon class="cls-42" points="3055.9 3419.8 3070.01 3448.62 3085.69 3444.41 3079.09 3417.05 3055.9 3419.8"/><path class="cls-43" d="M3076.7,3464.61c6.76-10,13.74-9.86,14.47-16.3.58-5.06-3.08-10.81-7.9-12.64-6.76-2.57-14,3.3-15.65,4.63-11.13,9-6.61,20.81-17.31,27.25-2.16,1.3-5.63,2.8-9,6.74-1.45,1.67-5,5.82-3.84,8.29,1.39,2.86,8.48,2,15.22,1.21,8.09-1,12.13-1.44,15.77-4.28C3073.46,3475.58,3071.48,3472.3,3076.7,3464.61Z"/><path class="cls-44" d="M3206.83,2761.63a863.65,863.65,0,0,1-5.35,156.59c-5.87,46.43-10.84,54.78-11.23,86.58-.86,69.21,22.08,77.2,32.57,154.47,11.6,85.32-5.55,155.32-12.35,182a495.09,495.09,0,0,1-17.73,55.63c-7.29,7.5-19.52,5.87-32.4,4.34-11.11-77.33-23-150-34.1-227.34l-74.22-347Z"/><path class="cls-45" d="M3160.34,3401.28c-11.11-77.33-23-150-34.1-227.34l-74.22-347,154.81-65.28c.22,4,.34,7.92.51,11.88-69.06,70.79-79.38,123.2-75.76,158.06,4.39,42.27,29.29,61.35,29.85,123.13.41,44.17-12.15,53-8.86,92.62,4.24,51,28.51,77.89,41.62,106.49,12.67,27.64,19.68,67.69,4.53,126.74-2.13,6.15-4.16,11.66-6,16.39C3185.45,3404.44,3173.22,3402.81,3160.34,3401.28Z"/><path class="cls-46" d="M3117.76,2827.89c-33.54,69.08-50.9,122.7-60,155.68-5.56,20.12-10.37,41-9.68,67.79a209.45,209.45,0,0,0,16.63,75.85,403,403,0,0,1,26.62,75.05c22.87,92.85,7.36,173.43-6.13,220.14l-27.41,12.82a1564,1564,0,0,1-86.92-243.47c-15-56.22-26.53-100.33-31.32-157.18-5.05-60-4.38-155.52,35.29-272.92Z"/><path class="cls-47" d="M3053,2310.61c-59.1,15.26-103.85,29.76-121.62,62.85-18.77,34.95,17.51,57.07,32.85,129.06,23.48,110.21-37.12,157.14-9.39,267.77a290.63,290.63,0,0,0,34.9,82.08,305.91,305.91,0,0,0,96.24,44.36c62.55,16.22,91.51,1.37,173.68-.73,134.4-3.45,157.65,33.69,216.11,4.82,59.08-29.17,97.89-98,82.63-124.76-9.14-16-32.76-3.59-69.55-21.15-47.43-22.63-42.81-59.27-82.08-87.12-56.39-40-103.39,9-151.68-25.83-48.85-35.24-62.16-129.7-47.45-187.8,9.6-38,6.51-78.11,12.77-116.75a24.44,24.44,0,0,0-1.71-13.81c-9.28-21.14-49.45-22-79.79-22.4C3092.59,2300.62,3057.81,2309.35,3053,2310.61Z"/><path class="cls-48" d="M3465.2,2859.16c-19.55-10.8-12.42-46.62-41.39-62.92-26.88-15.13-44.87,9.06-83.35.67-49.35-10.77-50.67-57.31-98-68.28-34-7.88-42.29,14.12-90.05,19s-111.91-9.65-155.75-57a171,171,0,0,1-36.82-63.07c-9.35,42.31-19.91,83.34-5,142.72a290.63,290.63,0,0,0,34.9,82.08,305.91,305.91,0,0,0,96.24,44.36c62.55,16.22,91.51,1.37,173.68-.73,134.4-3.45,157.65,33.69,216.11,4.82,37.76-18.64,67.15-53.45,79.53-83.16C3505.56,2860.5,3479.38,2867,3465.2,2859.16Z"/><path class="cls-49" d="M3048.06,2219.45s-23.22,26.53-29.2,47.55,18.37,25.09,18.37,25.09l-4,13.2a29.83,29.83,0,0,1-24.89,20.9l-10.29,1.27s58.71,27.68,98,11.72l-9.5-3.23a29.84,29.84,0,0,1-20-32.07l.76-5.88S3093.48,2234.23,3048.06,2219.45Z"/><path class="cls-50" d="M2940.87,2361.83a166.54,166.54,0,0,0-40.93,44.69c-38.51,62.31-14.73,121.91-49.29,147.48-9.89,7.32-27.85,14.29-62.48,6l-12.08,8.15s-7.32,81.13,89.52,74S2998,2510,2998,2510Z"/><path class="cls-51" d="M3059.41,2251.15c3.29.12,6.47-3.69,8.55-2.2s1.21,7.56-1.33,11.54a15.31,15.31,0,0,1-6.66,5.63,40.37,40.37,0,0,1,5.14,16.82c1.08,16-8.76,27.62-13.1,34.57-19.58,31.37-1.59,86.81,21.89,116.53,19.08,24.16,30.22,16.69,41,35.85,21.07,37.3-18.18,70.82-10.68,118.52,11.39,72.53,119.68,106.65,124.18,108,1.77.54,3,.88,4.81,1.41,48.75,13.84,122.65,34.82,180.57.37,43.34-25.76,67.9-76.71,70.49-123.85.68-12.4,2.54-59.56-31-102.24-5.32-6.78-36.82-46.81-85.11-53-25.58-3.29-31.82,5.12-50.73-2.81-25.9-10.84-39.5-37.19-47.93-53.54-15.52-30.06-7.15-35.08-19.07-50.39-23.36-30-57.05-12.66-82.59-39.7-25.18-26.66-4.52-56.27-29.11-79.68-25.36-24.14-79.5-23.25-93.83.18C3032.68,2213.27,3049.32,2250.78,3059.41,2251.15Z"/><path class="cls-52" d="M2862,2327.5c6.51,2.46,105.81,41.95,126.22,145.59,1.65,8.38,17.61,97.42-42.78,160.33-67.72,70.54-198.11,68.79-249.86,9.82-12.07-13.75-18.44-29-22-41.8h0l13.64-36.23c16.64-20.09,39.29-24.85,51.39-27.83,29.83-7.35,52.35,5.94,69.44-8.45,9.45-8,11.33-19.41,13-29.64,5.72-34.85-13.95-56.31-15.38-77.8-1.08-16.07-6.7-51.27,14.27-74.23C2833.21,2332.73,2851.6,2328.77,2862,2327.5Z"/><path class="cls-53" d="M2900.69,3482.58c1.16-6.38,21.76-12.16,32-3.61,5.06,4.24,8.55,12.84,5.62,16.73-1.07,1.41,3.3,3.9-.88,3.94C2923.52,3499.81,2899.54,3488.92,2900.69,3482.58Z"/><path class="cls-54" d="M2922.29,3484.9l21.19-3c-9.82-11.82-8-49.46-8-49.46l-22.54,5s2.57,10.33,6.94,25.57C2921.37,3468.26,2922,3476.43,2922.29,3484.9Z"/><path class="cls-55" d="M2920.41,3482.29s25.51-5.88,28.27-.82,4.9,18.61-11.28,18.17S2919,3486.58,2920.41,3482.29Z"/><path class="cls-56" d="M2609.92,3506.5c2-6.15,23.25-9,32.16.9,4.42,4.91,6.67,13.92,3.22,17.35-1.25,1.26,2.73,4.33-1.42,3.79C2630.11,3526.76,2607.89,3512.62,2609.92,3506.5Z"/><path class="cls-57" d="M2631,3511.82h21.4c-8.06-13.07-1-50.09-1-50.09l-23,1.82s1.09,10.59,3.28,26.3C2632.4,3495.22,2631.92,3503.4,2631,3511.82Z"/><path class="cls-58" d="M2575.51,2702.48a990.55,990.55,0,0,0-33.18,151.88c-26,189.1,29.25,195.13,18.94,404.68-3.3,66.89,57.94,221.13,63.34,224.53a65.55,65.55,0,0,0,8.47.33,84.25,84.25,0,0,0,21.57-3.59c9.7-1.67,44.68-96.41,36.57-152.73-5.73-39.87-4.07-82.65-.75-168.22.54-13.87,36-269.75,36-269.75h0c10.79,94.71,23.2,175.19,34,237.58,34.56,200.47,147,321.8,152.81,323.75,1.16.46,11.7,4.29,20.32-1.39a14.06,14.06,0,0,0,5.15-5.79c3-2.36-.89-200.14-35.17-349-49.75-216.06-28.09-266.61-43.85-363.12C2846.07,2648.15,2575.51,2702.48,2575.51,2702.48Z"/><path class="cls-59" d="M2562.19,2735.12c29.88,15.34,106.83,42.82,198.55,29.17a309.07,309.07,0,0,0,96.87-31.53c.72-.36,1.44-.72,2.12-1.08-23.83-72-5.16-110.59,3.65-146.13,12.57-50.66,12.75-46.83,23.11-87.09,17.05-66.43,19.85-134.28,8.13-148.15-31.6-37.44-88.56-38.8-118.12-39.69-33-1-109-12.61-150.79,25-.72.65,7.84,5.23,3.62,10.18a274.55,274.55,0,0,0-29.52,42.38c-8.82,15.73-16.81,34.07-24.83,61.37a529.19,529.19,0,0,0-19.6,107.12c-.43,5.91-.82,11.65-1.18,17.16C2548.65,2662.61,2555.7,2705.46,2562.19,2735.12Z"/><path class="cls-60" d="M2629.48,3509s26.09-2.25,28.11,3.14,2.25,19.12-13.71,16.42S2627.46,3513,2629.48,3509Z"/><path class="cls-61" d="M2778.9,2316.12a292.61,292.61,0,0,0-3.5-29.75q-.43-2.76-.92-5.47c3.13-47.35-5.19-81-13.39-82.85-2.57-.58-15.29-.36-19,.92l-.69.25-5.86,3.51c-4.22,2.74-6.49,4.92-15.47,21-2.14,3.84-11.87,21.63-6.7,41.05,3.81,14.31,23,23.37,26.27,25.14q-1.5,11.18-3,22.35c-44.91-6.49-56.58-3.93-57.84.18-2.52,8.18,33,20,77.05,27.46a121.51,121.51,0,0,0,39.46.27c24.74-3.91,38.58-6.16,39.95-12.65C2836,2323.72,2825.86,2317.58,2778.9,2316.12Z"/><path class="cls-62" d="M2724.49,2185.53c-.15,14.68,6.56,30.45,10.05,33a24.31,24.31,0,0,1,5.24,5.88,7.44,7.44,0,0,1,.82,1.74c3.09,9.29-11.76,20-9,24.17,2,3,12.07-.86,13.23,1.75,1.08,2.46-7.29,7.4-6.06,10.35.93,2.22,6.07.26,9.25,3.69,1.59,1.7,1.1,3,2.73,8.2a47.06,47.06,0,0,0,3.25,7.92c5,8.69,19.29,12,22.1,8.61.78-1,.13-1.77,1-5a25.76,25.76,0,0,1,2.9-6.41c3-4.9,10.25-8.34,17.56-13.45,13.53-9.48,17.29-17.66,18.42-20.43.4-1,.65-1.73.83-2.27,3.63-10.77,3.86-26.66-.88-36.5-7.93-16.48-26.42-9-41.25-25.37-17.11-18.94-6.44-44.39-15.82-47.34C2748.5,2130.86,2724.75,2158.39,2724.49,2185.53Z"/><path class="cls-63" d="M2736.94,2247c3.67-4.89,9.93-.16,9.88,6.23s-6.33,13-12.33,11.63S2732,2253.54,2736.94,2247Z"/><path class="cls-64" d="M2849.18,2687.05h.22a1.91,1.91,0,0,0,1.69-2.12c-3.88-35,3.37-60.38,9.77-82.82,1.57-5.49,3.09-10.83,4.39-16.09,7.11-28.69,10.23-39.79,13.53-51.53,2.17-7.7,4.39-15.6,7.85-28.87a1.94,1.94,0,0,0-1.38-2.35,1.92,1.92,0,0,0-2.35,1.38c-3.44,13.24-5.66,21.12-7.82,28.8-3.31,11.78-6.43,22.89-13.56,51.64-1.29,5.23-2.8,10.52-4.36,16-6.49,22.77-13.85,48.59-9.88,84.3A1.91,1.91,0,0,0,2849.18,2687.05Z"/><path class="cls-65" d="M2562.19,2735.12c29.88,15.34,106.83,42.82,198.55,29.17a309.07,309.07,0,0,0,96.87-31.53c-10.64-8.28-23.75-22.14-45.43-45.72-26.26-28.51-57-17.87-75.12-7.12a42.73,42.73,0,0,1-64.45-35.65,189.33,189.33,0,0,1,1-23.83c6.2-64.88-83.69-70.4-83.69-70.4-12.68-6.59-24.72,4.05-35.68,23.79C2548.65,2662.61,2555.7,2705.46,2562.19,2735.12Z"/><path class="cls-66" d="M2248,2446.1c3.61.35,8,4,11.06,5.75,4.38,2.48,8.78,4.92,13.24,7.24,8.61,4.49,17.72,7.81,27.56,7.63a22.2,22.2,0,0,0-1.31-4.15c-1.67-3.9-3.87-7.27-2.55-8.44,1.88-1.71,10.14,1.81,17.77,9.11a48.85,48.85,0,0,1,8.44,10.57c3.89,6.63,3.23,10.26,6.49,15.32,4.84,4.34,8.47,5.29,8.47,5.29v1.38l-.55,1.71a45.13,45.13,0,0,0,13.05,6.52c-6.74,1.81-13.32,3.65-20,5.5l-4.65,7.77s-25.4-5.32-40.73-14.62c-7.16-4.36-9.63-9.75-10.23-14.22a19.24,19.24,0,0,1,.39-7.16,18.12,18.12,0,0,1,.61-1.88s-20.92-8.69-29.19-27.49C2244.55,2449.09,2244.43,2445.76,2248,2446.1Z"/><path class="cls-67" d="M2336.59,2486.6c-11.94,8.36-18.35,19.72-21.67,27,8.78,20.62,28.7,58.9,69.93,87.11,67.6,46.25,166.73,47.81,235.77-4.94,82.49-63,96.27-183.87,61.62-235.62-4-6-17.1-25.55-37.45-27.79-12.86-1.42-30.36,3.88-58,36.25-57.61,67.44-37.26,109.55-71.29,129.29C2464.47,2527.44,2388.63,2450.19,2336.59,2486.6Z"/><path class="cls-68" d="M3352.5,1653.21l-473.33-25.5c-39-2.1-70.76,26.6-70.76,64.12v259.36c0,37.52,31.77,68.71,70.76,69.67l154.75,3.81,72.21,85.34a12.67,12.67,0,0,0,17.34,1.91h0l69.45-83.33,159.58,3.93c36.09.89,65.2-27.43,65.2-63.26V1721.58C3417.7,1685.76,3388.59,1655.15,3352.5,1653.21Z"/><path class="cls-69" d="M3361.92,1645.67l-473.33-25.49c-39-2.1-70.76,26.6-70.76,64.11v259.36c0,37.52,31.77,68.71,70.76,69.67l154.75,3.82,70.45,83.25a12.67,12.67,0,0,0,19.23.15l69.33-79.49,159.57,3.94c36.09.88,65.2-27.44,65.2-63.27V1714.05C3427.12,1678.22,3398,1647.61,3361.92,1645.67Z"/><path class="cls-17" d="M3285.11,1799.87c-2.62-49.09-36-90.34-77.52-95.56-33-4.15-62.44,14.53-78.1,44.75-15.68-31.71-45.36-53.33-79-52.41-42.81,1.17-77.59,40-80.34,90.07-1.81,33.06,10.19,63.44,29.88,83.93l120.87,98.44a13.62,13.62,0,0,0,17.24.49l118.39-89.82C3275.39,1861.09,3286.84,1832.28,3285.11,1799.87Z"/><path class="cls-70" d="M346.91,3153.23h36.42l45.11-114.63S345.67,3044.4,346.91,3153.23Z"/><path class="cls-71" d="M1196.86,3351.48l-237-43.92s-21.51-182.95,84.43-200.33S1207.08,3231.56,1196.86,3351.48Z"/><path class="cls-72" d="M1185.19,3136.27h.08c7.39.74,14.18,3.63,20.92,7.78,6.48,3.29,14.31,7.17,14.31,12.11v.11c25,26,41.39,73.95,41.49,127.68.13,71.55-29,129.38-67.38,136.06l.08,0c-2.59.37-34.76,12-136.16.55-2.68-43.55-4.27-290.09-4.27-290.09S1135.3,3126.33,1185.19,3136.27Z"/><path class="cls-73" d="M982.76,3270.22c0,81.84,37.89,149.66,83.81,151.37,45,1.68,80.85-61.11,80.77-140.14s-36-146.45-80.93-150.91C1020.58,3126,982.76,3188.46,982.76,3270.22Z"/><path class="cls-17" d="M1018.69,3272.09c0,58.08,25.26,106.36,56,107.78,30.37,1.4,54.66-43.49,54.6-100.21s-24.39-104.8-54.72-107.55C1043.87,3169.33,1018.67,3214.06,1018.69,3272.09Z"/><path class="cls-74" d="M517.61,3049.13h.07a44.83,44.83,0,0,1,18.57,6.7c5.26,2.83,3.85,6.17,13.21,10.43v.1c15.61,22.36,32,63.7,32.06,110,.11,61.63-24.32,111.45-55.47,117.2l-.33,0c-2.1.32-28.4,10.35-110.66.47-2.18-37.51-3.56-249.88-3.56-249.88S477.14,3040.56,517.61,3049.13Z"/><path class="cls-75" d="M353.39,3164.51c0,70.5,30.74,128.92,68,130.39,36.54,1.44,65.59-52.65,65.52-120.72s-29.18-126.14-65.65-130C384.07,3040.28,353.39,3094.08,353.39,3164.51Z"/><path class="cls-17" d="M382.54,3166.12c0,50,20.49,91.61,45.45,92.84,24.64,1.2,44.35-37.46,44.3-86.32s-19.79-90.27-44.4-92.64C403,3077.61,382.53,3116.14,382.54,3166.12Z"/><path class="cls-76" d="M2081.32,3078.71h.1c9.18,0,16.18,4.63,24.6,8.74,8.12,3.13,13.35,9.36,16.47,14.7v.13c34.33,27.85,53.9,83.64,53.9,147.87,0,85.49-36.43,155.94-84.57,165.61l.46,0c-3.22.56-42.73,15.6-164.19,6.62-3.12-49.59-4.76-333.3-4.76-333.3S2020.1,3072.47,2081.32,3078.71Z"/><ellipse class="cls-77" cx="1937.7" cy="3256.47" rx="96.85" ry="166.75"/><ellipse class="cls-78" cx="1947.33" cy="3255.82" rx="65.35" ry="119.24"/><path class="cls-79" d="M315.56,3089a48,48,0,0,0,11.6,42.91l19.72,21.35c5.41-63,38-111.46,77.43-111.46,43.17,0,78.23,58.18,78.23,129.91a204.08,204.08,0,0,1-5.57,48.11l8.62,3.57,465.83,86.28c-1.26-9.6-3.59-19.55-3.59-29.66,0-9.14-.14-18.05-.14-26.79v-.11c15.61-74.27,53.6-130.83,105.79-130.83,58.35,0,106.5,70.64,106.5,157.73,0,23.8-3.14,46.33-9.46,66.56l69.65,12.88a9.34,9.34,0,0,0,.45,1.64c2.18,2.35,19,17.21,101.33,17.21h908.5c41.1,0,71.79-35.87,71.79-77V3298c0-15.75-7.58-30.12-21.67-37.19,0,0,25.15-72.08,5.21-158.3-8-34.43-22.67-71.11-49.17-106.34a316.86,316.86,0,0,0-58.35-59.15s-103.38-85.77-293.07-108.07c0,0-157.23-114.29-301.1-190.05a488.28,488.28,0,0,0-228.86-56.41H849.33a491.24,491.24,0,0,0-258.49,73.48l-137,84.62s-32.71,19.49-66.05,66.17c-37.94,53.05-76.68,141.29-69,275.86l-3.22,6.44Z"/><path class="cls-80" d="M1240.38,3359.48a9.77,9.77,0,0,0,.34,1.64c6.33,4,14.32,23.45,225,17.21h784.68c41.1,0,71.79-35.87,71.79-77V3298c0-.92,1.27-1.78,1.21-2.7-.92-14.66-8.94-27.82-22.22-34.49l-913.62,8.62s-86.17-15.69-115.72-.23c-4.14,2.19-7.11,4.95-8.6,8.45C1250.87,3306.25,1234.63,3346.08,1240.38,3359.48Z"/><g class="cls-81"><path class="cls-17" d="M2095,3104.32v11.9a33.9,33.9,0,0,0,35.36,33.85l97.71-4.14a93.61,93.61,0,0,0,62.31-27.36l16.1-16.09a281,281,0,0,0-49.5-106.34c-.34.05-.69.05-1,.11l-46.91,37a185.18,185.18,0,0,1-85.53,37.53A33.93,33.93,0,0,0,2095,3104.32Z"/></g><g class="cls-82"><path class="cls-83" d="M1661.23,3090.69c6.43,7.72,17.15,14,23.8,14l365.82,0c6.64,0,16-6.31,20.84-14h0c4.79-7.66,2.59-13.82-4.88-13.82H1663.29c-7.45,0-8.5,6.17-2.06,13.85Z"/><path class="cls-84" d="M1702.45,3140.65c6.79,8.1,16.64,14.74,22.08,14.73l297.32-.1c5.42,0,13.93-6.63,19-14.72h0c5.06-8,4-14.51-2.25-14.5l-336.88.07c-6.27,0-6,6.47.73,14.52Z"/></g><path class="cls-85" d="M1555,3152.6c22.27-.58,40.06-16.72,40.06-36.44v-12c0-18.75-16.14-34.44-37.22-36.28l-39.73-3.46-236.47-62.28,5.18,29.81c7.84,45,42.25,82.94,90.24,99.4l35.12,12a207.86,207.86,0,0,0,72.59,11Z"/><path class="cls-86" d="M1272.05,3270.13l98.64,27h954.09c-.92-15.6-9.61-28.77-22.88-35.44l-914,8.62S1301.6,3254.67,1272.05,3270.13Z"/><path class="cls-87" d="M650.73,3203.55h.18c3.17-6.24,5.66-4.31,5.57-7.48-.06-1.92-5.67-194,0-271.79,4.91-67.43,16.2-79.67,17.2-80.58a6,6,0,0,0,2.53-7.35,5.81,5.81,0,0,0-7.47-3.3c-4.16,1.66-18.14,13-23.72,89.66-5.7,78.42-.07,271.8,0,273.73C645.08,3199.55,647.63,3203.55,650.73,3203.55Z"/><path class="cls-88" d="M315.55,3089l3.2-6.44c-7.65-134.57,31.07-222.8,69-275.86,23.91,1.38,55.93,13.28,53.51,67.54-3.79,85.71,13.34,130,78.47,169.17C550.65,3062,584.56,3078,612,3101.73c24.48,21.27,35.91,53.92,60.86,73.92,42.19,33.8,99.44,18.8,148.59,16.56,44.78-2.07,146.26-4.2,146.26,60.93v.11c0,8.74.14,17.65.14,26.79,0,10.12,2.43,20.06,3.69,29.66l-465.88-86.28-8.65-3.56a204.23,204.23,0,0,0,5.57-48.12c0-71.73-35.07-129.91-78.24-129.91-39.43,0-72,48.46-77.43,111.46l-19.73-21.36A48,48,0,0,1,315.55,3089Z"/><path class="cls-89" d="M945.33,2623S1006.66,2780,1022,2803c1.44,2.13,3.28,5.3,5.46,7.14,21.21,17.71,73.12,22,73.12,22H1865C1694.49,2701.06,1548.89,2623,1548.89,2623Z"/><path class="cls-90" d="M475.41,2754.94s81.57,33.34,191.13,64.73a379.77,379.77,0,0,1,18.57-61.45c17-43.17,45.87-93.7,94.84-138.24a502.21,502.21,0,0,0-129,26.44C593.48,2666.42,532.49,2699.93,475.41,2754.94Z"/><path class="cls-91" d="M694.59,2827.49c54.61,14.77,114.62,28.45,174.17,37.18a883,883,0,0,0,100.13,9.26c9.49.29,18.91.4,28.17.29a.19.19,0,0,0-.06-.12c-1.43-6.09-59.55-244.3-113.47-251.37a505.64,505.64,0,0,0-56.73-4.08c-58.23,43.06-91.92,96.57-111.23,142.33A369,369,0,0,0,694.59,2827.49Z"/><path class="cls-92" d="M1027.41,2810c21.21,17.7,73.12,22.1,73.12,22.1H1865C1694.49,2701.06,1548.89,2623,1548.89,2623h-10.81c-16.9,6.24-33.46,21.28-48.11,42.15C1430.82,2749.5,1104,2685.59,1027.41,2810Z"/><path class="cls-93" d="M968.89,2873.93c9.49.29,18.91.4,28.17.29a.19.19,0,0,0-.06-.12C989.36,2874,979.87,2874,968.89,2873.93Z"/><path class="cls-94" d="M715.57,2761a369,369,0,0,0-21,66.51c54.61,14.77,114.62,28.45,174.17,37.18a125.76,125.76,0,0,1-22.93-32C816.22,2775.46,764,2765.63,715.57,2761Z"/><path class="cls-95" d="M475.41,2754.94s81.57,33.34,191.13,64.73a379.77,379.77,0,0,1,18.57-61.45c-29.2-2.93-54.44-7.47-68.87-24.83-25.29-30.58,6.09-64.84,34.67-87C593.48,2666.42,532.49,2699.93,475.41,2754.94Z"/><path class="cls-96" d="M999.16,2885.41s-24.2-95.52-58.59-99.34-132.45-31.84-141.36,15.28,8.91,70.64,58.58,73.53,82.78,0,82.78,0l22.93,24.54S1000.43,2924.89,999.16,2885.41Z"/><path class="cls-97" d="M1010.62,2885.41s-24.2-95.52-58.58-99.34-132.46-31.84-141.37,15.28,8.91,70.64,58.58,73.53,82.79,0,82.79,0L975,2899.42S1011.9,2924.89,1010.62,2885.41Z"/></g></g></svg>