<svg xmlns="http://www.w3.org/2000/svg" xmlns:xlink="http://www.w3.org/1999/xlink" viewBox="0 0 3710 3710"><defs><style>.cls-1{fill:url(#linear-gradient);}.cls-2{fill:url(#linear-gradient-2);}.cls-3{isolation:isolate;}.cls-4{fill:url(#Безымянный_градиент_3);}.cls-5{fill:url(#linear-gradient-3);}.cls-6{fill:url(#linear-gradient-4);}.cls-7{fill:url(#linear-gradient-5);}.cls-8{clip-path:url(#clip-path);}.cls-9{opacity:0.8;mix-blend-mode:soft-light;}.cls-10{fill:#fff;}.cls-11{clip-path:url(#clip-path-2);}.cls-12{fill:#97a6b7;}.cls-13{fill:#bfc8d6;}.cls-14{fill:#d8dee8;opacity:0.5;}.cls-14,.cls-24,.cls-26,.cls-38,.cls-46{mix-blend-mode:multiply;}.cls-15{fill:#b7c0ce;}.cls-16{fill:url(#linear-gradient-8);}.cls-17{fill:url(#linear-gradient-9);}.cls-18{fill:url(#linear-gradient-10);}.cls-19{fill:url(#linear-gradient-11);}.cls-20{fill:url(#linear-gradient-12);}.cls-21{fill:url(#linear-gradient-13);}.cls-22{fill:url(#linear-gradient-14);}.cls-23{fill:url(#linear-gradient-15);}.cls-24,.cls-26,.cls-38,.cls-46{opacity:0.3;}.cls-24{fill:url(#linear-gradient-16);}.cls-25{fill:url(#linear-gradient-17);}.cls-26{fill:url(#linear-gradient-18);}.cls-27{fill:url(#linear-gradient-19);}.cls-28{fill:url(#linear-gradient-20);}.cls-29{fill:url(#linear-gradient-21);}.cls-30{fill:url(#linear-gradient-22);}.cls-31{fill:url(#linear-gradient-23);}.cls-32{fill:url(#linear-gradient-24);}.cls-33{fill:url(#linear-gradient-25);}.cls-34{fill:url(#linear-gradient-26);}.cls-35{fill:url(#linear-gradient-27);}.cls-36{fill:#26264f;}.cls-37{fill:url(#linear-gradient-28);}.cls-39{fill:url(#linear-gradient-29);}.cls-40{fill:url(#linear-gradient-30);}.cls-41{fill:url(#linear-gradient-31);}.cls-42{fill:url(#linear-gradient-32);}.cls-43{fill:url(#linear-gradient-33);}.cls-44{fill:url(#linear-gradient-34);}.cls-45{fill:url(#linear-gradient-35);}.cls-46{fill:url(#linear-gradient-36);}.cls-47{fill:url(#linear-gradient-37);}.cls-48{fill:url(#linear-gradient-38);}.cls-49{fill:url(#linear-gradient-39);}.cls-50{fill:url(#linear-gradient-40);}</style><linearGradient id="linear-gradient" x1="2526.62" y1="-156.69" x2="2209.33" y2="4461.64" gradientUnits="userSpaceOnUse"><stop offset="0" stop-color="#ffc444"/><stop offset="1" stop-color="#f36f56"/></linearGradient><linearGradient id="linear-gradient-2" x1="1418.65" y1="1406.54" x2="3374.35" y2="1406.54" gradientUnits="userSpaceOnUse"><stop offset="0" stop-color="#aa80f9"/><stop offset="1" stop-color="#6165d7"/></linearGradient><linearGradient id="Безымянный_градиент_3" x1="2189.06" y1="151.64" x2="1296.46" y2="3731.64" gradientUnits="userSpaceOnUse"><stop offset="0" stop-color="#6fc6a5"/><stop offset="0.27" stop-color="#7cc9ac"/><stop offset="0.78" stop-color="#9ed0bd"/><stop offset="1" stop-color="#afd4c6"/></linearGradient><linearGradient id="linear-gradient-3" x1="974.26" y1="663.52" x2="-581.2" y2="223.36" gradientTransform="translate(1503.74 284.83) rotate(-19.06)" gradientUnits="userSpaceOnUse"><stop offset="0" stop-color="#311944"/><stop offset="1" stop-color="#893976"/></linearGradient><linearGradient id="linear-gradient-4" x1="926.24" y1="1420.68" x2="-590.53" y2="991.46" gradientTransform="matrix(0.99, -0.12, 0.12, 0.99, 1487.78, -344.55)" xlink:href="#linear-gradient-3"/><linearGradient id="linear-gradient-5" x1="-623.44" y1="-292.48" x2="-600.19" y2="1585.49" gradientTransform="translate(1503.74 284.83) rotate(-19.06)" gradientUnits="userSpaceOnUse"><stop offset="0" stop-color="#ff9085"/><stop offset="1" stop-color="#fb6fbb"/></linearGradient><clipPath id="clip-path"><path class="cls-1" d="M2755.1,48c-41.87-29.22-102.81-42-153.38-41.44-358.49,4-349.3,753.3-281,915.31s37.4,219.59-236.14,329.75-125.11,266.83-82.83,362.1,116.82,172.56-79.8,286.82-120.55,168.81-120.55,168.81,409.08,355,378.09,233.14-8.57-311.59,328.61-353.56c145.23-18.08,362.69-105.93,399.29-266,8.52-37.29,12-93.44.13-130.33-16.43-51.18-54.05-89.47-77.1-137-53.71-110.78,50.53-203.72,108.21-285.45,30.11-42.67,60.11-86.37,81.94-134,45.33-98.88,17.13-198.62-47.84-281-31.15-39.5-73.32-80.67-89.5-129.51-17.38-52.47-12.07-126.54-13.51-181.86-1.13-43.39-.55-86.76-6.54-129.86C2852.05,193.7,2825.11,96.85,2755.1,48Z"/></clipPath><clipPath id="clip-path-2"><path class="cls-2" d="M3343.36,442.61c-29.29-49.48-85.76-91-137.85-114-369.26-163.1-709.35,609-714.92,806.92s-64.11,242.47-395.82,227.77S1842.1,1578.37,1841,1695.72s39.23,231.33-215.57,256.71-202.28,116.76-202.28,116.76,253.62,554.64,278.71,415.28,136.57-323.3,501.68-209c157.26,49.22,421.09,60.62,533.28-86.38,26.13-34.23,55.85-90.17,60.92-133.5,7-60.1-13.65-116.9-15.09-176.37-3.37-138.59,146.81-185.19,244-242.06,50.76-29.68,101.9-60.46,146.48-99.08,92.57-80.2,110.2-195.56,82-310.29-13.5-55-37.5-116.87-31.31-174.47,6.66-61.87,46.66-135.3,71-192.67,19.09-45,39.9-89.17,53.88-136.12C3374.75,637.15,3392.32,525.33,3343.36,442.61Z"/></clipPath><linearGradient id="linear-gradient-8" x1="2440.61" y1="876.95" x2="1758.62" y2="1695.34" gradientUnits="userSpaceOnUse"><stop offset="0" stop-color="#311944"/><stop offset="1" stop-color="#a03976"/></linearGradient><linearGradient id="linear-gradient-9" x1="1874.09" y1="1465.42" x2="1531.25" y2="1778.76" xlink:href="#linear-gradient"/><linearGradient id="linear-gradient-10" x1="205.76" y1="2812.89" x2="286.86" y2="2270.99" xlink:href="#linear-gradient"/><linearGradient id="linear-gradient-11" x1="647.62" y1="3760.05" x2="581.27" y2="3369.29" xlink:href="#linear-gradient-2"/><linearGradient id="linear-gradient-12" x1="608.42" y1="3608.37" x2="630.54" y2="3377.35" xlink:href="#linear-gradient"/><linearGradient id="linear-gradient-13" x1="1009.77" y1="3698.55" x2="943.42" y2="3307.8" xlink:href="#linear-gradient-2"/><linearGradient id="linear-gradient-14" x1="960.46" y1="3642.07" x2="982.58" y2="3411.06" xlink:href="#linear-gradient"/><linearGradient id="linear-gradient-15" x1="674.74" y1="3578.21" x2="1018.8" y2="2285.51" gradientUnits="userSpaceOnUse"><stop offset="0" stop-color="#444b8c"/><stop offset="1" stop-color="#26264f"/></linearGradient><linearGradient id="linear-gradient-16" x1="561.45" y1="3548.06" x2="905.51" y2="2255.36" xlink:href="#linear-gradient-15"/><linearGradient id="linear-gradient-17" x1="1301.49" y1="1439.3" x2="534.71" y2="2453.07" xlink:href="#linear-gradient-2"/><linearGradient id="linear-gradient-18" x1="1322.22" y1="1454.98" x2="555.44" y2="2468.75" xlink:href="#linear-gradient-2"/><linearGradient id="linear-gradient-19" x1="-719.66" y1="2179.32" x2="-719.66" y2="1899.18" gradientTransform="matrix(-0.83, 0.56, 0.56, 0.83, -938.68, 289.04)" xlink:href="#linear-gradient"/><linearGradient id="linear-gradient-20" x1="-2676.77" y1="745.74" x2="-2769.32" y2="510.68" gradientTransform="matrix(-0.99, 0.1, 0.1, 0.99, -1895.8, 1193.75)" gradientUnits="userSpaceOnUse"><stop offset="0" stop-color="#444b8c"/><stop offset="1" stop-color="#3e4177"/></linearGradient><linearGradient id="linear-gradient-21" x1="-917.68" y1="2204.88" x2="-786.71" y2="1950.21" gradientTransform="matrix(-0.83, 0.56, 0.56, 0.83, -938.68, 289.04)" xlink:href="#linear-gradient"/><linearGradient id="linear-gradient-22" x1="3559.91" y1="2216.65" x2="3488.5" y2="2035.29" gradientTransform="translate(-3149.7 1791.17) rotate(-34.21)" xlink:href="#linear-gradient-20"/><linearGradient id="linear-gradient-23" x1="1631.56" y1="1390.36" x2="1188.06" y2="3516.74" gradientTransform="matrix(-1, 0, 0, 1, 4299.58, 0)" xlink:href="#linear-gradient-5"/><linearGradient id="linear-gradient-24" x1="920.73" y1="3623.61" x2="1053.55" y2="3623.61" gradientTransform="matrix(1, 0.03, -0.03, 1, 2093.91, -31.24)" xlink:href="#linear-gradient-15"/><linearGradient id="linear-gradient-25" x1="2995.27" y1="3575.62" x2="3042.89" y2="3575.62" xlink:href="#linear-gradient"/><linearGradient id="linear-gradient-26" x1="1389.64" y1="3652.24" x2="1530.75" y2="3652.24" gradientTransform="matrix(0.96, 0.27, -0.27, 0.96, 2106.73, -308.92)" xlink:href="#linear-gradient-15"/><linearGradient id="linear-gradient-27" x1="2570.72" y1="3559.89" x2="2629.53" y2="3559.89" xlink:href="#linear-gradient"/><linearGradient id="linear-gradient-28" x1="1478" y1="1358.33" x2="1034.49" y2="3484.71" gradientTransform="matrix(-1, 0, 0, 1, 4299.58, 0)" xlink:href="#linear-gradient-5"/><linearGradient id="linear-gradient-29" x1="1096.59" y1="3176.89" x2="1264.91" y2="2377.37" gradientTransform="matrix(-1, 0, 0, 1, 4299.58, 0)" xlink:href="#linear-gradient-5"/><linearGradient id="linear-gradient-30" x1="1174.18" y1="1294.96" x2="730.68" y2="3421.34" gradientTransform="matrix(-1, 0, 0, 1, 4299.58, 0)" xlink:href="#linear-gradient-5"/><linearGradient id="linear-gradient-31" x1="1552.29" y1="2482.11" x2="1480.52" y2="2278.77" gradientTransform="matrix(-1, 0, 0, 1, 4299.58, 0)" xlink:href="#linear-gradient-3"/><linearGradient id="linear-gradient-32" x1="1238.77" y1="2187.5" x2="1265.09" y2="2369.31" gradientTransform="matrix(-1, 0, 0, 1, 4299.58, 0)" xlink:href="#linear-gradient-3"/><linearGradient id="linear-gradient-33" x1="2913.33" y1="2216.04" x2="3062.05" y2="2216.04" xlink:href="#linear-gradient"/><linearGradient id="linear-gradient-34" x1="1760.18" y1="2203.43" x2="1620.26" y2="2004.74" gradientTransform="matrix(-1, 0, 0, 1, 4299.58, 0)" xlink:href="#linear-gradient-15"/><linearGradient id="linear-gradient-35" x1="1491.79" y1="2532.25" x2="1798" y2="1910.27" gradientTransform="matrix(-1, 0, 0, 1, 4299.58, 0)" xlink:href="#linear-gradient-3"/><linearGradient id="linear-gradient-36" x1="1342.21" y1="2133.04" x2="2014.91" y2="2133.04" gradientTransform="matrix(-1, 0, 0, 1, 4299.58, 0)" xlink:href="#linear-gradient-3"/><linearGradient id="linear-gradient-37" x1="2274.22" y1="2292.12" x2="2374.56" y2="2292.12" xlink:href="#linear-gradient"/><linearGradient id="linear-gradient-38" x1="2906.8" y1="1592.89" x2="3157.36" y2="1592.89" xlink:href="#linear-gradient"/><linearGradient id="linear-gradient-39" x1="2305.43" y1="1058.76" x2="2210.84" y2="818.51" gradientTransform="translate(1115.74 52.32) rotate(15.63)" gradientUnits="userSpaceOnUse"><stop offset="0" stop-color="#311944"/><stop offset="1" stop-color="#6b3976"/></linearGradient><linearGradient id="linear-gradient-40" x1="4476.87" y1="1049.15" x2="4486.04" y2="1322.75" gradientTransform="translate(-1020.39 -705.44) rotate(15.43)" xlink:href="#linear-gradient"/></defs><g class="cls-3"><g id="Illustration"><path class="cls-4" d="M3364.15,2865.69c-750.08,959.44-2506.68,974.84-2993,441.91C177.11,3094.93,125.87,2729.67,50.54,2193.14,14.28,1934.87,9.09,1726.68,6,1583.85-4.61,1098-9.89,855,68.33,689.72c224-473.14,1002.34-657.29,1505.39-665.83q52.66-.91,106.26.7c589,17.55,1253.73,262.75,1663.67,786.72a1760.09,1760.09,0,0,1,118.48,171.17C3836.32,1597.8,3773.36,2342.33,3364.15,2865.69Z"/><path class="cls-5" d="M1406,972.64c51.23,18.54,109-11.39,129.11-66.86s-5.18-115.47-56.41-134c-2.65-1-5.33-1.71-8-2.41a617.17,617.17,0,0,0,9.51-89.62c2.76-.35,5.53-.73,8.31-1.33,54.4-11.68,91.84-67.6,83.61-124.91s-59-94.3-113.4-82.62c-2.85.61-5.61,1.41-8.36,2.26a563.89,563.89,0,0,0-33.8-80.3c2.35-1.79,4.68-3.63,6.93-5.66,43-38.76,50-105.69,15.7-149.48s-97-47.86-140-9.1c-2.2,2-4.25,4.09-6.26,6.22a500.3,500.3,0,0,0-68.05-49.45c1.24-2.73,2.44-5.5,3.48-8.37,20.08-55.47,47.69-116.76-3.82-134.49-119.16-41-161.61,11.88-181.69,67.35-1,2.87-1.88,5.76-2.68,8.66A501.11,501.11,0,0,0,956.18,113c-.18-2.92-.41-5.85-.83-8.78-8.22-57.31,5-90.5-50.35-84.77C784.31,31.9,750.12,89.16,758.35,146.46c.43,3,1,5.91,1.7,8.78a566,566,0,0,0-77.36,40.07c-1.57-2.41-3.18-4.79-5-7.08-34.32-43.79-97-47.87-140-9.1s-50,105.69-15.7,149.48c1.75,2.25,3.63,4.32,5.53,6.35a615.78,615.78,0,0,0-50,75c-2.52-1.18-5.06-2.32-7.71-3.28-51.23-18.54-109,11.4-129.11,66.87s5.18,115.46,56.41,134c2.65,1,5.33,1.71,8,2.42a615.65,615.65,0,0,0-9.51,89.61c-2.77.35-5.53.74-8.32,1.33-54.4,11.69-91.83,67.61-83.61,124.91s59,94.3,113.41,82.62c2.84-.61,5.61-1.41,8.35-2.25a564.26,564.26,0,0,0,33.8,80.29c-2.35,1.8-4.68,3.64-6.92,5.66-43,38.77-50,105.69-15.71,149.49S568,1195.72,611,1157c2.2-2-30.13-10.37-28.12-12.5a501.22,501.22,0,0,0,68,49.46c-1.24,2.73-2.44,5.49-3.48,8.37-20.08,55.46,5.18,115.46,56.4,134s109-11.4,129.11-66.86c1-2.88,1.88-5.77,2.68-8.66a500,500,0,0,0,83.94,5.55c.18,2.93.41,5.85.83,8.79,8.23,57.3,59,94.29,113.4,82.62s91.83-67.61,83.6-124.91c-.43-3-1-5.9-1.7-8.78a563.76,563.76,0,0,0,77.36-40.07c1.57,2.41,3.19,4.8,5,7.09,34.33,43.79,97,47.86,140,9.09s50-105.69,15.71-149.48c-1.76-2.24-3.64-4.31-5.54-6.35a616.88,616.88,0,0,0,50-74.94C1400.77,970.54,1403.31,971.68,1406,972.64Zm-600.07,81.65C619.9,987,528.21,769.14,601.1,567.75S883.86,257.67,1069.85,325s277.68,285.15,204.79,486.54S991.89,1121.61,805.89,1054.29Z"/><path class="cls-6" d="M1488.47,678.41c54.4-11.68,91.83-67.6,83.61-124.91s-59-94.3-113.4-82.62c-2.85.61-5.61,1.41-8.36,2.26a563.89,563.89,0,0,0-33.8-80.3c2.35-1.79,4.68-3.63,6.93-5.66,43-38.76,91.41-125.6,52.77-165.64-73.33-76-134.08-31.7-177.08,7.06-2.2,2-4.25,4.09-6.26,6.22a500.3,500.3,0,0,0-68.05-49.45c1.24-2.74,2.44-5.5,3.48-8.37,10.93-30.19,8.34-61.67-4.46-87.13q-53.4,128.4-104.64,257.66c152.25,85.13,221.55,281.32,155.43,464-56,154.8-193,254.72-337.82,262.15-4.36,17.4-8.59,34.87-13.42,52.17-13.11,46.93-28.87,93.25-44.66,139.52q20.43,1.31,40.82,1c.18,2.93.41,5.85.83,8.79,8.23,57.3,49.12,101.82,148.15,84.25,54.79-9.71,57.08-69.23,48.85-126.54-.43-3-1-5.9-1.7-8.78a563.76,563.76,0,0,0,77.36-40.07c1.57,2.41,3.19,4.8,5,7.08,34.33,43.8,135.67,51.72,178.67,13s11.37-109.54-23-153.33c-1.76-2.25-3.64-4.31-5.54-6.35a616.88,616.88,0,0,0,50-74.94c2.51,1.18,5,2.31,7.7,3.27,51.23,18.54,109-11.4,129.11-66.86s-5.18-115.47-56.41-134c-2.65-1-5.33-1.71-8-2.41a617.17,617.17,0,0,0,9.51-89.62C1482.92,679.39,1485.69,679,1488.47,678.41Z"/><path class="cls-7" d="M1511.26,470.39c-2.84.61-5.61,1.41-8.36,2.26a563.89,563.89,0,0,0-33.8-80.3c2.35-1.79,4.68-3.63,6.93-5.66,43-38.76,50-105.69,15.7-149.48s-97-47.86-140-9.1c-2.2,2-4.24,4.09-6.26,6.22a500.82,500.82,0,0,0-68-49.45c1.23-2.73,2.43-5.5,3.47-8.37C1301,121,1275.72,61,1224.49,42.5s-109,11.4-129.1,66.87c-1.05,2.87-1.89,5.76-2.69,8.66a501.06,501.06,0,0,0-83.93-5.56c-.19-2.92-.41-5.85-.83-8.78-8.23-57.31-59-94.3-113.4-82.62S802.7,88.67,810.93,146c.43,3,1,5.9,1.7,8.78a566,566,0,0,0-77.36,40.07c-1.57-2.41-3.18-4.79-5-7.08-34.32-43.79-97-47.87-140-9.1s-50,105.69-15.7,149.48c1.76,2.25,3.63,4.32,5.53,6.35a615.78,615.78,0,0,0-50,74.95c-2.52-1.18-5.06-2.32-7.71-3.28-51.23-18.54-109,11.4-129.11,66.86s5.18,115.47,56.41,134c2.65,1,5.33,1.71,8,2.42A615.65,615.65,0,0,0,448.17,699c-2.76.35-5.53.74-8.32,1.33C385.45,712.06,348,768,356.24,825.28s59,94.3,113.41,82.62c2.84-.61,5.61-1.41,8.35-2.25A564.86,564.86,0,0,0,511.8,986c-2.35,1.79-4.68,3.63-6.92,5.65-43,38.77-50,105.7-15.71,149.49s97,47.86,140,9.09c2.2-2,4.25-4.09,6.26-6.22a501.22,501.22,0,0,0,68,49.46c-1.24,2.73-2.44,5.49-3.48,8.36-20.07,55.47,5.18,115.47,56.41,134s109-11.4,129.1-66.87c1-2.87,1.89-5.76,2.68-8.65a501.17,501.17,0,0,0,83.94,5.55c.18,2.93.41,5.85.83,8.79,8.23,57.3,59,94.3,113.4,82.62s91.83-67.6,83.6-124.91c-.42-3-1-5.9-1.7-8.78a564.45,564.45,0,0,0,77.37-40.07c1.56,2.41,3.18,4.8,5,7.08,34.33,43.79,97,47.87,140,9.1s50-105.69,15.71-149.48c-1.76-2.24-3.64-4.31-5.54-6.35a616.88,616.88,0,0,0,50-74.94c2.51,1.17,5.05,2.31,7.71,3.27,51.22,18.54,109-11.39,129.1-66.86s-5.18-115.47-56.41-134c-2.65-1-5.33-1.71-8-2.41a617.17,617.17,0,0,0,9.51-89.62c2.76-.35,5.53-.73,8.31-1.33,54.41-11.68,91.84-67.6,83.61-124.91S1565.66,458.71,1511.26,470.39ZM1327.22,811c-72.89,201.4-282.75,310.09-468.74,242.77S580.79,768.65,653.68,567.26s282.76-310.08,468.75-242.77S1400.11,609.64,1327.22,811Z"/><path class="cls-1" d="M2755.1,48c-41.87-29.22-102.81-42-153.38-41.44-358.49,4-349.3,753.3-281,915.31s37.4,219.59-236.14,329.75-125.11,266.83-82.83,362.1,116.82,172.56-79.8,286.82-120.55,168.81-120.55,168.81,409.08,355,378.09,233.14-8.57-311.59,328.61-353.56c145.23-18.08,362.69-105.93,399.29-266,8.52-37.29,12-93.44.13-130.33-16.43-51.18-54.05-89.47-77.1-137-53.71-110.78,50.53-203.72,108.21-285.45,30.11-42.67,60.11-86.37,81.94-134,45.33-98.88,17.13-198.62-47.84-281-31.15-39.5-73.32-80.67-89.5-129.51-17.38-52.47-12.07-126.54-13.51-181.86-1.13-43.39-.55-86.76-6.54-129.86C2852.05,193.7,2825.11,96.85,2755.1,48Z"/><g class="cls-8"><g class="cls-9"><path class="cls-10" d="M1789.52,2288.44a5.29,5.29,0,0,1-5-9.29c1.52-1,153.52-97.57,319.44-249.77,152.89-140.23,349.2-357.67,416.24-597.21,56-200.06,95.24-526.41,107.67-895.37C2639,206,2625.11-36.92,2605.23-80.58a5.29,5.29,0,0,1,2.62-7,5.3,5.3,0,0,1,7,2.62c23.25,51.08,33.6,324.35,23.57,622.13-12.46,369.76-51.84,697-108,897.86-67.73,242-265.47,461.09-419.42,602.29-166.6,152.79-319.28,249.82-320.8,250.78A4.45,4.45,0,0,1,1789.52,2288.44Z"/><path class="cls-10" d="M2632.5,600.38c-2.65,1.2-5.49.67-6.71-2-1.62-3.5-163.85-350-341.82-416.68a5.08,5.08,0,0,1-3-6.65,5.27,5.27,0,0,1,6.84-3c182,68.15,340.89,407.43,347.58,421.87,1.23,2.65-.18,5.22-2.84,6.43Z"/><path class="cls-10" d="M2601.76,1020.25a5.29,5.29,0,0,1-5.88-8.61c.91-.88,92.14-89.16,207.31-166.42,155.62-104.38,278.52-140.05,365.29-106a5.29,5.29,0,0,1-3.87,9.85c-199.63-78.32-557.76,266.67-561.36,270.17A5.34,5.34,0,0,1,2601.76,1020.25Z"/><path class="cls-10" d="M2245.47,1902.59a5.21,5.21,0,0,1-1.68.44,5.28,5.28,0,0,1-5.77-4.75c-.15-1.52-15.46-154.68-60.84-313.64-41.61-145.75-117.63-326.35-243.53-359.06a5.29,5.29,0,1,1,2.66-10.24c105,27.28,189.45,150.6,251.08,366.53,45.62,159.87,61,313.85,61.15,315.39A5.29,5.29,0,0,1,2245.47,1902.59Z"/><path class="cls-10" d="M2442.89,1636.91a5.29,5.29,0,0,1-5.67-8.79c15.93-13.94,392.1-341.15,550.53-325.87a5.29,5.29,0,0,1-1,10.53c-153.94-14.85-538.68,319.91-542.55,323.3A5.44,5.44,0,0,1,2442.89,1636.91Z"/></g></g><path class="cls-2" d="M3343.36,442.61c-29.29-49.48-85.76-91-137.85-114-369.26-163.1-709.35,609-714.92,806.92s-64.11,242.47-395.82,227.77S1842.1,1578.37,1841,1695.72s39.23,231.33-215.57,256.71-202.28,116.76-202.28,116.76,253.62,554.64,278.71,415.28,136.57-323.3,501.68-209c157.26,49.22,421.09,60.62,533.28-86.38,26.13-34.23,55.85-90.17,60.92-133.5,7-60.1-13.65-116.9-15.09-176.37-3.37-138.59,146.81-185.19,244-242.06,50.76-29.68,101.9-60.46,146.48-99.08,92.57-80.2,110.2-195.56,82-310.29-13.5-55-37.5-116.87-31.31-174.47,6.66-61.87,46.66-135.3,71-192.67,19.09-45,39.9-89.17,53.88-136.12C3374.75,637.15,3392.32,525.33,3343.36,442.61Z"/><g class="cls-11"><g class="cls-9"><path class="cls-10" d="M1308.76,2288.17a6,6,0,0,1-.8-11.85c2-.28,202.84-28.39,443.87-107,222.08-72.4,524.69-203.66,705.13-417.86,150.7-178.91,343.15-495,528-867.34,165.75-333.85,264.8-589.22,264.8-643.24a6,6,0,1,1,11.91,0c0,63.19-116.86,348.06-266,648.53-185.25,373.12-378.26,690.12-529.55,869.72-182.29,216.4-487.13,348.7-710.76,421.57-242,78.87-443.72,107.09-445.73,107.36A5.76,5.76,0,0,1,1308.76,2288.17Z"/><path class="cls-10" d="M2960.05,948.93c-3.27,0-5.93-.59-6-3.87,0-4.33-4.62-434.51-155.92-585.81a5.36,5.36,0,0,1,0-7.91,6,6,0,0,1,8.42.26C2961.35,506.35,2965.88,927,2966,944.86c0,3.28-2.62,4.07-5.91,4.07Z"/><path class="cls-10" d="M2732.7,1367.43a6,6,0,0,1-2-11.56c1.34-.48,136-48.4,290.08-73.85,208.16-34.38,350.74-13.6,423.78,61.76a6,6,0,0,1-8.55,8.29c-168.05-173.38-696,13.1-701.3,15A5.86,5.86,0,0,1,2732.7,1367.43Z"/><path class="cls-10" d="M1956,2105.44a6,6,0,0,1-5.63-7.89c.55-1.63,56.3-165.72,84-349.8,25.35-168.76,31.69-389.3-82.07-481.55a6,6,0,1,1,7.5-9.25c94.86,76.92,123.9,242.7,86.32,492.73-27.82,185.11-83.88,350.08-84.44,351.73A6,6,0,0,1,1956,2105.44Z"/><path class="cls-10" d="M2282.23,1925.27a6,6,0,0,1-1.7-11.66c22.83-6.85,560.95-166.71,716.18-77.14a6,6,0,0,1-5.95,10.31c-150.84-87-701.27,76.57-706.81,78.23A6,6,0,0,1,2282.23,1925.27Z"/></g></g><path class="cls-12" d="M1553.87,1126.31l-.87-.1c-14.13-1.59-27.07,7.61-28.88,20.54l-326.6,2333c-1.89,13.45,8.52,24,23.21,23.59l.91,0c14.67-.43,28.06-11.65,29.93-25l324.56-2325.76C1577.93,1139.64,1568,1127.9,1553.87,1126.31Z"/><path class="cls-12" d="M2597,3280.85,2311.26,1142.47c-1.65-12.32-13.42-21-26.31-19.35l-.8.1c-12.92,1.64-22.07,13-20.41,25.33l287.38,2144.53c1.6,11.9,13,18.84,25.44,15.5l.77-.2C2589.76,3305,2598.53,3292.72,2597,3280.85Z"/><path class="cls-12" d="M1684.89,3100.39l97.68-2154.78c.56-12.41,11.53-22,24.52-21.52l.8,0c13,.53,23.12,11,22.55,23.49l-98.83,2161c-.55,12-11.3,19.89-24,17.63l-.79-.14C1694.16,3123.88,1684.34,3112.36,1684.89,3100.39Z"/><polygon class="cls-13" points="2885.54 444.35 2885.54 2465.39 2117.56 2526 813.06 2629.03 813.06 371.83 1042.51 379.82 2885.54 444.35"/><polygon class="cls-10" points="2890.09 434.96 2890.09 2456 2122.12 2516.61 817.62 2619.63 817.62 362.44 1047.07 370.43 2890.09 434.96"/><path class="cls-13" d="M2918.33,411.25v39.63c0,10.57-10.35,18.8-22.55,18.36l-8-.25L1090.3,409.27l-271-9-1.67-.05c-15.23-.5-28.25-10.47-28.25-22.27V333.52c0-11.8,12.53-20.88,27.77-20.33l141.14,5.3,1937.35,72.87C2907.84,391.81,2918.33,400.73,2918.33,411.25Z"/><path class="cls-13" d="M2918.33,2429v39.63c0,10.57-10.35,19.9-22.55,20.89l-682.56,55.4L817.87,2658.27c-15.23,1.24-28.49-7.34-28.49-19.14v-44.45c0-11.8,12.53-22.32,27.77-23.46l1.71-.1,1206.89-92.75L2887,2412.2l8.72-.55C2908,2410.71,2918.33,2418.5,2918.33,2429Z"/><path class="cls-14" d="M2212.58,2544.93l-1395,113.34c-15.24,1.24-28.17-7.34-28.17-19.14v-44.45c0-11.8,11.77-22.32,27-23.46l1.23-.1V400.29l-.83-.05c-15.24-.5-27.41-10.47-27.41-22.27V333.52c0-11.8,12.53-20.88,27.77-20.33l141.14,5.3c30.25,13.79,60.23,30.81,87.9,51.94a376.93,376.93,0,0,1,43.72,38.84c54.3,56.74,93.23,135.11,97.47,243.34,13.24,337.89-46.78,407,51.46,496.22,13.35,12.11,29.63,24.56,49.39,38.1,5.73,3.92,11.69,7.93,18,12,86.27,56.4,210.87,104.21,310.08,189.48,85.41,73.41,152,174.5,159.31,332.68,2.81,60.42-3,129.22-19.82,207.93q-7,32.52-10.77,62.7a596.4,596.4,0,0,0-4.69,98.76,469,469,0,0,0,7.39,67,397.3,397.3,0,0,0,28.35,91.52,377.93,377.93,0,0,0,40.9,69.74c53.1,71.82,128.38,122.27,208.92,159.57a1021.27,1021.27,0,0,0,95.49,38.24C2152.25,2527.28,2183,2536.6,2212.58,2544.93Z"/><path class="cls-15" d="M2119.39,575.73c0-9.79-7.14-18-16.42-18.33l-413.74-15.17c-9.77-.36-16.48,7.48-16.48,17.53v828c0,10,6.61,18.1,16.38,18l414.5-5.91c9.28-.13,15.76-8.17,15.76-18Z"/><path class="cls-10" d="M1978.75,818.65c0,46.35-36,83.37-80.6,82.67-44.85-.7-81.38-39.21-81.38-86s36.53-83.81,81.38-82.66C1942.76,733.79,1978.75,772.29,1978.75,818.65Z"/><polygon class="cls-10" points="2073.81 1010.71 1713.77 1007.34 1713.77 950.49 2073.81 955.07 2073.81 1010.71"/><polygon class="cls-10" points="2073.81 1121.97 1713.77 1121.05 1713.77 1064.2 2073.81 1066.34 2073.81 1121.97"/><path class="cls-15" d="M2119.39,1551.33c0-9.79-7.14-17.55-16.43-17.35l-414,9.27c-9.77.22-16.19,8.54-16.19,18.59v828c0,10.05,6.61,17.62,16.38,16.91l414.5-30.35c9.28-.68,15.76-9.16,15.76-18.95Z"/><polygon class="cls-10" points="2014.57 2024.54 1773.02 2036.84 1773.02 1994.37 2014.57 1982.66 2014.57 2024.54"/><polygon class="cls-10" points="2014.57 2108.3 1773.02 2121.8 1773.02 2079.32 2014.57 2066.42 2014.57 2108.3"/><polygon class="cls-10" points="2014.57 2192.06 1773.02 2206.76 1773.02 2164.28 2014.57 2150.18 2014.57 2192.06"/><polygon class="cls-10" points="2082.93 1928.23 1709.21 1945.62 1709.21 1637.59 2082.93 1627.05 2082.93 1928.23"/><polygon class="cls-15" points="2086.41 1935.67 1701.3 1646.58 1705.58 1633.41 2090.5 1922.74 2086.41 1935.67"/><polygon class="cls-15" points="1705.58 1953.36 1701.3 1940.52 2086.41 1622.89 2090.5 1635.52 1705.58 1953.36"/><polygon class="cls-10" points="2082.93 2289.65 1709.21 2315.26 1709.21 2272.61 2082.93 2247.95 2082.93 2289.65"/><path class="cls-15" d="M1481.34,553.13c0-10.16-6.84-18.67-16.86-19l-450.1-16.37c-10.55-.39-20.69,7.77-20.69,18.22v860.64c0,10.44,10.43,18.79,21,18.64l448.54-6.39a18.59,18.59,0,0,0,18.13-18.66Z"/><path class="cls-10" d="M1333.07,945.78a86.21,86.21,0,0,1-87,86.52c-48.4-.36-87.84-40.08-87.84-88.71a86.18,86.18,0,0,1,87.84-86.51C1294.25,857.92,1333.07,897.63,1333.07,945.78Z"/><path class="cls-15" d="M1481.34,1566.21c0-10.16-7.18-18.22-17.2-18l-449.93,10c-10.56.23-20.52,8.9-20.52,19.35v860.63c0,10.45,10.43,18.3,21,17.52L1463.21,2423a20,20,0,0,0,18.13-19.72Z"/><polygon class="cls-10" points="1235.24 1821.27 1025.59 1828.83 1025.59 1651.46 1235.24 1645.93 1235.24 1821.27"/><polygon class="cls-15" points="1235.4 1826.09 1033.92 1654.66 1036.13 1646.99 1237.57 1818.48 1235.4 1826.09"/><polygon class="cls-15" points="1036.13 1833.64 1033.92 1826.12 1235.4 1641.54 1237.57 1649 1036.13 1833.64"/><polygon class="cls-10" points="1444.88 1813.14 1258.03 1820.53 1258.03 1645.38 1444.88 1639.96 1444.88 1813.14"/><polygon class="cls-15" points="1451.27 1817.9 1254.76 1648.52 1256.92 1640.95 1453.38 1810.39 1451.27 1817.9"/><polygon class="cls-15" points="1256.92 1825.27 1254.76 1817.84 1451.27 1635.63 1453.38 1643 1256.92 1825.27"/><polygon class="cls-10" points="1235.24 2045.33 1025.59 2055.48 1025.59 1878.11 1235.24 1869.98 1235.24 2045.33"/><polygon class="cls-15" points="1235.4 2050.12 1033.92 1881.28 1036.13 1873.58 1237.57 2042.49 1235.4 2050.12"/><polygon class="cls-15" points="1036.13 2060.23 1033.92 2052.74 1235.4 1865.57 1237.57 1873.01 1036.13 2060.23"/><polygon class="cls-10" points="1444.88 2034.42 1258.03 2044.34 1258.03 1869.18 1444.88 1861.24 1444.88 2034.42"/><polygon class="cls-15" points="1451.27 2039.17 1254.76 1872.31 1256.92 1864.71 1453.38 2031.63 1451.27 2039.17"/><polygon class="cls-15" points="1256.92 2049.03 1254.76 2041.63 1451.27 1856.9 1453.38 1864.24 1256.92 2049.03"/><polygon class="cls-10" points="1235.24 2269.38 1025.59 2282.13 1025.59 2104.75 1235.24 2094.03 1235.24 2269.38"/><polygon class="cls-15" points="1235.4 2274.16 1033.92 2107.9 1036.13 2100.17 1237.57 2266.5 1235.4 2274.16"/><polygon class="cls-15" points="1036.13 2286.82 1033.92 2279.36 1235.4 2089.61 1237.57 2097.01 1036.13 2286.82"/><polygon class="cls-10" points="1444.88 2255.7 1258.03 2268.14 1258.03 2092.99 1444.88 2082.53 1444.88 2255.7"/><polygon class="cls-15" points="1451.27 2260.43 1254.76 2096.1 1256.92 2088.47 1453.38 2252.87 1451.27 2260.43"/><polygon class="cls-15" points="1256.92 2272.79 1254.76 2265.41 1451.27 2078.17 1453.38 2085.48 1256.92 2272.79"/><polygon class="cls-10" points="1444.88 2332.67 1025.59 2360.97 1025.59 2316.62 1444.88 2289.38 1444.88 2332.67"/><path class="cls-15" d="M2702.74,1537.59c0-9.43-4.56-16.93-13.2-16.74l-385.67,8.62c-9.07.2-15.86,8.22-15.86,17.91v797.85a16.12,16.12,0,0,0,17.07,16.34l384.14-28.22c8.64-.63,13.52-8.79,13.52-18.23Z"/><path class="cls-15" d="M2702.74,596.55c0-9.44-4.56-17.35-13.2-17.66l-385.71-14.1c-9.07-.34-15.82,7.25-15.82,16.94v797.85c0,9.69,8,17.43,17.07,17.3l384.14-5.49c8.64-.12,13.52-7.88,13.52-17.32Z"/><polygon class="cls-10" points="2588.81 799.8 2411.06 795.72 2411.06 745.74 2588.81 750.37 2588.81 799.8"/><polygon class="cls-10" points="2670.84 1052 2324.47 1049.57 2324.47 857.76 2670.84 864.26 2670.84 1052"/><polygon class="cls-10" points="2670.84 1302.33 2324.47 1305.32 2324.47 1113.51 2670.84 1114.59 2670.84 1302.33"/><polygon class="cls-10" points="2570.58 799.39 2433.85 796.22 2433.85 746.31 2570.58 749.91 2570.58 799.39"/><polygon class="cls-15" points="2673.09 1055.96 2325.91 861.84 2329.76 853.77 2676.78 1048.01 2673.09 1055.96"/><polygon class="cls-15" points="2329.76 1053.65 2325.91 1045.48 2673.09 860.26 2676.78 868.3 2329.76 1053.65"/><polygon class="cls-15" points="2673.09 1306.25 2325.91 1117.56 2329.76 1109.42 2676.78 1298.25 2673.09 1306.25"/><polygon class="cls-15" points="2329.76 1309.31 2325.91 1301.19 2673.09 1110.56 2676.78 1118.54 2329.76 1309.31"/><polygon class="cls-10" points="2675.4 2249.69 2324.47 2273.49 2324.47 2232.39 2675.4 2209.47 2675.4 2249.69"/><polygon class="cls-10" points="2661.72 1848.01 2338.14 1862.12 2338.14 1588.25 2661.72 1579.67 2661.72 1848.01"/><polygon class="cls-15" points="2634.38 1737.06 2502.21 1741.95 2502.21 1610.95 2634.38 1607.16 2634.38 1737.06"/><polygon class="cls-10" points="2647.22 1741.21 2502.33 1612.57 2503.92 1606.84 2648.78 1735.52 2647.22 1741.21"/><polygon class="cls-10" points="2503.92 1746.37 2502.33 1740.74 2647.22 1602.91 2648.78 1608.51 2503.92 1746.37"/><polygon class="cls-15" points="2465.75 1634.6 2356.38 1637.78 2356.38 1614.99 2465.75 1611.96 2465.75 1634.6"/><polygon class="cls-15" points="2465.75 1679.88 2356.38 1683.37 2356.38 1660.58 2465.75 1657.24 2465.75 1679.88"/><polygon class="cls-15" points="2638.94 1781.7 2360.93 1792.62 2360.93 1769.83 2638.94 1759.31 2638.94 1781.7"/><polygon class="cls-15" points="2638.94 1826.48 2360.93 1838.2 2360.93 1815.41 2638.94 1804.09 2638.94 1826.48"/><polygon class="cls-10" points="2661.72 2165.55 2338.14 2186.19 2338.14 1912.32 2661.72 1897.21 2661.72 2165.55"/><polygon class="cls-15" points="2634.38 2055.09 2502.21 2062.69 2502.21 1931.69 2634.38 1925.19 2634.38 2055.09"/><polygon class="cls-10" points="2647.22 2059.06 2502.33 1933.28 2503.92 1927.52 2648.78 2053.34 2647.22 2059.06"/><polygon class="cls-10" points="2503.92 2067.05 2502.33 2061.45 2647.22 1920.77 2648.78 1926.33 2503.92 2067.05"/><polygon class="cls-15" points="2465.75 1956.1 2356.38 1961.46 2356.38 1938.66 2465.75 1933.45 2465.75 1956.1"/><polygon class="cls-15" points="2465.75 2001.38 2356.38 2007.05 2356.38 1984.25 2465.75 1978.74 2465.75 2001.38"/><polygon class="cls-15" points="2638.94 2099.65 2360.93 2116.21 2360.93 2093.42 2638.94 2077.26 2638.94 2099.65"/><polygon class="cls-15" points="2638.94 2144.43 2360.93 2161.79 2360.93 2139 2638.94 2122.04 2638.94 2144.43"/><polygon class="cls-16" points="1776.51 1539.9 2466.53 973.74 2470.14 975.5 1785.55 1555.42 1776.51 1539.9"/><path class="cls-17" d="M1734.36,1577.55l27-29.51,14.06-32.53a34.81,34.81,0,0,1,11.21-14.15l8.08-6a26.89,26.89,0,0,1,16-5.29h26.49s-4.61,8.64-12.13,10-23.23,19.06-23.23,19.06l-2.14,20.8,30-21.94,32-36.82v20.44a29.13,29.13,0,0,1-7.09,19l-26,30.07a41.66,41.66,0,0,1-24.93,13.91l-6.41,1a49.3,49.3,0,0,0-32.82,20.82l-18.27,26.73Z"/><path class="cls-18" d="M276.09,2557.87s-7.49,35.21-14,64.87-32.6,52.41-44,76.08-16.54-4-19.68-21.16,0-52.45,14.12-64.54,24.86-22.66,24.17-25.1,9.07-43.19,9.07-43.19Z"/><path class="cls-19" d="M589.1,3616.52c-1.78-7.34-.59-17.15,5.81-23.73,8.62-8.87,23.06-8.12,32.12-4,5.28,2.39,9.38,6.22,23.89,36.47,15.34,32,15.27,37.13,12.8,40.05-5,5.93-19.08,1.55-22.11.61-10.09-3.13-12.55-7.91-33.31-27.36C594.22,3625.35,590.72,3623.22,589.1,3616.52Z"/><path class="cls-20" d="M598.91,3566.54l3.51,37.06c8.44,4.39,13.68,4,16.44,0l7.09-37.06Z"/><path class="cls-21" d="M953.3,3611.89c-5-5.69-8.43-14.95-5.79-23.74,3.57-11.84,16.72-17.83,26.65-18.37,5.79-.31,11.2,1.19,38,21.35,28.34,21.31,30.66,25.92,29.82,29.64-1.72,7.58-16.22,10.18-19.35,10.74-10.39,1.87-14.78-1.24-42.17-8.93C961.91,3617.37,957.82,3617.09,953.3,3611.89Z"/><path class="cls-22" d="M955.76,3550l3.51,37.06c8.44,4.39,13.68,4,16.44,0L982.8,3550Z"/><path class="cls-23" d="M589.42,3573.8l40,2.41q42.36-206.6,93.29-422.64,56-236.66,116.48-458.72c12.74,56.33,25.34,122.22,35.27,196.29,14.74,109.94,17.72,194.17,18.44,217.5,3.63,119.25-6.76,133.34-1.85,207.79,3.87,58.54,16.54,144.54,59,249l38.13-2.31a2915.08,2915.08,0,0,0,58.4-484.94A2925.26,2925.26,0,0,0,1009,2494.06L662.5,2504.83c-36.06,80.5-52.49,149.34-60.81,197.75-16.74,97.28-6.48,145.28-19.07,311-6.51,85.65-11.25,99.23-16,156.12C558.83,3263.93,557.47,3400,589.42,3573.8Z"/><path class="cls-24" d="M666.18,3245c10.54-112-29.87-109.68-11.06-206.43,17.31-89,54-103.86,81.1-217.5,21.74-91.22,5.14-111.23,22.12-151.15,21-49.32,82.28-103.16,258.47-126-2.52-17-5.11-33.71-7.79-49.86L662.5,2504.83c-36.06,80.5-52.49,149.34-60.81,197.75-16.74,97.28-6.48,145.28-19.07,311-6.51,85.65-11.25,99.23-16,156.12-7.82,94.21-9.18,230.27,22.77,404.08l40,2.41c.83-4,1.7-8.07,2.53-12.08A171.94,171.94,0,0,1,614.57,3527C585.32,3437.19,653,3385,666.18,3245Z"/><path class="cls-25" d="M229.34,2564.89l51.61,9.22c10.63-32.19,26.05-80.71,42.66-140.45,19-68.32,28.75-112.47,32.91-128.66,16.56-64.43,65-154.82,207.68-264.86-1.42,70-2.52,127.6-3.26,167.17-5.93,317.48-5.59,375.11,36.58,406.77,36.67,27.53,56.93-.65,223.5,2.52,151.91,2.89,183.88,27.25,222.46-.65,62.6-45.26,38.29-152.73,39.27-287,.81-110.79,19-267.57,99.53-459,59.26,5.76,158.36,7.33,271-31.33,174.87-60,274.23-180,311.5-230.4l-36.86-49.77a1184.78,1184.78,0,0,1-282.75,83.73c-212.69,34.75-310.48-10.43-508-2.63-113.75,4.49-346.08,13.67-503.19,132.71C145,1991.23,219,2499.5,229.34,2564.89Z"/><path class="cls-26" d="M780.46,2528c-8.79-49,17.62-69.69,3.69-125.34-19.66-78.53-82.71-79.14-97.69-145.61-14.29-63.4,38.63-82.43,51.61-182.48,9.54-73.56-3.94-179.89-53.46-197.23-61.6-21.56-152.14,104-162.2,118-34.81,48.28-55,98.13-66.87,142.68,28.18-30.55,63.73-63.24,108.66-97.88-1.42,70-2.52,127.6-3.26,167.17-5.93,317.48-5.59,375.11,36.58,406.77,36.67,27.53,56.93-.65,223.5,2.52,4.76.1,9.06.26,13.59.39C798.63,2584.05,785,2553.21,780.46,2528Z"/><path class="cls-27" d="M873,1507s-6.77,53.82-26.78,92.94c-18.09,35.34-99.63,51.94-116.44,58.8s27.7,34.44,74,42.87,180.23,8.5,205.65-7.25-18-17.89-50.27-32.77S912.78,1580.08,921,1551,873,1507,873,1507Z"/><path class="cls-28" d="M959,1487c11-18.56,4-52.2-17.52-66.68-15.94-10.74-34.23-7.12-47.55-4.48-6.16,1.22-49.47,10.35-59.39,42.46-3.15,10.21-1.84,23.71,2.77,34.16,2.38,5.37,6.81,12,16.54,24.55,8.65,11.15,8.08,10.78,10.73,14,6.33,7.76,18.46,20.76,40.21,35.43a126,126,0,0,1,5-21.51c1-3.14,5.17-15.39,12.22-25.9C936.32,1497.75,950.45,1501.53,959,1487Z"/><path class="cls-29" d="M877.26,1552.39s23.38,31.17,63.32,24.69c35.77-5.81,33.27-87,8.63-101.94-8.21-5-23.8-5.87-36-1.17-7.18,2.78-9.38,6.09-21.2,10.4-10.9,4-14.18,3-17.27,6.2-3.89,4-6.14,13,3.18,35.88-7.53-6.29-16-8.16-21.6-4.84a12.24,12.24,0,0,0-4.35,5.13C847.88,1536.44,857.43,1547.4,877.26,1552.39Z"/><path class="cls-30" d="M869.14,1506.48s15.25,28.24,23.73,34.9,27.6,10.73,46.15.6,28.86-19.61,28.86-19.61,7.6,39.13,3,44-38.83,25.78-48.67,24.3-33.84-20.86-39.4-32.85-12.24-43.13-12.24-43.13Z"/><path class="cls-31" d="M2569,2000c-38.58-41.2,68.23-196,125.41-263.78,49.94-59.25,101.28-120.14,164.32-112.43,55.35,6.76,109.21,65.13,112.43,121.08C2979.86,1895.33,2623.88,2058.54,2569,2000Z"/><path class="cls-32" d="M3032.31,3590.36c7.26,5.9,8.59,20.65,9.47,30.28.39,4.31.58,6.46.1,8-3.51,11.09-25,12.26-58.75,15.71-53.31,5.44-69.17,9.64-73.34,1.71-3.91-7.44,5.55-19.61,6.61-20.95,5.73-7.22,12.76-9.84,26.35-14.32,25.15-8.27,42.15-12.81,47.29-14.18C3022.17,3588,3027.53,3586.48,3032.31,3590.36Z"/><path class="cls-33" d="M3000.6,3541.66l-5.33,60.74c1.51,2.94,19.57,11.74,33.91,4.19l13.71-59.71Z"/><path class="cls-34" d="M2609.55,3582.55c8.7,9.61,10.69,27.32,3.12,36-7.44,8.57-18.63,2.14-50.36,3.09-34,1-42.87,9-66,2.67-9.33-2.58-25.81-8.84-25.5-15.5.22-4.69,8.61-7.11,36.64-16.5,39.78-13.32,39.6-14,48.05-15.45C2576.74,3573.39,2598.05,3569.86,2609.55,3582.55Z"/><path class="cls-35" d="M2587.77,3527.11l-17.05,56.71c1.29,3,18.62,13.19,33.49,6.76l25.32-55Z"/><path class="cls-36" d="M2739.24,2285.11a5311.06,5311.06,0,0,1-46.65,637.68,5311.29,5311.29,0,0,1-121.21,620.83l65.25,17.56c55.19-51.46,124.8-132.46,158.39-246.92,20.85-71.05,13.9-107.55,27.13-194.94,21-139.13,63.7-212,107.78-324.22,39.61-100.82,86.44-248.78,111.54-446.56Z"/><path class="cls-36" d="M2935.58,2266.92q20,363.59,32.56,740.57,9.34,282.84,13.84,558.44l66.66,8.23a776.35,776.35,0,0,0,69.52-179.41c23.72-95.13,18.23-151.62,28.63-250.22,11.68-110.58,28.63-134.67,58.67-274.17,61-283.1,91.45-424.66,23.44-512.71C3206.83,2329.07,3137.62,2257.36,2935.58,2266.92Z"/><path class="cls-37" d="M3259.4,1657.73a1035.14,1035.14,0,0,0-221.68-37c-133.21-7.53-199.81-11.3-247,20.42-109,73.27-24.62,242.36-69.24,661.52-6.37,59.86-7.8,120.15-12.41,180.17-7.64,99.37-9.38,104.77-2.47,114.84,43.36,63.15,205.14-32.1,442.25,5.55,132.67,21.06,192.84,69.6,229.19,34.59,42.39-40.82,6-150.62-25.27-245.14-35.93-108.5-58.12-109.9-78.51-191.61-21.32-85.41-8.43-129.38-5.11-264.06A2385.77,2385.77,0,0,0,3259.4,1657.73Z"/><g class="cls-38"><path class="cls-39" d="M2937,2444.65c62-4.85,102.18,30.19,155.67,2.88,73.36-37.44,96.93-153.94,92.26-236.39-7.11-125.28-78.64-158.3-66.31-239.28,6.67-43.79,37.94-101.93,150.19-161.33,1.5,50,1.22,92.6.38,126.46-3.32,134.68-16.21,178.65,5.11,264.06,20.39,81.71,42.58,83.11,78.51,191.61,31.3,94.52,67.66,204.32,25.27,245.14-36.35,35-96.52-13.53-229.19-34.59-204.31-32.44-352.6,33.7-417.49,12.25C2809.77,2485.9,2880.88,2449,2937,2444.65Z"/></g><path class="cls-40" d="M3174.86,1666.33c44.26-36.37,133.26,4.8,157,15.8,132.67,61.37,251.79,226.74,222.27,401.5-4.42,26.21-24.95,148.8-128.75,208.2-93.67,53.59-220.14,39.81-321.48-36.1l-41.55-36.87-40.87-44.18a328.23,328.23,0,0,1,108.91-60c67.38-21.74,116.44,17.27,147.7-12.39,21.57-20.47,21.62-56.63,16.29-78.54-10.73-44.16-49.66-56.58-82.16-87.92C3135.93,1862.18,3121.87,1709.88,3174.86,1666.33Z"/><polygon class="cls-41" points="2538.79 2236.84 3132.06 2227.98 2974.3 2304.12 2537.27 2275.52 2538.79 2236.84"/><path class="cls-42" d="M3153,2243.75h0a26.41,26.41,0,0,1-17.38,24.82L2946,2342.88l-.86-51.52L3132.06,2228A16.41,16.41,0,0,1,3153,2243.75Z"/><path class="cls-43" d="M3061.64,2208.65c3.64-.82-17.74-43.42-34.52-38.5s-98.87,52.49-106.33,72.08l-7.46,19.59s35.8,2.8,58-4.67S3032,2215.25,3061.64,2208.65Z"/><path class="cls-44" d="M2929.44,1929.86l41.82,380.76c1.44,13.13-17,32.71-30.15,32.08L2327.63,2305a21.51,21.51,0,0,1-20.18-17.84l-77-367.75c-2.29-13.38,21.76-27.2,35.34-26.82l642.88,18.07A21.52,21.52,0,0,1,2929.44,1929.86Z"/><path class="cls-45" d="M2915.42,1941l41.82,380.76a21.51,21.51,0,0,1-22.4,23.83l-621.23-29.41a21.49,21.49,0,0,1-20.18-17.84L2230,1928.87a21.51,21.51,0,0,1,21.8-25.14l642.89,18.08A21.51,21.51,0,0,1,2915.42,1941Z"/><path class="cls-46" d="M2550.63,2226.92c54.25-23,35.1-66.83,99.16-121.46,84.5-72.07,170.63-40.81,200.78-96.67,9.39-17.4,13.88-44.47-2.48-88.29l46.56,1.31a21.51,21.51,0,0,1,20.77,19.15l41.82,380.76a21.51,21.51,0,0,1-22.4,23.83l-621.23-29.41a21.49,21.49,0,0,1-20.18-17.84l-8.76-51a234.67,234.67,0,0,1,67.66-25.35C2443.47,2203.48,2488.18,2253.39,2550.63,2226.92Z"/><path class="cls-47" d="M2274.48,2262.89a4.84,4.84,0,0,1,4.35-6.39c13.13-.67,43.58-.94,60.39,9.35,21.84,13.38,50.08,37.79,26.3,50.1l-22.2,11.51a4.71,4.71,0,0,1-3.25.44c-7.89-1.73-41.1-9.1-44.73-10.93C2292,2315.31,2279.37,2277.73,2274.48,2262.89Z"/><path class="cls-48" d="M3035.32,1488.14a435.24,435.24,0,0,0,7.76,86.88c4.5,23.14,7.74,29.12,11.87,34,6.22,7.3,15.66,13.43,69,26.64,29,7.19,32.73,7,33.37,9.87,3.12,14-75.95,61.89-157.65,50.36-50-7.06-95.49-35.58-92.7-50.56s59.48-2.53,74.36-29.8c10.36-19,7.7-49.53-6-71.83C2988.55,1518.77,3022,1513,3035.32,1488.14Z"/><path class="cls-49" d="M2962.83,1488.17c-7.2-18.25-.63-44.83,17.08-57.88,15.24-11.24,33.55-8.39,44.52-6.69,31.77,4.94,67.08,28.52,72.77,60.59,3.38,19-23.57,49.12-28,54.64-5,6.25-11.27,7.15-17.9,11.09-9.19,5.47-23.63,14.21-47.33,29a131.32,131.32,0,0,0-1.24-22.83c-.48-3.38-2.53-16.61-7.84-28.58C2984.22,1503.47,2969.66,1505.46,2962.83,1488.17Z"/><path class="cls-50" d="M3034.56,1569.42s-29.4,27.63-69,13.89c-35.43-12.31-18.39-94.69,9.4-105.5,9.27-3.61,25.32-1.74,36.88,5.22,6.82,4.12,8.48,7.88,19.76,14.38,10.4,6,13.91,5.64,16.51,9.41,3.25,4.73,3.94,14.32-9.65,36,8.8-5.07,17.81-5.47,22.9-1.09a12.81,12.81,0,0,1,3.51,6C3067.38,1558.4,3055.68,1567.88,3034.56,1569.42Z"/></g></g></svg>