<svg xmlns="http://www.w3.org/2000/svg" xmlns:xlink="http://www.w3.org/1999/xlink" viewBox="0 0 3710 3710"><defs><style>.cls-1{fill:none;}.cls-2{isolation:isolate;}.cls-3{fill:url(#linear-gradient);}.cls-37,.cls-4{fill:#d8dee8;}.cls-5{fill:#f4f7fa;}.cls-16,.cls-17,.cls-5{opacity:0.5;}.cls-13,.cls-17,.cls-5{mix-blend-mode:soft-light;}.cls-6{fill:url(#linear-gradient-2);}.cls-7{fill:url(#linear-gradient-3);}.cls-8{fill:url(#linear-gradient-4);}.cls-9{fill:#26264f;}.cls-10{fill:url(#linear-gradient-5);}.cls-11{fill:url(#linear-gradient-6);}.cls-12,.cls-13{fill:#fff;}.cls-13{opacity:0.48;}.cls-14{fill:url(#linear-gradient-7);}.cls-15{fill:url(#linear-gradient-8);}.cls-18{clip-path:url(#clip-path);}.cls-19{fill:url(#linear-gradient-9);}.cls-20{opacity:0.7;fill:url(#linear-gradient-10);}.cls-20,.cls-35,.cls-37{mix-blend-mode:multiply;}.cls-21{fill:url(#linear-gradient-11);}.cls-22{fill:url(#linear-gradient-12);}.cls-23{fill:url(#linear-gradient-13);}.cls-24{fill:url(#linear-gradient-14);}.cls-25{fill:url(#linear-gradient-15);}.cls-26{fill:url(#linear-gradient-16);}.cls-27{clip-path:url(#clip-path-2);}.cls-28{fill:url(#linear-gradient-17);}.cls-29{fill:url(#linear-gradient-18);}.cls-30{fill:url(#linear-gradient-19);}.cls-31{fill:url(#linear-gradient-20);}.cls-32{fill:url(#linear-gradient-21);}.cls-33{fill:url(#linear-gradient-22);}.cls-34{fill:url(#linear-gradient-23);}.cls-35{opacity:0.3;}.cls-36{fill:url(#linear-gradient-24);}.cls-38{fill:url(#linear-gradient-25);}.cls-39{clip-path:url(#clip-path-3);}.cls-40{fill:url(#linear-gradient-26);}.cls-41{fill:url(#linear-gradient-27);}.cls-42{fill:url(#linear-gradient-28);}.cls-43{fill:url(#linear-gradient-29);}.cls-44{fill:url(#linear-gradient-30);}.cls-45{fill:url(#linear-gradient-31);}.cls-46{fill:url(#linear-gradient-32);}.cls-47{fill:url(#linear-gradient-33);}.cls-48{fill:url(#linear-gradient-34);}</style><linearGradient id="linear-gradient" y1="1855.98" x2="3710" y2="1855.98" gradientUnits="userSpaceOnUse"><stop offset="0" stop-color="#6fc6a5"/><stop offset="0.24" stop-color="#78c8aa"/><stop offset="0.63" stop-color="#92ceb7"/><stop offset="1" stop-color="#afd4c6"/></linearGradient><linearGradient id="linear-gradient-2" x1="1017.84" y1="1859.17" x2="2771.78" y2="1859.17" gradientUnits="userSpaceOnUse"><stop offset="0" stop-color="#ffc444"/><stop offset="1" stop-color="#f36f56"/></linearGradient><linearGradient id="linear-gradient-3" x1="2182.8" y1="2262.45" x2="4083.74" y2="2262.45" gradientTransform="translate(-284.7 -59.68) rotate(3.95)" gradientUnits="userSpaceOnUse"><stop offset="0" stop-color="#ff9085"/><stop offset="1" stop-color="#fb6fbb"/></linearGradient><linearGradient id="linear-gradient-4" x1="2614.01" y1="2161.99" x2="1503.84" y2="3392.64" gradientTransform="matrix(0.98, -0.19, 0.19, 0.98, 328.36, 373.18)" xlink:href="#linear-gradient-2"/><linearGradient id="linear-gradient-5" x1="106.68" y1="2401.31" x2="2488.22" y2="2401.31" gradientUnits="userSpaceOnUse"><stop offset="0" stop-color="#444b8c"/><stop offset="1" stop-color="#26264f"/></linearGradient><linearGradient id="linear-gradient-6" x1="204.5" y1="2385.66" x2="2407.69" y2="2385.66" gradientUnits="userSpaceOnUse"><stop offset="0" stop-color="#aa80f9"/><stop offset="1" stop-color="#6165d7"/></linearGradient><linearGradient id="linear-gradient-7" x1="106.68" y1="3317.02" x2="3694.38" y2="3317.02" xlink:href="#linear-gradient-5"/><linearGradient id="linear-gradient-8" x1="1833.66" y1="907.03" x2="3417.25" y2="907.03" gradientUnits="userSpaceOnUse"><stop offset="0" stop-color="#fff"/><stop offset="1" stop-color="#ebeff2"/></linearGradient><clipPath id="clip-path"><polygon class="cls-1" points="3272.43 1462.78 1991.78 1481.27 1991.78 156 3272.43 192.41 3272.43 1462.78"/></clipPath><linearGradient id="linear-gradient-9" x1="3015.21" y1="324.92" x2="2711.09" y2="920.48" gradientUnits="userSpaceOnUse"><stop offset="0" stop-color="#ab316d"/><stop offset="1" stop-color="#792d3d"/></linearGradient><linearGradient id="linear-gradient-10" x1="3022.47" y1="313.46" x2="2715.28" y2="915.04" xlink:href="#linear-gradient-9"/><linearGradient id="linear-gradient-11" x1="2716.88" y1="2237.49" x2="2571.09" y2="1180.47" gradientUnits="userSpaceOnUse"><stop offset="0" stop-color="#e38ddd"/><stop offset="1" stop-color="#9571f6"/></linearGradient><linearGradient id="linear-gradient-12" x1="2623.92" y1="1342.14" x2="2602.58" y2="879.06" xlink:href="#linear-gradient-2"/><linearGradient id="linear-gradient-13" x1="2601.13" y1="934.97" x2="2609.31" y2="621.98" xlink:href="#linear-gradient-2"/><linearGradient id="linear-gradient-14" x1="2472.73" y1="902.08" x2="2480.26" y2="613.82" xlink:href="#linear-gradient-2"/><linearGradient id="linear-gradient-15" x1="2725.97" y1="909.47" x2="2733.39" y2="625.72" xlink:href="#linear-gradient-2"/><linearGradient id="linear-gradient-16" x1="1894.02" y1="2463.49" x2="3194" y2="2463.49" xlink:href="#linear-gradient-8"/><clipPath id="clip-path-2"><polygon class="cls-1" points="3071.9 2878.61 2023.68 2943.59 2023.68 1837.25 3071.9 1809.9 3071.9 2878.61"/></clipPath><linearGradient id="linear-gradient-17" x1="2474.82" y1="1842.8" x2="2590.04" y2="3679.55" gradientUnits="userSpaceOnUse"><stop offset="0" stop-color="#f36f56"/><stop offset="1" stop-color="#ffc444"/></linearGradient><linearGradient id="linear-gradient-18" x1="2549.26" y1="2679.85" x2="2545.53" y2="2452.22" gradientUnits="userSpaceOnUse"><stop offset="0" stop-color="#311944"/><stop offset="1" stop-color="#893976"/></linearGradient><linearGradient id="linear-gradient-19" x1="2551.12" y1="2701.03" x2="2549.92" y2="2509.14" xlink:href="#linear-gradient-9"/><linearGradient id="linear-gradient-20" x1="2535.01" y1="2426.01" x2="2566.82" y2="2043.08" xlink:href="#linear-gradient-9"/><linearGradient id="linear-gradient-21" x1="2427.57" y1="2419.99" x2="2458.96" y2="2042.14" xlink:href="#linear-gradient-9"/><linearGradient id="linear-gradient-22" x1="2657.77" y1="2430.78" x2="2689.56" y2="2048.17" xlink:href="#linear-gradient-9"/><linearGradient id="linear-gradient-23" x1="2526.9" y1="2242.88" x2="2611.76" y2="1979.69" gradientUnits="userSpaceOnUse"><stop offset="0" stop-color="#311944"/><stop offset="1" stop-color="#6b3976"/></linearGradient><linearGradient id="linear-gradient-24" x1="2527.14" y1="2242.14" x2="2612.63" y2="1977.01" xlink:href="#linear-gradient-23"/><linearGradient id="linear-gradient-25" x1="297.79" y1="1684.41" x2="2297.77" y2="1684.41" xlink:href="#linear-gradient-8"/><clipPath id="clip-path-3"><polygon class="cls-1" points="2110.27 2305.87 501.49 2372.69 501.49 856.82 2110.27 865.63 2110.27 2305.87"/></clipPath><linearGradient id="linear-gradient-26" x1="1905.54" y1="1021.2" x2="1055.84" y2="2693.77" gradientTransform="matrix(1, 0, 0, 1, 0, 0)" xlink:href="#linear-gradient-3"/><linearGradient id="linear-gradient-27" x1="1305.92" y1="2257.61" x2="1320.02" y2="1488.09" gradientUnits="userSpaceOnUse"><stop offset="0" stop-color="#311944"/><stop offset="0.56" stop-color="#6f2b60"/><stop offset="1" stop-color="#a03976"/></linearGradient><linearGradient id="linear-gradient-28" x1="1328.85" y1="1744.49" x2="1382.15" y2="2090.9" xlink:href="#linear-gradient-2"/><linearGradient id="linear-gradient-29" x1="1303.61" y1="1212.63" x2="1290.23" y2="2095.73" xlink:href="#linear-gradient-2"/><linearGradient id="linear-gradient-30" x1="1267.25" y1="1226.54" x2="1253.84" y2="2111.48" gradientTransform="translate(-309.56 89.97) rotate(-6.51)" xlink:href="#linear-gradient-2"/><linearGradient id="linear-gradient-31" x1="1487.59" y1="1214.14" x2="1474.23" y2="2095.45" xlink:href="#linear-gradient-2"/><linearGradient id="linear-gradient-32" x1="1347.86" y1="1042.89" x2="1309.65" y2="1372.74" xlink:href="#linear-gradient-2"/><linearGradient id="linear-gradient-33" x1="-4354" y1="851.49" x2="-3499.28" y2="851.49" gradientTransform="translate(4428.12)" xlink:href="#linear-gradient-6"/><linearGradient id="linear-gradient-34" x1="-4241.18" y1="626.65" x2="-3499.47" y2="1603.48" gradientTransform="translate(4428.12)" xlink:href="#linear-gradient-6"/></defs><g class="cls-2"><g id="Illustration"><path class="cls-3" d="M3364.15,2880.09c-750.08,959.43-2506.68,974.84-2993,441.9C177.11,3109.33,125.87,2744.07,50.54,2207.54,14.28,1949.27,9.09,1741.08,6,1598.24-4.61,1112.36-9.89,869.4,68.33,704.11,292.37,231,1070.67,46.83,1573.72,38.29q52.66-.91,106.26.7c589,17.55,1253.73,262.75,1663.67,786.72a1757.66,1757.66,0,0,1,118.48,171.17C3836.32,1612.2,3773.36,2356.72,3364.15,2880.09Z"/><path class="cls-4" d="M1901.87,3353.82c-161.18-29.38-201.08-375.52-206.14-424.75-12.66-123.23-28.36-276,60.76-405.19,128.82-186.79,348.15-138.14,400.48-293.23,32.17-95.32-47-124.6-50.73-306.85-1.07-52.3-4.94-241.12,127.1-393.76,94.16-108.84,213.84-148.9,277.14-164.42,20.63-52.15,44.62-131.22,44.06-227.68-.89-154.75-64.16-214.47-31.33-296.53,37.62-94,171.73-143.14,273.79-142.19,271.86,2.53,420.82,361.2,431,386.71,26.37,65.93,109.9,274.8,14.3,426.82-75.52,120.09-203.84,110.85-223.4,209.58-19.52,98.51,102.44,136.87,131.29,287.23,24.63,128.39-29.56,281.5-125.46,367.71-160.19,144-356.27,29-442,148.31-99.85,138.91,101.6,384.26,12.5,467.05-84.57,78.58-305.69-105.66-413.43-13.89-77.87,66.33-5.65,199.51-110.68,306.1C2064.82,3291.22,1986,3369.16,1901.87,3353.82Z"/><path class="cls-5" d="M2748.56,780.87c103.28,23.82,151.08,334.92,96.51,601.27-37.58,183.41-91.17,186.83-228.81,497.3-186.54,420.77-117.22,480.15-252.86,627.17-186.12,201.76-377,155.39-479.44,349.46-69.33,131.35-49.27,280.28-19.18,389.73-38.45-59-98.2-168.2-114.85-316-10.86-96.31-30.48-270.47,69.71-376.47,120.23-127.2,297.33-33.88,379.84-152.13,46.78-67.05,4.74-118.37-6.08-347.33-10.92-231-16.37-346.45,46.14-445,111.52-175.79,312.05-104.12,380.68-256.63,71.14-158.11-109.52-312.6-15.54-472.81C2635,827.75,2697.59,769.12,2748.56,780.87Z"/><path class="cls-6" d="M2535.18,3312.08c176.57-32.19,220.27-411.37,225.82-465.3,13.87-135,31.07-302.31-66.56-443.87-141.11-204.62-381.37-151.32-438.71-321.22-35.23-104.41,51.48-136.49,55.57-336.13,1.18-57.3,5.42-264.14-139.23-431.35C2068.93,1195,1937.82,1151.1,1868.48,1134.1c-22.6-57.13-48.88-143.75-48.27-249.41,1-169.52,70.29-235,34.33-324.84-41.21-103-188.13-156.8-299.93-155.76-297.8,2.77-461,395.67-472.16,423.62-28.88,72.22-120.39,301-15.66,467.56,82.73,131.55,223.29,121.43,244.72,229.59,21.39,107.91-112.22,149.93-143.82,314.64-27,140.65,32.38,308.37,137.44,402.81,175.48,157.75,390.27,31.77,484.22,162.47,109.38,152.17-111.3,420.94-13.7,511.63,92.64,86.08,334.88-115.75,452.89-15.22,85.31,72.67,6.19,218.55,121.25,335.32C2356.68,3243.5,2443,3328.88,2535.18,3312.08Z"/><path class="cls-5" d="M1607.68,493.53c-113.14,26.1-165.51,366.89-105.72,658.67,41.17,200.91,99.87,204.65,250.64,544.76,204.35,460.93,128.42,526,277,687,203.89,221,413,170.22,525.21,382.81,75.94,143.9,54,307,21,426.94,42.12-64.64,107.57-184.26,125.82-346.21,11.89-105.49,33.39-296.28-76.37-412.4-131.7-139.34-325.7-37.11-416.09-166.65-51.25-73.45-5.2-129.66,6.66-380.48,12-253,17.93-379.51-50.55-487.47-122.16-192.56-341.83-114-417-281.12-77.93-173.2,120-342.44,17-517.94C1732.09,544.89,1663.51,480.66,1607.68,493.53Z"/><path class="cls-7" d="M1826.35,3374c-96.44-16.57-149.74-254.21-129.08-438.53,8-71.31,15.94-142.24,67.82-206.86,87.57-109.07,188.78-61.27,265.8-149.23,113.74-129.9-27.78-324.54,81.69-430.14,80.52-77.68,182.6,3,278.7-81.14,111.47-97.66,43.57-267.12,139.48-310.24,55.72-25,93.3,25.54,244.16,14.89,59-4.16,88.53-6.24,115.53-22.52,94.65-57,48.9-186.13,124.63-265.22,83.36-87.07,263.91-61.34,371.3-13.25,192.41,86.17,279,301.93,281.95,473.54.63,36.76.92,276.19-170.72,403-124.82,92.19-292.63,89.42-319.85,89-106-1.75-127.27-32.53-164.91-10.27-108.81,64.35,43,336.69-96,510.41C2860,3008.28,2763.32,3052.1,2677.54,3056c-138.68,6.35-198.41-93.87-272.1-59.48-95.34,44.5-37.67,232-142.19,287.23-73.95,39.09-130.77-40-255.46-7C1897.1,3306,1883.45,3383.78,1826.35,3374Z"/><path class="cls-5" d="M1831.77,3200.07c44,10.9,67.42-108.59,217.58-265.47,164-171.32,252.14-150.11,404.78-304.24,174.26-176,93.85-238.4,239.87-374.65,197.9-184.65,366.12-89.07,604.12-305.25,71.4-64.85,166.43-153.69,151-262.69-13.41-94.51-108.15-191.8-215.57-192-4.5,0-94.84,1.24-152.49,70.68-70.73,85.18-9.9,173.76-75.48,238.36-34.35,33.84-87.92,37.76-195.05,45.61-154.07,11.28-179.74-21.31-221.89,6.84-95.25,63.61,0,253.93-96.75,332.85-83.05,67.76-202.59-32.25-275.35,32.69-87.81,78.37,49,257.38-41.53,388.32-77.9,112.73-223.56,44.09-328.53,161.87C1722.5,2912.08,1768.29,3184.34,1831.77,3200.07Z"/><path class="cls-8" d="M2389.69,3275c73.25,5.11,83.18-129.47,211.08-169.77,141.48-44.59,231.28,88,329.85,37.32,110.74-56.91,48.37-250.47,172.75-323.12,85-49.63,144.14,23.15,251-22.4,111.38-47.47,220.11-200.29,177.34-350.16-35.68-125-164.33-204.29-267.87-205.05-84.7-.62-108.76,51.63-182.84,36.23-92.29-19.18-90.1-107.57-186.81-147.38-96.22-39.61-227.76-5.35-300.16,73.24-60.19,65.35-66.34,147.07-71.69,218.35-14.39,191.35,72.95,265.06,26.3,338.59-58.2,91.75-217.64,14-290.31,104.95C2167.39,2979.67,2284.34,3267.68,2389.69,3275Z"/><path class="cls-5" d="M2354.15,3134.26c26.8,5.34,34.7-81.86,118.94-154.67,96.59-83.47,169.28-40.67,277.35-106.58,133.9-81.68,83-184.45,202.22-267.31,167.11-116.17,374.72,11,430.82-83.86,32.78-55.4-4-156.4-63.16-189.35-63.1-35.17-107.8,31.56-216.11,15.76-101.45-14.8-107.15-79.9-232.34-112.6-61-15.94-141.2-36.87-192.42,2.39-100.35,76.92-45.88,351.48-29.25,435.29,15.3,77.11,29.49,107.05,9.41,138.45-52.57,82.24-227-2.64-307.62,86.18C2284.52,2972.24,2319.53,3127.36,2354.15,3134.26Z"/><path class="cls-9" d="M3694.38,3290.93l-3587.7-30.58v90.48c0,24.56,15.65,45.44,36.84,49.16L1158,3578.18a142.73,142.73,0,0,0,36.39,1.67l2461-203.16c22-1.81,39-22.76,39-48Z"/><path class="cls-9" d="M2392.42,3145.92,143.78,3311.45c-40.24,3-72.95-28.51-72.95-70.3V1566.65c0-41.79,32.71-75.68,73-75.68H2392.42c33.15,0,59.95,30.63,59.95,68.41V3073.1C2452.37,3110.88,2425.57,3143.48,2392.42,3145.92Z"/><path class="cls-10" d="M2428.27,3145.92,179.64,3311.45c-40.24,3-73-28.51-73-70.3V1566.65c0-41.79,32.72-75.68,73-75.68H2428.27c33.15,0,59.95,30.63,59.95,68.41V3073.1C2488.22,3110.88,2461.42,3143.48,2428.27,3145.92Z"/><path class="cls-11" d="M2358.22,3039.2,263.85,3183c-32.74,2.25-59.35-23.59-59.35-57.71v-1466c0-34.12,26.61-61.9,59.35-62l2094.37-9c27.35-.11,49.47,25,49.47,56.06V2979.54C2407.69,3010.61,2385.57,3037.33,2358.22,3039.2Z"/><path class="cls-12" d="M1383.37,1536.77c0,15.56-11.57,28.21-25.87,28.26s-25.92-12.56-25.92-28.16,11.61-28.24,25.92-28.25S1383.37,1521.21,1383.37,1536.77Z"/><path class="cls-13" d="M179.63,3311.45l2237.26-164.69,11.38-.84c15.21-1.12,29-8.64,39.61-20-161-8.81-261-66-325.5-125-129.54-118.55-107.07-235.47-246.77-313.41-174.24-97.23-311.24,26-443.46-95.58-80.15-73.7-40.8-128.65-139.43-238.77-109.25-122-180.37-81-290.16-190.75-138.82-138.8-69.39-246.79-189-346.45-145.07-120.89-301.51-9-439.6-124.94-59.56-50-92.24-122.71-109.3-200H179.64c-40.24,0-73,33.89-73,75.68v1674.5C106.68,3282.94,139.39,3314.41,179.63,3311.45Z"/><path class="cls-14" d="M2517.9,3136.74,106.68,3311,1158,3495.63a142.73,142.73,0,0,0,36.39,1.67l2500-206.37-1138.13-153A187,187,0,0,0,2517.9,3136.74Z"/><polygon class="cls-9" points="458.52 3312.48 2465.92 3165.26 3087.2 3248.11 1097.08 3405.48 458.52 3312.48"/><path class="cls-12" d="M3441.05,361.16v1095c0,50.5-34.36,92.29-77.56,93.32l-359.93,8.8-1110.17,27.14c-45.15,1.1-87.19-35.63-92.22-84-.4-3.69-5.36-7.39-5.36-11.2V323.55c0-19.69,10.15-37.82,19.27-52.92.26-.43,2.9-.79,3.16-1.19,15.87-25.41,43.82-41.63,74.09-40.81l168.41,4.46,1302.47,34.55C3406.41,268.79,3441.05,310.63,3441.05,361.16Z"/><path class="cls-15" d="M1893.54,1554.4c-33,.77-59.88-28.32-59.88-64.84V324.36c0-36.52,26.9-65.55,59.88-64.71L3364,297c29.37.74,53.21,29.29,53.21,63.65v1096c0,34.36-23.84,62.86-53.21,63.54Z"/><path class="cls-4" d="M3364,267.66l-1470.5-39c-48.56-1.29-88.06,41.27-88.06,95.07v69.87l1636.66,33.17V361.17C3442.14,310.67,3407.23,268.81,3364,267.66Z"/><path class="cls-12" d="M1962.15,315.24a28,28,0,0,1-28.6,28.38c-15.83-.35-28.67-13.66-28.67-29.71a28,28,0,0,1,28.67-28.38C1949.35,285.92,1962.15,299.22,1962.15,315.24Z"/><path class="cls-12" d="M2062.14,317.57a27.9,27.9,0,0,1-28.39,28.28c-15.71-.35-28.45-13.6-28.45-29.6S2018,287.59,2033.75,288,2062.14,301.61,2062.14,317.57Z"/><path class="cls-12" d="M2161.38,319.89c0,15.9-12.61,28.51-28.18,28.17S2105,334.51,2105,318.57s12.65-28.55,28.24-28.16S2161.38,304,2161.38,319.89Z"/><polygon class="cls-4" points="3351 1458.46 1908.14 1488.48 1908.14 570.8 3351 590.54 3351 1458.46"/><g class="cls-16"><polygon class="cls-12" points="2679.63 489.07 1908.14 475.76 1908.14 525.33 2679.63 537.21 2679.63 489.07"/><polygon class="cls-12" points="3267.68 499.22 3267.68 546.26 3351 547.54 3351 500.66 3267.68 499.22"/></g><g class="cls-17"><path class="cls-12" d="M3013,1558.26l-1110.3,27.15c-45.15,1.1-87.53-35.62-92.56-84,0-1.07-5.17-2.09-5.17-3.17V323c0-19.46,10.2-37.39,19-52.41.26-.43,3-.78,3.3-1.18,15.78-26.11,44.08-42.85,74.7-42l167.5,4.45c.12.41.57.82.71,1.23,3.12,10.2,6.71,20.56,10.48,31.06a672,672,0,0,0,61.32,128.33c1.62,2.65,3.31,5.25,5,7.84a551.19,551.19,0,0,0,62.16,80.48,513.38,513.38,0,0,0,53.78,49.84,563.41,563.41,0,0,0,66.44,45.79c163,96.72,346.1,109.36,467.55,303.28,104.09,166.2,29.54,253.42,130.21,507.69q16.41,41.47,35.16,79.32,15.9,32.36,33.23,62.24C3001.17,1539,3007,1548.72,3013,1558.26Z"/></g><g class="cls-18"><path class="cls-19" d="M2425.45,1449.62C2175,1411,2119.17,1382.56,2093.3,1329.4c-37.64-77.34-10.26-203.21,54-280.67,56.18-67.69,126-80.86,124-127.68-1.68-38.53-49.54-43.7-84.77-116.46-10.29-21.25-30.28-62.54-21.57-112,12.74-72.36,77.59-109.52,82.84-112.42,67.56-37.32,106,7.28,156.63-26.24,63.19-41.83,34.57-132.29,93.7-157.18,42.92-18.06,97.64,13.05,111.89,21.15,47.46,27,42.48,53.3,82.47,70.17,46.83,19.75,69.14-9.88,123.34,3.07,44.65,10.66,76.91,43.61,103.19,76.61,58.94,74,29.66,117.16,73.14,207.87,61,127.32,152.8,113.17,169,214.66,8.48,53-13.31,77.1,3.43,158.33,11.29,54.81,25.5,64.56,28,96.8,7.24,92.69-97.48,175.19-117.09,189.75C2950.33,1528.16,2775.67,1503.56,2425.45,1449.62Z"/><path class="cls-20" d="M2823.8,1198.74c-164-11.47-275.62,145-320.06,106.65-42.22-36.45,76.78-161.21,36.21-306.11C2500,856.76,2342.74,826.09,2355.22,745.55c14.1-91.08,224.38-112,219.46-178.93-2.9-39.47-77-49-91.87-112-4-17.11-2.69-34,1.52-49.68-40.91,32.51-22.31,110.92-79.87,149-50.64,33.52-89.07-11.08-156.63,26.24-5.25,2.9-70.1,40.06-82.84,112.42-8.71,49.47,11.28,90.76,21.57,112,35.23,72.76,83.09,77.93,84.77,116.46,2,46.82-67.83,60-124,127.68-64.28,77.46-91.66,203.33-54,280.67,25.87,53.16,81.65,81.64,332.15,120.22,350.22,53.94,524.88,78.54,650.12-14.47,48.33-35.9,105.17-96.75,117.34-150.51-24.3,23.09-48.16,34.42-70.44,38.8C3018.4,1343.91,2970.14,1209,2823.8,1198.74Z"/><path class="cls-21" d="M2146.05,1787.58c-38-95.22-14.82-245.59-9.94-277.27,19-123.52,63.8-200.16,80.1-227.37,111.45-186.07,280-184.7,406.5-183.66,62.33.5,126.76-.9,205.32,28.13,0,0,62,22.91,114.34,61.1,155.84,113.73,278.43,486.1,153.18,629-80.07,91.36-162.37-22.31-521.91,38.59-145.48,24.64-299.42,64.89-391.19-14.6C2167.25,1828.36,2155.29,1810.75,2146.05,1787.58Z"/><path class="cls-22" d="M2556.42,876.23s26.66,199.42-108.8,239.28c-15.69,4.62-20.51,25.31-8.63,36.86l166.94,162.32a23.94,23.94,0,0,0,35.15-1.81l149.58-174.18c9.76-11.37,5.49-29.43-8.17-34.68-47.87-18.4-133.94-72.2-115.85-217.64Z"/><path class="cls-23" d="M2473.4,764.79c0,2.19,36.58,197.41,130,197.63,88,.21,121.31-142.23,132.13-208.68l3.45-33.91a64.44,64.44,0,0,1-38.44.77c-4-1.18-29.5-8.69-39-30.8-10.56-24.65,8.85-43.92-2.2-65.5-6.42-12.52-19.34-18.52-29.22-21.64,6.58,10.17,19.33,32.83,12.12,53.16-4.84,13.67-18.41,26.67-48.71,34.34C2506.61,712.18,2472.54,720.57,2473.4,764.79Z"/><path class="cls-24" d="M2496.35,788.31s-48.43-43-52.66-17c-8.82,54.34,32.65,84.61,55.1,68.51S2496.35,788.31,2496.35,788.31Z"/><path class="cls-25" d="M2708.05,790s47.61-41.81,51.75-15.95c8.64,53.88-32,83.35-54.16,67.1S2708.05,790,2708.05,790Z"/></g><path class="cls-12" d="M2462.91,1377c0,28.5-22.24,51.89-49.72,52.25s-49.89-22.53-49.89-51.12,22.36-52,49.89-52.25S2462.91,1348.45,2462.91,1377Z"/><path class="cls-12" d="M2693.92,1374.34c0,28.28-21.91,51.49-49,51.84s-49.13-22.36-49.13-50.73,22-51.59,49.13-51.85S2693.92,1346.05,2693.92,1374.34Z"/><path class="cls-12" d="M2921.43,1371.76c0,28.07-21.57,51.1-48.23,51.45s-48.38-22.2-48.38-50.36,21.68-51.19,48.38-51.45S2921.43,1343.69,2921.43,1371.76Z"/><path class="cls-12" d="M3213.18,1967.24v900.65c0,41.57-28.21,77.39-64,79.94l-297,21.24-.32,0-909.12,65a64.89,64.89,0,0,1-17.41-1.09c-1-.18-2-.46-3.1-.69-2-.54-4-1.13-6-1.82s-3.87-1.5-5.79-2.41a69.52,69.52,0,0,1-8.16-4.61c-1.73-1.14-3.41-2.37-5-3.64s-3.23-2.69-4.74-4.15c-12.08-11.67-20.28-28-22.24-46.81-.32-3-1.59-6.06-1.59-9.16v-950.5c0-.87,0-1.69,0-2.55,0-1,.14-2,.18-3,1.19-13.8,6.2-26.7,12.72-37.82.18-.37,1-.69,1.18-1,10.44-17.33,26.88-30,45.8-34.58a66.54,66.54,0,0,1,6.75-1.33,63,63,0,0,1,7-.39l136.81-3.62h.1l295.27-8.68L3149.1,1894a21.55,21.55,0,0,1,2.41,0c1,0,1.92,0,2.88.06s1.86.12,2.78.22C3189,1898,3213.18,1928.87,3213.18,1967.24Z"/><path class="cls-26" d="M1942.72,3008.85c-26.83,1.89-48.7-20.78-48.7-50.53V2009c0-29.76,21.87-54.61,48.7-55.4L3149.91,1918c24.33-.71,44.09,21.69,44.09,50v901.5c0,28.26-19.76,52.64-44.09,54.35Z"/><path class="cls-4" d="M3149.91,1894l-1207.19,34.39c-39.5,1.12-71.61,37.56-71.61,81.38v56.92l1343.51-45.35v-54C3214.62,1925.8,3185.69,1892.94,3149.91,1894Z"/><path class="cls-12" d="M1998.58,1995.88a24.41,24.41,0,0,1-23.29,24.4,22.64,22.64,0,0,1-23.34-23,24.4,24.4,0,0,1,23.34-24.4A22.63,22.63,0,0,1,1998.58,1995.88Z"/><path class="cls-12" d="M2080.05,1993.33c0,13-10.35,23.92-23.14,24.33a22.53,22.53,0,0,1-23.19-22.88c0-13,10.39-23.94,23.19-24.33A22.53,22.53,0,0,1,2080.05,1993.33Z"/><path class="cls-12" d="M2161,1990.81c0,13-10.3,23.83-23,24.24s-23-9.8-23-22.81,10.32-23.86,23-24.24S2161,1977.83,2161,1990.81Z"/><polygon class="cls-4" points="3139.11 2873.61 1954.6 2954.56 1954.6 2206.57 3139.11 2160.02 3139.11 2873.61"/><g class="cls-16"><polygon class="cls-12" points="2585.4 2106.22 1954.6 2129.11 1954.6 2169.51 2585.4 2145.63 2585.4 2106.22"/><polygon class="cls-12" points="3070.15 2088.62 3070.15 2127.28 3139.11 2124.67 3139.11 2086.12 3070.15 2088.62"/></g><g class="cls-17"><path class="cls-12" d="M2852.23,2969.16l-909.49,64.94a64.89,64.89,0,0,1-17.41-1.09c-1-.18-2-.46-3.1-.69-2-.54-4-1.13-6-1.82s-3.87-1.5-5.79-2.41a69.52,69.52,0,0,1-8.16-4.61c-1.73-1.14-3.41-2.37-5-3.64s-3.23-2.69-4.74-4.15a75.33,75.33,0,0,1-22.38-46.76c0-.87-1.45-1.78-1.45-2.64V2009.22c0-.87,0-1.69,0-2.55,0-1,.14-2,.18-3,1.1-13.8,6.16-26.66,12.49-37.82.18-.37,1.1-.69,1.28-1,12.85-22,35.18-36.82,60.06-37.55l135.66-3.83c.09.32-.07.64-.07,1v0c4.56,8.2,5.86,16.45,8.91,24.83a513.22,513.22,0,0,0,50.24,102c1.31,2.1,2.8,4.15,4.17,6.2a414.61,414.61,0,0,0,50.78,62.94,383.75,383.75,0,0,0,44,38.37,422.1,422.1,0,0,0,54.29,34.5,0,0,0,0,0,.05,0c27.44,14.81,55.56,26.66,83.82,37.5,109.24,41.93,220.36,68.59,299.66,190.64,75.7,116.49,36.59,188.27,83.63,344.32,4.92,16.32,10.75,33.59,17.82,51.91q2.73,7.17,5.74,14.63c9,22.24,18.69,43.43,28.94,63.67q13.13,25.91,27.39,49.76,7.11,11.89,14.4,23.25S2852.23,2969.11,2852.23,2969.16Z"/></g><g class="cls-27"><path class="cls-28" d="M2106.09,3165.86c-36.55-95.24,15-258.61,47.39-333,94-216,265.23-231.91,404.18-244.85,135.27-12.59,264.7-24.65,358.72,128.45,61.1,99.49,117.07,284.63,79.77,387.61-39.33,108.58-149.09,34.26-413.41,51.36C2286.59,3174.56,2151.6,3284.45,2106.09,3165.86Z"/><path class="cls-29" d="M2685.37,2603.26c0,26.12-61,60.76-136.63,64.84-76,4.1-137.87-24.18-137.87-50.54s61.88-17.77,137.87-21.69C2624.36,2592,2685.37,2577.14,2685.37,2603.26Z"/><path class="cls-30" d="M2498.19,2429.69c-21,1,27.37,151.72-48.8,176.67-7.39,2.42-8.61,12.8-1.89,16.23,20.49,10.46,58.79,23,121.4,19.71a156.69,156.69,0,0,0,85.46-31.26c5.24-3.95,4.72-12.12-.89-14.86-23.25-11.32-55.58-49.56-45.92-167.62Z"/><path class="cls-31" d="M2434.44,2248.67c.32,1.91,6.68,141.68,37.45,210.16,8.83,19.63,52.52,15.15,80.72,11.4,24.46-3.25,62.72,4.23,73.48-13.86,43.17-72.59,35.86-247.08,35.86-247.08s-22.11-57.34-113.14-52.36C2457.24,2161.93,2434.44,2248.67,2434.44,2248.67Z"/><path class="cls-32" d="M2456,2323s-19.23-22.4-37.37-24.75-30,47-5.22,77.69,53.31,3.06,53.31,3.06Z"/><path class="cls-33" d="M2642.06,2315.07s19-23.86,36.83-27.68,29.43,44,5.12,76.57-52.55,7.71-52.55,7.71Z"/><path class="cls-34" d="M2440.9,2321.87c2.43,4.51,5.2,8.69,7.07,8.1,7.77-2.43-22.21-79.89,5.41-108.53,14.26-14.79,30.3-2.45,88.52-7.47,58.4-5,73.3-20.16,90.89-9.7,16,9.53,30.32,37.92,18.46,124.19l9.91-2.81c-4.45-27.91.4-45.84,6-57.23,4-8.32,11.36-19.12,10.79-34.27-.35-9.39-3.33-9.69-3.82-17.37-1.44-22.53,23.16-29.55,24.34-51.88.91-17.19-13.22-20.57-10.64-38.61,2.2-15.33,13.24-18.58,11.49-29.53-1.88-11.83-16.67-20.17-27.06-22.89-10.6-2.79-14.44.84-20.66-3.43-10.05-6.92-5.22-20-12.49-24.5-13-8.09-38.75,26.83-55.45,18.92-10.12-4.8-6.22-20.26-15.18-23.68-17.32-6.61-48,45.08-60.34,38.78-5.92-3-.21-15.57-8.51-24.38-9.75-10.35-33.19-9.55-43.89,2.13-10,10.89-1.5,23.2-12.07,36.94-9.49,12.35-20.46,7.79-31.19,17.81-18.24,17-11.89,53.85-9.62,67,7.8,45.21,32.06,53.46,26.62,84.68-1.4,8-4.64,17-2.32,29.81A58.9,58.9,0,0,0,2440.9,2321.87Z"/><g class="cls-35"><path class="cls-36" d="M2663.08,2215c-2.12-22.1,14.3-33,11.55-48.77-2.22-12.63-16-23.55-28.88-25.51-27.6-4.21-45.49,39-73,35.4-21.32-2.76-18.95-29.71-43.05-39.64-38.27-15.77-78.48,38.06-104,24.49-7.7-4.08-15.48-15-16-45.43-14.7,18-8.93,51.53-6.79,63.93,7.8,45.21,32.06,53.46,26.62,84.68-1.4,8-4.64,17-2.32,29.81a58.9,58.9,0,0,0,13.79,27.94c2.43,4.51,5.2,8.69,7.07,8.1,7.77-2.43-22.21-79.89,5.41-108.53,14.26-14.79,30.3-2.45,88.52-7.47,58.4-5,73.3-20.16,90.89-9.7,16,9.53,30.32,37.92,18.46,124.19l9.91-2.81c-4.45-27.91.4-45.84,6-57.23,1.66-3.43,3.88-7.29,5.88-11.69a104.2,104.2,0,0,0-4.13-23.86C2665.91,2223,2663.76,2222.09,2663.08,2215Z"/></g></g><path class="cls-12" d="M2402,2823.53c0,23.31-18.22,43.31-40.73,44.67s-40.85-16.49-40.85-39.86,18.3-43.38,40.85-44.67S2402,2800.22,2402,2823.53Z"/><path class="cls-12" d="M2591.62,2812.37c0,23.17-18,43-40.24,44.37s-40.34-16.4-40.34-39.62,18.08-43.1,40.34-44.38S2591.62,2789.21,2591.62,2812.37Z"/><path class="cls-12" d="M2778.86,2801.35c0,23-17.78,42.76-39.74,44.08s-39.84-16.31-39.84-39.39,17.85-42.82,39.84-44.09S2778.86,2778.33,2778.86,2801.35Z"/><path class="cls-37" d="M2374.6,1916v427.81c0,60.75-43.66,112.2-97.66,115l-322.35,16.68-60.57,3.1-25.29,1.32V2009.22c0-.87,0-1.69,0-2.55,0-1,.14-2,.18-3,1.1-13.8,6.16-26.66,12.49-37.82.18-.37,1.1-.69,1.28-1,12.85-22,35.18-36.82,60.06-37.55l136.14-3.83a7.91,7.91,0,0,0,.41,1Z"/><path class="cls-4" d="M2325.16,981.54c0-53.11-33.64-97.61-78-108.11-1.59-.38-3.35-.7-5-1a88.63,88.63,0,0,0-14.92-1.35l-932.81-5.46L374,860.25c-1.93,0-3.86,0-5.77.12a107.72,107.72,0,0,0-65,26l-1,.84q-3.85,3.38-7.42,7.08l-.17.17c-1.4,1.47-2.76,3-4.09,4.53a121,121,0,0,0-28.81,79v84.94h0V2395.84a122.22,122.22,0,0,0,3.55,29.4,115.63,115.63,0,0,0,5.29,16.22c14.17,34.6,44.15,59.61,80.51,65.68a105.15,105.15,0,0,0,22.83,1.29l1408.54-72.94h0l444.95-23c53.86-2.79,97.69-54.25,97.69-114.94V1060.37h0Z"/><path class="cls-12" d="M2329,980.87V2298.23c0,60.76-43.68,112.23-97.67,115l-451.43,23.35L374.22,2509.37c-57.62,3-108.43-40.26-114.86-99-.51-4.47-4-1433.12-4-1433.12,0-24,10-46.27,21.65-64.88.33-.53,2.22-1,2.55-1.51,20.27-31.31,55.2-51.73,93.83-51.49l214.25,1.25,1643.52,9.62C2285.17,870.58,2329,920.08,2329,980.87Z"/><path class="cls-38" d="M374.22,2471.65c-42.09,2.12-76.43-32.3-76.43-76.73V977.32c0-44.43,34.34-80.42,76.43-80.23l1857.06,8.41c36.71.16,66.49,33.93,66.49,75.26V2299.63c0,41.33-29.78,76.47-66.49,78.32Z"/><path class="cls-4" d="M2231.28,870.24,374.22,859.39c-62-.36-112.42,52.41-112.42,117.87v85l2067-2.56V980.82C2328.85,920.06,2285.26,870.56,2231.28,870.24Z"/><path class="cls-12" d="M461.72,962.94c0,19.48-16.32,35.25-36.47,35.23s-36.57-15.86-36.57-35.39,16.39-35.3,36.57-35.23S461.72,943.47,461.72,962.94Z"/><path class="cls-12" d="M589.07,963.23c0,19.39-16.17,35.09-36.14,35.07s-36.24-15.8-36.24-35.23,16.24-35.15,36.24-35.08S589.07,943.84,589.07,963.23Z"/><path class="cls-12" d="M715.3,963.51c0,19.3-16,34.93-35.82,34.91s-35.92-15.72-35.92-35.07,16.09-35,35.92-34.92S715.3,944.2,715.3,963.51Z"/><polygon class="cls-4" points="2214.98 2304.1 392.84 2390.96 392.84 1275.07 2214.98 1259.26 2214.98 2304.1"/><g class="cls-16"><polygon class="cls-12" points="1371.67 1154.97 392.84 1159.51 392.84 1219.79 1371.67 1213.19 1371.67 1154.97"/><polygon class="cls-12" points="2110.75 1151.54 2110.75 1208.2 2214.98 1207.5 2214.98 1151.06 2110.75 1151.54"/></g><g class="cls-17"><path class="cls-12" d="M1779.89,2436.56l-1405.68,72.8c-57.62,3-108.77-40.24-115.2-99,0-1.31-3.63-1433.77-3.63-1433.77,0-23.68,10.06-45.74,21.3-64.24.33-.53,2.4-1,2.73-1.51,20.15-32.16,55.54-53.22,94.61-53l213.09,1.26c.15.49.54,1,.72,1.47,4,12.32,8.45,24.81,13.24,37.48a781.83,781.83,0,0,0,78,154.26c2.06,3.17,4.19,6.28,6.32,9.39a652.76,652.76,0,0,0,79,96,621.39,621.39,0,0,0,68.29,59,697.24,697.24,0,0,0,84.3,53.72c206.52,112.64,437.9,122.74,591.06,353.66,131.07,197.6,37.21,305.32,163.92,609.12q20.64,49.51,44.22,94.55,20,38.51,41.77,74C1765.08,2413.67,1772.46,2425.25,1779.89,2436.56Z"/></g><path class="cls-12" d="M1107.38,2191.74c0,41.52-32.45,76.58-72.6,78.32s-73-30.69-73-72.43,32.73-76.82,73-78.34S1107.38,2150.22,1107.38,2191.74Z"/><path class="cls-12" d="M1399.07,2180c0,41.06-31.74,75.73-71,77.42s-71.4-30.38-71.4-71.66,32-76,71.4-77.44S1399.07,2138.89,1399.07,2180Z"/><path class="cls-12" d="M1684.42,2168.41c0,40.62-31.06,74.89-69.48,76.55s-69.84-30.08-69.84-70.91,31.31-75.12,69.84-76.57S1684.42,2127.8,1684.42,2168.41Z"/><g class="cls-39"><path class="cls-40" d="M1348.22,2438.23c-493.24,25.83-669.82,99.25-750.47-5-74.58-96.44-12.77-456.09,75.85-558.7,139.1-161,359.89-173.42,657.07-187.88,274.43-13.36,441.18-21.48,571.6,93.27,120.93,106.4,197.67,480.53,122.84,588.55C1955.35,2469.14,1805.14,2414.3,1348.22,2438.23Z"/><path class="cls-41" d="M1167.37,1689.51l-57.6,15.91c-14.16,3.9-20.62,20.37-12.73,32.43,39.29,60.05,142.86,210,207.37,226.06,66.42,16.51,189.76-178.86,230.58-247.21,7-11.79,1.4-26.87-11.48-30.74l-41.3-12.39a270.73,270.73,0,0,0-105.16-9.94l-155.93,15.81A324.79,324.79,0,0,0,1167.37,1689.51Z"/><path class="cls-42" d="M1210,1466.29s31.49,225.73-12.07,248.27l123.69,131.84,124.32-161.91s-46.88-34.54-34.52-221Z"/><path class="cls-43" d="M1136.63,1142.52c-4.5,6.08-63.13,292.79,138.85,320,199.43,26.89,208.17-182.25,205.65-270.91s-93.42-120.77-145.67-126.93C1283,1058.51,1152.6,1120.93,1136.63,1142.52Z"/><path class="cls-44" d="M1124.88,1309.56s-10.14-46.68-44.91-17.23S1100.5,1398.76,1146,1395Z"/><path class="cls-45" d="M1475,1274.3C1469.32,1278.22,1453,1387,1453,1387s28.63,3.06,49.31-36.1S1532.85,1234.48,1475,1274.3Z"/><path class="cls-9" d="M1552.72,1066.86c-20.78-34.79-73.41-18.28-88.81-51.9-12.94-28.28,17.47-54.8,1.16-79.26-13.66-20.48-47.08-20.09-53-20-45.3.53-55.69,36.53-88.09,35.63-39.65-1.1-41.2-55.42-93.79-78.55-51.21-22.53-126.34-4.78-156.81,37-23.72,32.49-3.53,56.48-34.66,98.29-21.44,28.8-40.42,30.08-51.09,58.31-10,26.52-3.24,51.77,2.06,70.51,12.71,44.91,36.38,64.62,72.08,112.17a763.38,763.38,0,0,1,60.37,94.22,1063.18,1063.18,0,0,1,35.39,112.46c11.34,44.4,10.65,53.43,21.24,67.7,36.44,49.1,119.3,42.9,154,40.29,39.73-3,89.06-6.67,113.81-41.59,13.36-18.85,11.68-35.68,14.78-80.77a1125.94,1125.94,0,0,1,17.15-132.17,404.94,404.94,0,0,1,16.1-56.07c14.34-38.63,29.22-44.86,45.37-84.73C1552.93,1136.37,1569.63,1095.14,1552.72,1066.86ZM1388.55,1369c-24.52,6.9-41.08,1.11-74.41-.45-66.87-3.14-88.07,28.46-119.79,15-13.24-5.61-43.89-21.41-50.39-52.28a248,248,0,0,1-2.09-79.18c5.28-38.79,11.36-83.53,42.48-103.41,45.05-28.78,102.4,20.22,143.46-11.77,15.67-12.21,22-30.75,24.82-44.85,9.09,3.12,81.19,29.28,107.64,106.35,16.29,47.45,7,89.92-1,113C1444.4,1334.16,1421.64,1359.63,1388.55,1369Z"/><path class="cls-46" d="M1250.17,1417.51a164.47,164.47,0,0,0,107.95-4.37c4.5-1.76,8.33,3.11,4.59,5.83-15.48,11.24-38.1,23.25-62.75,21.74-20.4-1.25-39.15-8.89-53.62-16.92C1242.2,1421.49,1245.47,1416.11,1250.17,1417.51Z"/></g><path class="cls-12" d="M1097.11,2191.44c0,34.52-28.16,63.59-63,64.93s-63.21-25.66-63.21-60.32,28.33-63.73,63.21-64.94S1097.11,2156.92,1097.11,2191.44Z"/><path class="cls-12" d="M1389.05,2180.78c0,34.2-27.64,63-61.8,64.31a59.33,59.33,0,0,1-62-59.79c0-34.33,27.81-63.13,62-64.31A59.34,59.34,0,0,1,1389.05,2180.78Z"/><path class="cls-12" d="M1675.67,2170.32c0,33.89-27.14,62.41-60.69,63.7s-60.91-25.24-60.91-59.26,27.3-62.55,60.91-63.71S1675.67,2136.43,1675.67,2170.32Z"/><path class="cls-47" d="M866.93,1020.27c39.29-49.21,61.92-107,61.92-168.78,0-179.7-191.34-325.38-427.36-325.38S74.12,671.79,74.12,851.49s191.34,325.38,427.37,325.38c88.46,0,170.64-20.46,238.82-55.51,45.07,7.69,115,20.61,152,27.48a14.2,14.2,0,0,0,15.88-19Z"/><g class="cls-35"><path class="cls-48" d="M735.35,920.35c-95.83-40.28-201.21,44.74-267.09-14.57-66.41-59.79,5.33-178-58.27-262.23-30.33-40.17-81.28-59.17-139.57-65.81C152.33,635.63,74.12,736.61,74.12,851.49c0,179.7,191.34,325.38,427.37,325.38,88.46,0,170.64-20.46,238.82-55.51,35.56,6.07,86.6,15.39,124.7,22.42C836.91,998.09,785.22,941.31,735.35,920.35Z"/></g><path class="cls-12" d="M784.9,732.57A16.4,16.4,0,0,1,768.5,749H249a16.41,16.41,0,0,1-16.41-16.41h0A16.41,16.41,0,0,1,249,716.17H768.5a16.4,16.4,0,0,1,16.4,16.4Z"/><path class="cls-12" d="M784.9,831a16.4,16.4,0,0,1-16.4,16.41H249A16.41,16.41,0,0,1,232.55,831h0A16.41,16.41,0,0,1,249,814.61H768.5A16.4,16.4,0,0,1,784.9,831Z"/><path class="cls-12" d="M538.81,929.45a16.41,16.41,0,0,1-16.41,16.41H249a16.41,16.41,0,0,1-16.41-16.41h0A16.41,16.41,0,0,1,249,913.05H522.4a16.41,16.41,0,0,1,16.41,16.4Z"/></g></g></svg>